<?xml version="1.0" encoding="UTF-8"?>
<svg xmlns="http://www.w3.org/2000/svg" viewBox="0 0 901 704" width="901mm" height="704mm" style="background:#fafafa;font-family:Helvetica,Arial,sans-serif;">
<rect x="0" y="0" width="901" height="50" fill="#1F4E79"/>
<text x="450.5" y="22.5" text-anchor="middle" fill="#fff" font-size="14" font-weight="bold">A1_LAND_common_v2.0</text>
<text x="450.5" y="39.0" text-anchor="middle" fill="#cfe2ff" font-size="9">ABSTRACT BASE   ·   paper 841 × 594 mm   ·   mode=—</text>
<g transform="translate(30,674) scale(1,-1)">
<rect x="0" y="0" width="841" height="594" fill="#ffffff" stroke="#1a1a1a" stroke-width="0.6"/>
<line x1="0" y1="0" x2="841"  y2="0" stroke="#000" stroke-width="0.7"/>
<line x1="841" y1="0" x2="841"  y2="594" stroke="#000" stroke-width="0.7"/>
<line x1="841" y1="594" x2="0"  y2="594" stroke="#000" stroke-width="0.7"/>
<line x1="0" y1="594" x2="0"  y2="0" stroke="#000" stroke-width="0.7"/>
<line x1="0" y1="110" x2="841"  y2="110" stroke="#222" stroke-width="0.35"/>
<line x1="200" y1="0" x2="200"  y2="110" stroke="#444" stroke-width="0.18"/>
<line x1="400" y1="0" x2="400"  y2="110" stroke="#444" stroke-width="0.18"/>
<line x1="620" y1="0" x2="620"  y2="110" stroke="#444" stroke-width="0.18"/>
<line x1="820" y1="0" x2="820"  y2="110" stroke="#444" stroke-width="0.18"/>
<line x1="0" y1="50" x2="200"  y2="50" stroke="#444" stroke-width="0.18"/>
<line x1="0" y1="35" x2="200"  y2="35" stroke="#444" stroke-width="0.18"/>
<line x1="0" y1="20" x2="200"  y2="20" stroke="#444" stroke-width="0.18"/>
<line x1="200" y1="85" x2="400"  y2="85" stroke="#444" stroke-width="0.18"/>
<line x1="200" y1="60" x2="400"  y2="60" stroke="#444" stroke-width="0.18"/>
<line x1="200" y1="35" x2="400"  y2="35" stroke="#444" stroke-width="0.18"/>
<line x1="620" y1="90" x2="820"  y2="90" stroke="#444" stroke-width="0.18"/>
<line x1="620" y1="72" x2="820"  y2="72" stroke="#444" stroke-width="0.18"/>
<line x1="680" y1="72" x2="680"  y2="110" stroke="#444" stroke-width="0.18"/>
<line x1="750" y1="72" x2="750"  y2="110" stroke="#444" stroke-width="0.18"/>
<line x1="0" y1="0" x2="841"  y2="0" stroke="#000" stroke-width="0.7"/>
<line x1="841" y1="0" x2="841"  y2="594" stroke="#000" stroke-width="0.7"/>
<line x1="841" y1="594" x2="0"  y2="594" stroke="#000" stroke-width="0.7"/>
<line x1="0" y1="594" x2="0"  y2="0" stroke="#000" stroke-width="0.7"/>
<line x1="0" y1="110" x2="841"  y2="110" stroke="#222" stroke-width="0.35"/>
<line x1="185" y1="0" x2="185"  y2="110" stroke="#444" stroke-width="0.18"/>
<line x1="353" y1="0" x2="353"  y2="110" stroke="#444" stroke-width="0.18"/>
<line x1="555" y1="0" x2="555"  y2="110" stroke="#444" stroke-width="0.18"/>
<line x1="723" y1="0" x2="723"  y2="110" stroke="#444" stroke-width="0.18"/>
<line x1="0" y1="18.3" x2="185"  y2="18.3" stroke="#444" stroke-width="0.18"/>
<line x1="0" y1="36.7" x2="185"  y2="36.7" stroke="#444" stroke-width="0.18"/>
<line x1="0" y1="55.0" x2="185"  y2="55.0" stroke="#444" stroke-width="0.18"/>
<line x1="0" y1="73.3" x2="185"  y2="73.3" stroke="#444" stroke-width="0.18"/>
<line x1="0" y1="91.7" x2="185"  y2="91.7" stroke="#444" stroke-width="0.18"/>
<line x1="185" y1="33.0" x2="353"  y2="33.0" stroke="#444" stroke-width="0.18"/>
<line x1="185" y1="60.5" x2="353"  y2="60.5" stroke="#444" stroke-width="0.18"/>
<line x1="185" y1="85.8" x2="353"  y2="85.8" stroke="#444" stroke-width="0.18"/>
<line x1="555" y1="27.5" x2="723"  y2="27.5" stroke="#444" stroke-width="0.18"/>
<line x1="555" y1="55.0" x2="723"  y2="55.0" stroke="#444" stroke-width="0.18"/>
<line x1="555" y1="82.5" x2="723"  y2="82.5" stroke="#444" stroke-width="0.18"/>
<g transform="translate(4,105) scale(1,-1)"><text x="0" y="0" font-size="1.4" text-anchor="start" fill="#000">CLIENT</text></g>
<g transform="translate(4,80) scale(1,-1)"><text x="0" y="0" font-size="1.4" text-anchor="start" fill="#000">PROJECT</text></g>
<g transform="translate(4,46) scale(1,-1)"><text x="0" y="0" font-size="1.2" text-anchor="start" fill="#000">ARCHITECT</text></g>
<g transform="translate(4,31) scale(1,-1)"><text x="0" y="0" font-size="1.2" text-anchor="start" fill="#000">STRUCTURAL</text></g>
<g transform="translate(4,16) scale(1,-1)"><text x="0" y="0" font-size="1.2" text-anchor="start" fill="#000">MEP</text></g>
<g transform="translate(4,2) scale(1,-1)"><text x="0" y="0" font-size="1.2" text-anchor="start" fill="#000">CONTRACTOR</text></g>
<g transform="translate(204,105) scale(1,-1)"><text x="0" y="0" font-size="1.4" text-anchor="start" fill="#000">NOTES</text></g>
<g transform="translate(404,105) scale(1,-1)"><text x="0" y="0" font-size="1.4" text-anchor="start" fill="#000">DRAWING TITLE</text></g>
<g transform="translate(204,82) scale(1,-1)"><text x="0" y="0" font-size="1.2" text-anchor="start" fill="#000">PROJECT REF.</text></g>
<g transform="translate(204,56) scale(1,-1)"><text x="0" y="0" font-size="1.2" text-anchor="start" fill="#000">DISCIPLINE</text></g>
<g transform="translate(204,31) scale(1,-1)"><text x="0" y="0" font-size="1.2" text-anchor="start" fill="#000">RIBA STAGE</text></g>
<g transform="translate(624,105) scale(1,-1)"><text x="0" y="0" font-size="1.2" text-anchor="start" fill="#000">DATE</text></g>
<g transform="translate(684,105) scale(1,-1)"><text x="0" y="0" font-size="1.2" text-anchor="start" fill="#000">PAPER</text></g>
<g transform="translate(754,105) scale(1,-1)"><text x="0" y="0" font-size="1.2" text-anchor="start" fill="#000">SCALE</text></g>
<g transform="translate(624,87) scale(1,-1)"><text x="0" y="0" font-size="1.2" text-anchor="start" fill="#000">DRAWN BY</text></g>
<g transform="translate(684,87) scale(1,-1)"><text x="0" y="0" font-size="1.2" text-anchor="start" fill="#000">CHECKED BY</text></g>
<g transform="translate(754,87) scale(1,-1)"><text x="0" y="0" font-size="1.2" text-anchor="start" fill="#000">APPROVED BY</text></g>
<g transform="translate(624,69) scale(1,-1)"><text x="0" y="0" font-size="1.0" text-anchor="start" fill="#000">DATES</text></g>
<g transform="translate(2,107) scale(1,-1)"><text x="0" y="0" font-size="1.4" text-anchor="start" fill="#000">CLIENT</text></g>
<g transform="translate(2,88.66666666666667) scale(1,-1)"><text x="0" y="0" font-size="1.2" text-anchor="start" fill="#000">PROJECT</text></g>
<g transform="translate(2,70.33333333333334) scale(1,-1)"><text x="0" y="0" font-size="1.0" text-anchor="start" fill="#000">ARCHITECT</text></g>
<g transform="translate(2,52.0) scale(1,-1)"><text x="0" y="0" font-size="1.0" text-anchor="start" fill="#000">STRUCTURAL</text></g>
<g transform="translate(2,33.66666666666667) scale(1,-1)"><text x="0" y="0" font-size="1.0" text-anchor="start" fill="#000">MEP</text></g>
<g transform="translate(2,15.333333333333343) scale(1,-1)"><text x="0" y="0" font-size="1.0" text-anchor="start" fill="#000">CONTRACTOR</text></g>
<g transform="translate(187,107) scale(1,-1)"><text x="0" y="0" font-size="1.2" text-anchor="start" fill="#000">NOTES</text></g>
<g transform="translate(187,82.8) scale(1,-1)"><text x="0" y="0" font-size="0.9" text-anchor="start" fill="#000">PROJECT REF</text></g>
<g transform="translate(187,57.50000000000001) scale(1,-1)"><text x="0" y="0" font-size="0.9" text-anchor="start" fill="#000">DISCIPLINE</text></g>
<g transform="translate(187,30.0) scale(1,-1)"><text x="0" y="0" font-size="0.9" text-anchor="start" fill="#000">RIBA STAGE</text></g>
<g transform="translate(355,107) scale(1,-1)"><text x="0" y="0" font-size="1.4" text-anchor="start" fill="#000">DRAWING TITLE</text></g>
<g transform="translate(557,107) scale(1,-1)"><text x="0" y="0" font-size="1.0" text-anchor="start" fill="#000">DATE</text></g>
<g transform="translate(557,79.5) scale(1,-1)"><text x="0" y="0" font-size="0.9" text-anchor="start" fill="#000">DRAWN BY</text></g>
<g transform="translate(557,52.0) scale(1,-1)"><text x="0" y="0" font-size="0.9" text-anchor="start" fill="#000">CHECKED BY</text></g>
<g transform="translate(557,24.5) scale(1,-1)"><text x="0" y="0" font-size="0.9" text-anchor="start" fill="#000">APPROVED BY</text></g>
<g transform="translate(725,107) scale(1,-1)"><text x="0" y="0" font-size="1.0" text-anchor="start" fill="#000">SHEET</text></g>
<g transform="translate(725,63.0) scale(1,-1)"><text x="0" y="0" font-size="0.9" text-anchor="start" fill="#000">SCALE</text></g>
<g transform="translate(725,30.0) scale(1,-1)"><text x="0" y="0" font-size="0.9" text-anchor="start" fill="#000">PAPER</text></g>
<g transform="translate(4,95) scale(1,-1)"><text x="0" y="0" font-size="2.0" text-anchor="start" fill="#1F4E79" font-style="italic">{TB·CLIENT_NAME}</text></g>
<g transform="translate(4,86) scale(1,-1)"><text x="0" y="0" font-size="1.4" text-anchor="start" fill="#1F4E79" font-style="italic">{TB·CLIENT_ADDRESS}</text></g>
<g transform="translate(4,70) scale(1,-1)"><text x="0" y="0" font-size="2.0" text-anchor="start" fill="#1F4E79" font-style="italic">{ORG·PROJECT_NAME}</text></g>
<g transform="translate(4,60) scale(1,-1)"><text x="0" y="0" font-size="1.4" text-anchor="start" fill="#1F4E79" font-style="italic">{ORG·PROJECT_ADDRESS}</text></g>
<g transform="translate(40,46) scale(1,-1)"><text x="0" y="0" font-size="1.4" text-anchor="start" fill="#1F4E79" font-style="italic">{TB·CONSULTANT_NAME}</text></g>
<g transform="translate(40,41) scale(1,-1)"><text x="0" y="0" font-size="1.0" text-anchor="start" fill="#1F4E79" font-style="italic">{TB·CONSULTANT_ADDRESS}</text></g>
<g transform="translate(40,31) scale(1,-1)"><text x="0" y="0" font-size="1.4" text-anchor="start" fill="#1F4E79" font-style="italic">{TB·STRUCTURAL_CONSULTANTS_NAME}</text></g>
<g transform="translate(40,26) scale(1,-1)"><text x="0" y="0" font-size="1.0" text-anchor="start" fill="#1F4E79" font-style="italic">{TB·STRUCTURAL_CONSULTANTS_ADDRESS}</text></g>
<g transform="translate(40,16) scale(1,-1)"><text x="0" y="0" font-size="1.4" text-anchor="start" fill="#1F4E79" font-style="italic">{TB·MEP_CONSULTANTS_NAME}</text></g>
<g transform="translate(40,11) scale(1,-1)"><text x="0" y="0" font-size="1.0" text-anchor="start" fill="#1F4E79" font-style="italic">{TB·MEP_CONSULTANTS_ADDRESS}</text></g>
<g transform="translate(40,2) scale(1,-1)"><text x="0" y="0" font-size="1.4" text-anchor="start" fill="#1F4E79" font-style="italic">{TB·CONTRACTOR_NAME}</text></g>
<g transform="translate(120,2) scale(1,-1)"><text x="0" y="0" font-size="1.0" text-anchor="start" fill="#1F4E79" font-style="italic">{TB·CONTRACTOR_ADDRESS}</text></g>
<g transform="translate(204,75) scale(1,-1)"><text x="0" y="0" font-size="1.6" text-anchor="start" fill="#1F4E79" font-style="italic">{ORG·PROJECT_CODE}</text></g>
<g transform="translate(300,75) scale(1,-1)"><text x="0" y="0" font-size="1.6" text-anchor="start" fill="#1F4E79" font-style="italic">{ORG·PROJECT_NUMBER}</text></g>
<g transform="translate(204,50) scale(1,-1)"><text x="0" y="0" font-size="1.6" text-anchor="start" fill="#1F4E79" font-style="italic">{TB·DISCIPLINE}</text></g>
<g transform="translate(204,25) scale(1,-1)"><text x="0" y="0" font-size="1.6" text-anchor="start" fill="#1F4E79" font-style="italic">{ORG·RIBA_STAGE}</text></g>
<g transform="translate(204,95) scale(1,-1)"><text x="0" y="0" font-size="1.4" text-anchor="start" fill="#1F4E79" font-style="italic">{TB·NOTES_LEGEND_REF}</text></g>
<g transform="translate(404,90) scale(1,-1)"><text x="0" y="0" font-size="3.5" text-anchor="start" fill="#1F4E79" font-style="italic">{ORG·PROJECT_NAME}</text></g>
<g transform="translate(624,96) scale(1,-1)"><text x="0" y="0" font-size="1.4" text-anchor="start" fill="#1F4E79" font-style="italic">{TB·DATE_DRAWN}</text></g>
<g transform="translate(684,96) scale(1,-1)"><text x="0" y="0" font-size="1.4" text-anchor="start" fill="#1F4E79" font-style="italic">{TB·PAPER_SZ}</text></g>
<g transform="translate(754,96) scale(1,-1)"><text x="0" y="0" font-size="1.4" text-anchor="start" fill="#1F4E79" font-style="italic">{TB·SCALE_OVERRIDE}</text></g>
<g transform="translate(624,78) scale(1,-1)"><text x="0" y="0" font-size="1.4" text-anchor="start" fill="#1F4E79" font-style="italic">{TB·DRAWN_BY}</text></g>
<g transform="translate(684,78) scale(1,-1)"><text x="0" y="0" font-size="1.4" text-anchor="start" fill="#1F4E79" font-style="italic">{TB·CHECKED_BY}</text></g>
<g transform="translate(754,78) scale(1,-1)"><text x="0" y="0" font-size="1.4" text-anchor="start" fill="#1F4E79" font-style="italic">{TB·APVD_BY}</text></g>
<g transform="translate(624,64) scale(1,-1)"><text x="0" y="0" font-size="1.0" text-anchor="start" fill="#1F4E79" font-style="italic">{TB·DATE_DRAWN}</text></g>
<g transform="translate(684,64) scale(1,-1)"><text x="0" y="0" font-size="1.0" text-anchor="start" fill="#1F4E79" font-style="italic">{TB·DATE_CHECKED}</text></g>
<g transform="translate(754,64) scale(1,-1)"><text x="0" y="0" font-size="1.0" text-anchor="start" fill="#1F4E79" font-style="italic">{TB·DATE_APVD}</text></g>
<g transform="translate(2,99.91666666666667) scale(1,-1)"><text x="0" y="0" font-size="1.6" text-anchor="start" fill="#1F4E79" font-style="italic">{TB·CLIENT_NAME}</text></g>
<g transform="translate(2,93.41666666666667) scale(1,-1)"><text x="0" y="0" font-size="0.9" text-anchor="start" fill="#1F4E79" font-style="italic">{TB·CLIENT_ADDRESS}</text></g>
<g transform="translate(2,82.58333333333334) scale(1,-1)"><text x="0" y="0" font-size="1.5" text-anchor="start" fill="#1F4E79" font-style="italic">{ORG·PROJECT_NAME}</text></g>
<g transform="translate(2,76.08333333333334) scale(1,-1)"><text x="0" y="0" font-size="0.85" text-anchor="start" fill="#1F4E79" font-style="italic">{ORG·PROJECT_ADDRESS}</text></g>
<g transform="translate(2,64.25) scale(1,-1)"><text x="0" y="0" font-size="1.1" text-anchor="start" fill="#1F4E79" font-style="italic">{TB·CONSULTANT_NAME}</text></g>
<g transform="translate(2,57.75000000000001) scale(1,-1)"><text x="0" y="0" font-size="0.75" text-anchor="start" fill="#1F4E79" font-style="italic">{TB·CONSULTANT_ADDRESS}</text></g>
<g transform="translate(2,45.916666666666664) scale(1,-1)"><text x="0" y="0" font-size="1.1" text-anchor="start" fill="#1F4E79" font-style="italic">{TB·STRUCTURAL_CONSULTANTS_NAME}</text></g>
<g transform="translate(2,39.416666666666664) scale(1,-1)"><text x="0" y="0" font-size="0.75" text-anchor="start" fill="#1F4E79" font-style="italic">{TB·STRUCTURAL_CONSULTANTS_ADDRESS}</text></g>
<g transform="translate(2,27.583333333333336) scale(1,-1)"><text x="0" y="0" font-size="1.1" text-anchor="start" fill="#1F4E79" font-style="italic">{TB·MEP_CONSULTANTS_NAME}</text></g>
<g transform="translate(2,21.083333333333336) scale(1,-1)"><text x="0" y="0" font-size="0.75" text-anchor="start" fill="#1F4E79" font-style="italic">{TB·MEP_CONSULTANTS_ADDRESS}</text></g>
<g transform="translate(2,9.250000000000009) scale(1,-1)"><text x="0" y="0" font-size="1.1" text-anchor="start" fill="#1F4E79" font-style="italic">{TB·CONTRACTOR_NAME}</text></g>
<g transform="translate(2,2.7500000000000098) scale(1,-1)"><text x="0" y="0" font-size="0.75" text-anchor="start" fill="#1F4E79" font-style="italic">{TB·CONTRACTOR_ADDRESS}</text></g>
<g transform="translate(187,92.5) scale(1,-1)"><text x="0" y="0" font-size="1.0" text-anchor="start" fill="#1F4E79" font-style="italic">{TB·NOTES_LEGEND_REF}</text></g>
<g transform="translate(187,77.1) scale(1,-1)"><text x="0" y="0" font-size="1.0" text-anchor="start" fill="#1F4E79" font-style="italic">{ORG·PROJECT_CODE}</text></g>
<g transform="translate(187,51.8) scale(1,-1)"><text x="0" y="0" font-size="1.0" text-anchor="start" fill="#1F4E79" font-style="italic">{TB·DISCIPLINE}</text></g>
<g transform="translate(187,24.3) scale(1,-1)"><text x="0" y="0" font-size="1.0" text-anchor="start" fill="#1F4E79" font-style="italic">{ORG·RIBA_STAGE}</text></g>
<g transform="translate(355,88.0) scale(1,-1)"><text x="0" y="0" font-size="3.0" text-anchor="start" fill="#1F4E79" font-style="italic">{ORG·PROJECT_NAME}</text></g>
<g transform="translate(557,99.0) scale(1,-1)"><text x="0" y="0" font-size="1.0" text-anchor="start" fill="#1F4E79" font-style="italic">{TB·DATE_DRAWN}</text></g>
<g transform="translate(557,73.80000000000001) scale(1,-1)"><text x="0" y="0" font-size="1.0" text-anchor="start" fill="#1F4E79" font-style="italic">{TB·DRAWN_BY}</text></g>
<g transform="translate(557,46.3) scale(1,-1)"><text x="0" y="0" font-size="1.0" text-anchor="start" fill="#1F4E79" font-style="italic">{TB·CHECKED_BY}</text></g>
<g transform="translate(557,18.8) scale(1,-1)"><text x="0" y="0" font-size="1.0" text-anchor="start" fill="#1F4E79" font-style="italic">{TB·APVD_BY}</text></g>
<g transform="translate(725,54.0) scale(1,-1)"><text x="0" y="0" font-size="1.0" text-anchor="start" fill="#1F4E79" font-style="italic">{TB·SCALE_OVERRIDE}</text></g>
<g transform="translate(725,21.0) scale(1,-1)"><text x="0" y="0" font-size="1.0" text-anchor="start" fill="#1F4E79" font-style="italic">{TB·PAPER_SZ}</text></g>
<rect x="10" y="115" width="821" height="474" fill="none" stroke="#5fa8d3" stroke-width="0.4" stroke-dasharray="3,2"/>
<g transform="translate(15,584) scale(1,-1)"><text x="0" y="0" font-size="6" font-weight="bold" fill="#5fa8d3">S01</text></g>
<g transform="translate(15,577) scale(1,-1)"><text x="0" y="0" font-size="3.5" fill="#5fa8d3" opacity="0.7">main-plan</text></g>
<rect x="10" y="115" width="405" height="474" fill="none" stroke="#5fa8d3" stroke-width="0.4" stroke-dasharray="3,2"/>
<g transform="translate(15,584) scale(1,-1)"><text x="0" y="0" font-size="6" font-weight="bold" fill="#5fa8d3">S02</text></g>
<g transform="translate(15,577) scale(1,-1)"><text x="0" y="0" font-size="3.5" fill="#5fa8d3" opacity="0.7">main-plan-half-left</text></g>
<rect x="425" y="115" width="405" height="474" fill="none" stroke="#5fa8d3" stroke-width="0.4" stroke-dasharray="3,2"/>
<g transform="translate(430,584) scale(1,-1)"><text x="0" y="0" font-size="6" font-weight="bold" fill="#5fa8d3">S03</text></g>
<g transform="translate(430,577) scale(1,-1)"><text x="0" y="0" font-size="3.5" fill="#5fa8d3" opacity="0.7">main-plan-half-right</text></g>
<rect x="10" y="115" width="405" height="229" fill="none" stroke="#5fa8d3" stroke-width="0.4" stroke-dasharray="3,2"/>
<g transform="translate(15,339) scale(1,-1)"><text x="0" y="0" font-size="6" font-weight="bold" fill="#5fa8d3">S04</text></g>
<g transform="translate(15,332) scale(1,-1)"><text x="0" y="0" font-size="3.5" fill="#5fa8d3" opacity="0.7">quad-bottom-left</text></g>
<rect x="425" y="115" width="405" height="229" fill="none" stroke="#5fa8d3" stroke-width="0.4" stroke-dasharray="3,2"/>
<g transform="translate(430,339) scale(1,-1)"><text x="0" y="0" font-size="6" font-weight="bold" fill="#5fa8d3">S05</text></g>
<g transform="translate(430,332) scale(1,-1)"><text x="0" y="0" font-size="3.5" fill="#5fa8d3" opacity="0.7">quad-bottom-right</text></g>
<rect x="10" y="349" width="405" height="229" fill="none" stroke="#5fa8d3" stroke-width="0.4" stroke-dasharray="3,2"/>
<g transform="translate(15,573) scale(1,-1)"><text x="0" y="0" font-size="6" font-weight="bold" fill="#5fa8d3">S06</text></g>
<g transform="translate(15,566) scale(1,-1)"><text x="0" y="0" font-size="3.5" fill="#5fa8d3" opacity="0.7">quad-top-left</text></g>
<rect x="425" y="349" width="405" height="229" fill="none" stroke="#5fa8d3" stroke-width="0.4" stroke-dasharray="3,2"/>
<g transform="translate(430,573) scale(1,-1)"><text x="0" y="0" font-size="6" font-weight="bold" fill="#5fa8d3">S07</text></g>
<g transform="translate(430,566) scale(1,-1)"><text x="0" y="0" font-size="3.5" fill="#5fa8d3" opacity="0.7">quad-top-right</text></g>
<rect x="708" y="120" width="118" height="85" fill="none" stroke="#5fa8d3" stroke-width="0.4" stroke-dasharray="3,2"/>
<g transform="translate(713,200) scale(1,-1)"><text x="0" y="0" font-size="6" font-weight="bold" fill="#5fa8d3">KP</text></g>
<g transform="translate(713,193) scale(1,-1)"><text x="0" y="0" font-size="3.5" fill="#5fa8d3" opacity="0.7">key-plan</text></g>
</g>
<text x="30" y="689.0" font-size="7" fill="#444">parameters 40  ·  lines 39  ·  labels 50  ·  static-text 36  ·  fills 0  ·  slots 8</text>
<text x="30" y="699.0" font-size="6" fill="#666">A1 landscape working sheet (841 × 594 mm) — common base shared between BIM and NONBIM variants. Inherits the 40-param identity-data universe from A1_common_v2.0 and adds geometry sized for this paper.…</text>
</svg>