<?xml version="1.0" encoding="UTF-8"?>
<svg xmlns="http://www.w3.org/2000/svg" viewBox="0 0 1249 951" width="1249mm" height="951mm" style="background:#fafafa;font-family:Helvetica,Arial,sans-serif;">
<rect x="0" y="0" width="1249" height="50" fill="#1F4E79"/>
<text x="624.5" y="22.5" text-anchor="middle" fill="#fff" font-size="14" font-weight="bold">STING_TB_A0_NONBIM_v2.0</text>
<text x="624.5" y="39.0" text-anchor="middle" fill="#cfe2ff" font-size="9">paper 1189 × 841 mm   ·   mode=NONBIM</text>
<g transform="translate(30,921) scale(1,-1)">
<rect x="0" y="0" width="1189" height="841" fill="#ffffff" stroke="#1a1a1a" stroke-width="0.6"/>
<line x1="0" y1="0" x2="841"  y2="0" stroke="#000" stroke-width="0.7"/>
<line x1="841" y1="0" x2="841"  y2="594" stroke="#000" stroke-width="0.7"/>
<line x1="841" y1="594" x2="0"  y2="594" stroke="#000" stroke-width="0.7"/>
<line x1="0" y1="594" x2="0"  y2="0" stroke="#000" stroke-width="0.7"/>
<line x1="0" y1="110" x2="841"  y2="110" stroke="#222" stroke-width="0.35"/>
<line x1="200" y1="0" x2="200"  y2="110" stroke="#444" stroke-width="0.18"/>
<line x1="400" y1="0" x2="400"  y2="110" stroke="#444" stroke-width="0.18"/>
<line x1="620" y1="0" x2="620"  y2="110" stroke="#444" stroke-width="0.18"/>
<line x1="820" y1="0" x2="820"  y2="110" stroke="#444" stroke-width="0.18"/>
<line x1="0" y1="50" x2="200"  y2="50" stroke="#444" stroke-width="0.18"/>
<line x1="0" y1="35" x2="200"  y2="35" stroke="#444" stroke-width="0.18"/>
<line x1="0" y1="20" x2="200"  y2="20" stroke="#444" stroke-width="0.18"/>
<line x1="200" y1="85" x2="400"  y2="85" stroke="#444" stroke-width="0.18"/>
<line x1="200" y1="60" x2="400"  y2="60" stroke="#444" stroke-width="0.18"/>
<line x1="200" y1="35" x2="400"  y2="35" stroke="#444" stroke-width="0.18"/>
<line x1="620" y1="90" x2="820"  y2="90" stroke="#444" stroke-width="0.18"/>
<line x1="620" y1="72" x2="820"  y2="72" stroke="#444" stroke-width="0.18"/>
<line x1="680" y1="72" x2="680"  y2="110" stroke="#444" stroke-width="0.18"/>
<line x1="750" y1="72" x2="750"  y2="110" stroke="#444" stroke-width="0.18"/>
<line x1="0" y1="0" x2="1189"  y2="0" stroke="#000" stroke-width="0.7"/>
<line x1="1189" y1="0" x2="1189"  y2="841" stroke="#000" stroke-width="0.7"/>
<line x1="1189" y1="841" x2="0"  y2="841" stroke="#000" stroke-width="0.7"/>
<line x1="0" y1="841" x2="0"  y2="0" stroke="#000" stroke-width="0.7"/>
<line x1="0" y1="130" x2="1189"  y2="130" stroke="#222" stroke-width="0.35"/>
<line x1="262" y1="0" x2="262"  y2="130" stroke="#444" stroke-width="0.18"/>
<line x1="499" y1="0" x2="499"  y2="130" stroke="#444" stroke-width="0.18"/>
<line x1="785" y1="0" x2="785"  y2="130" stroke="#444" stroke-width="0.18"/>
<line x1="1023" y1="0" x2="1023"  y2="130" stroke="#444" stroke-width="0.18"/>
<line x1="0" y1="21.7" x2="262"  y2="21.7" stroke="#444" stroke-width="0.18"/>
<line x1="0" y1="43.3" x2="262"  y2="43.3" stroke="#444" stroke-width="0.18"/>
<line x1="0" y1="65.0" x2="262"  y2="65.0" stroke="#444" stroke-width="0.18"/>
<line x1="0" y1="86.7" x2="262"  y2="86.7" stroke="#444" stroke-width="0.18"/>
<line x1="0" y1="108.3" x2="262"  y2="108.3" stroke="#444" stroke-width="0.18"/>
<line x1="262" y1="39.0" x2="499"  y2="39.0" stroke="#444" stroke-width="0.18"/>
<line x1="262" y1="71.5" x2="499"  y2="71.5" stroke="#444" stroke-width="0.18"/>
<line x1="262" y1="101.4" x2="499"  y2="101.4" stroke="#444" stroke-width="0.18"/>
<line x1="785" y1="32.5" x2="1023"  y2="32.5" stroke="#444" stroke-width="0.18"/>
<line x1="785" y1="65.0" x2="1023"  y2="65.0" stroke="#444" stroke-width="0.18"/>
<line x1="785" y1="97.5" x2="1023"  y2="97.5" stroke="#444" stroke-width="0.18"/>
<g transform="translate(4,105) scale(1,-1)"><text x="0" y="0" font-size="1.4" text-anchor="start" fill="#000">CLIENT</text></g>
<g transform="translate(4,80) scale(1,-1)"><text x="0" y="0" font-size="1.4" text-anchor="start" fill="#000">PROJECT</text></g>
<g transform="translate(4,46) scale(1,-1)"><text x="0" y="0" font-size="1.2" text-anchor="start" fill="#000">ARCHITECT</text></g>
<g transform="translate(4,31) scale(1,-1)"><text x="0" y="0" font-size="1.2" text-anchor="start" fill="#000">STRUCTURAL</text></g>
<g transform="translate(4,16) scale(1,-1)"><text x="0" y="0" font-size="1.2" text-anchor="start" fill="#000">MEP</text></g>
<g transform="translate(4,2) scale(1,-1)"><text x="0" y="0" font-size="1.2" text-anchor="start" fill="#000">CONTRACTOR</text></g>
<g transform="translate(204,105) scale(1,-1)"><text x="0" y="0" font-size="1.4" text-anchor="start" fill="#000">NOTES</text></g>
<g transform="translate(404,105) scale(1,-1)"><text x="0" y="0" font-size="1.4" text-anchor="start" fill="#000">DRAWING TITLE</text></g>
<g transform="translate(204,82) scale(1,-1)"><text x="0" y="0" font-size="1.2" text-anchor="start" fill="#000">PROJECT REF.</text></g>
<g transform="translate(204,56) scale(1,-1)"><text x="0" y="0" font-size="1.2" text-anchor="start" fill="#000">DISCIPLINE</text></g>
<g transform="translate(204,31) scale(1,-1)"><text x="0" y="0" font-size="1.2" text-anchor="start" fill="#000">RIBA STAGE</text></g>
<g transform="translate(624,105) scale(1,-1)"><text x="0" y="0" font-size="1.2" text-anchor="start" fill="#000">DATE</text></g>
<g transform="translate(684,105) scale(1,-1)"><text x="0" y="0" font-size="1.2" text-anchor="start" fill="#000">PAPER</text></g>
<g transform="translate(754,105) scale(1,-1)"><text x="0" y="0" font-size="1.2" text-anchor="start" fill="#000">SCALE</text></g>
<g transform="translate(624,87) scale(1,-1)"><text x="0" y="0" font-size="1.2" text-anchor="start" fill="#000">DRAWN BY</text></g>
<g transform="translate(684,87) scale(1,-1)"><text x="0" y="0" font-size="1.2" text-anchor="start" fill="#000">CHECKED BY</text></g>
<g transform="translate(754,87) scale(1,-1)"><text x="0" y="0" font-size="1.2" text-anchor="start" fill="#000">APPROVED BY</text></g>
<g transform="translate(624,69) scale(1,-1)"><text x="0" y="0" font-size="1.0" text-anchor="start" fill="#000">DATES</text></g>
<g transform="translate(3,126) scale(1,-1)"><text x="0" y="0" font-size="1.82" text-anchor="start" fill="#000">CLIENT</text></g>
<g transform="translate(3,104.33333333333333) scale(1,-1)"><text x="0" y="0" font-size="1.56" text-anchor="start" fill="#000">PROJECT</text></g>
<g transform="translate(3,82.66666666666666) scale(1,-1)"><text x="0" y="0" font-size="1.3" text-anchor="start" fill="#000">ARCHITECT</text></g>
<g transform="translate(3,61.0) scale(1,-1)"><text x="0" y="0" font-size="1.3" text-anchor="start" fill="#000">STRUCTURAL</text></g>
<g transform="translate(3,39.33333333333333) scale(1,-1)"><text x="0" y="0" font-size="1.3" text-anchor="start" fill="#000">MEP</text></g>
<g transform="translate(3,17.666666666666657) scale(1,-1)"><text x="0" y="0" font-size="1.3" text-anchor="start" fill="#000">CONTRACTOR</text></g>
<g transform="translate(265,126) scale(1,-1)"><text x="0" y="0" font-size="1.56" text-anchor="start" fill="#000">NOTES</text></g>
<g transform="translate(265,97.4) scale(1,-1)"><text x="0" y="0" font-size="1.17" text-anchor="start" fill="#000">PROJECT REF</text></g>
<g transform="translate(265,67.5) scale(1,-1)"><text x="0" y="0" font-size="1.17" text-anchor="start" fill="#000">DISCIPLINE</text></g>
<g transform="translate(265,35.0) scale(1,-1)"><text x="0" y="0" font-size="1.17" text-anchor="start" fill="#000">RIBA STAGE</text></g>
<g transform="translate(502,126) scale(1,-1)"><text x="0" y="0" font-size="1.82" text-anchor="start" fill="#000">DRAWING TITLE</text></g>
<g transform="translate(788,126) scale(1,-1)"><text x="0" y="0" font-size="1.3" text-anchor="start" fill="#000">DATE</text></g>
<g transform="translate(788,93.5) scale(1,-1)"><text x="0" y="0" font-size="1.17" text-anchor="start" fill="#000">DRAWN BY</text></g>
<g transform="translate(788,61.0) scale(1,-1)"><text x="0" y="0" font-size="1.17" text-anchor="start" fill="#000">CHECKED BY</text></g>
<g transform="translate(788,28.5) scale(1,-1)"><text x="0" y="0" font-size="1.17" text-anchor="start" fill="#000">APPROVED BY</text></g>
<g transform="translate(1026,126) scale(1,-1)"><text x="0" y="0" font-size="1.3" text-anchor="start" fill="#000">SHEET</text></g>
<g transform="translate(1026,74.0) scale(1,-1)"><text x="0" y="0" font-size="1.17" text-anchor="start" fill="#000">SCALE</text></g>
<g transform="translate(1026,35.0) scale(1,-1)"><text x="0" y="0" font-size="1.17" text-anchor="start" fill="#000">PAPER</text></g>
<g transform="translate(1025,110.5) scale(1,-1)"><text x="0" y="0" font-size="1.56" text-anchor="start" fill="#000">SHEET NUMBER</text></g>
<g transform="translate(1025,39.0) scale(1,-1)"><text x="0" y="0" font-size="1.3" text-anchor="start" fill="#000">REV</text></g>
<g transform="translate(4,95) scale(1,-1)"><text x="0" y="0" font-size="2.0" text-anchor="start" fill="#1F4E79" font-style="italic">{TB·CLIENT_NAME}</text></g>
<g transform="translate(4,86) scale(1,-1)"><text x="0" y="0" font-size="1.4" text-anchor="start" fill="#1F4E79" font-style="italic">{TB·CLIENT_ADDRESS}</text></g>
<g transform="translate(4,70) scale(1,-1)"><text x="0" y="0" font-size="2.0" text-anchor="start" fill="#1F4E79" font-style="italic">{ORG·PROJECT_NAME}</text></g>
<g transform="translate(4,60) scale(1,-1)"><text x="0" y="0" font-size="1.4" text-anchor="start" fill="#1F4E79" font-style="italic">{ORG·PROJECT_ADDRESS}</text></g>
<g transform="translate(40,46) scale(1,-1)"><text x="0" y="0" font-size="1.4" text-anchor="start" fill="#1F4E79" font-style="italic">{TB·CONSULTANT_NAME}</text></g>
<g transform="translate(40,41) scale(1,-1)"><text x="0" y="0" font-size="1.0" text-anchor="start" fill="#1F4E79" font-style="italic">{TB·CONSULTANT_ADDRESS}</text></g>
<g transform="translate(40,31) scale(1,-1)"><text x="0" y="0" font-size="1.4" text-anchor="start" fill="#1F4E79" font-style="italic">{TB·STRUCTURAL_CONSULTANTS_NAME}</text></g>
<g transform="translate(40,26) scale(1,-1)"><text x="0" y="0" font-size="1.0" text-anchor="start" fill="#1F4E79" font-style="italic">{TB·STRUCTURAL_CONSULTANTS_ADDRESS}</text></g>
<g transform="translate(40,16) scale(1,-1)"><text x="0" y="0" font-size="1.4" text-anchor="start" fill="#1F4E79" font-style="italic">{TB·MEP_CONSULTANTS_NAME}</text></g>
<g transform="translate(40,11) scale(1,-1)"><text x="0" y="0" font-size="1.0" text-anchor="start" fill="#1F4E79" font-style="italic">{TB·MEP_CONSULTANTS_ADDRESS}</text></g>
<g transform="translate(40,2) scale(1,-1)"><text x="0" y="0" font-size="1.4" text-anchor="start" fill="#1F4E79" font-style="italic">{TB·CONTRACTOR_NAME}</text></g>
<g transform="translate(120,2) scale(1,-1)"><text x="0" y="0" font-size="1.0" text-anchor="start" fill="#1F4E79" font-style="italic">{TB·CONTRACTOR_ADDRESS}</text></g>
<g transform="translate(204,75) scale(1,-1)"><text x="0" y="0" font-size="1.6" text-anchor="start" fill="#1F4E79" font-style="italic">{ORG·PROJECT_CODE}</text></g>
<g transform="translate(300,75) scale(1,-1)"><text x="0" y="0" font-size="1.6" text-anchor="start" fill="#1F4E79" font-style="italic">{ORG·PROJECT_NUMBER}</text></g>
<g transform="translate(204,50) scale(1,-1)"><text x="0" y="0" font-size="1.6" text-anchor="start" fill="#1F4E79" font-style="italic">{TB·DISCIPLINE}</text></g>
<g transform="translate(204,25) scale(1,-1)"><text x="0" y="0" font-size="1.6" text-anchor="start" fill="#1F4E79" font-style="italic">{ORG·RIBA_STAGE}</text></g>
<g transform="translate(204,95) scale(1,-1)"><text x="0" y="0" font-size="1.4" text-anchor="start" fill="#1F4E79" font-style="italic">{TB·NOTES_LEGEND_REF}</text></g>
<g transform="translate(404,90) scale(1,-1)"><text x="0" y="0" font-size="3.5" text-anchor="start" fill="#1F4E79" font-style="italic">{ORG·PROJECT_NAME}</text></g>
<g transform="translate(624,96) scale(1,-1)"><text x="0" y="0" font-size="1.4" text-anchor="start" fill="#1F4E79" font-style="italic">{TB·DATE_DRAWN}</text></g>
<g transform="translate(684,96) scale(1,-1)"><text x="0" y="0" font-size="1.4" text-anchor="start" fill="#1F4E79" font-style="italic">{TB·PAPER_SZ}</text></g>
<g transform="translate(754,96) scale(1,-1)"><text x="0" y="0" font-size="1.4" text-anchor="start" fill="#1F4E79" font-style="italic">{TB·SCALE_OVERRIDE}</text></g>
<g transform="translate(624,78) scale(1,-1)"><text x="0" y="0" font-size="1.4" text-anchor="start" fill="#1F4E79" font-style="italic">{TB·DRAWN_BY}</text></g>
<g transform="translate(684,78) scale(1,-1)"><text x="0" y="0" font-size="1.4" text-anchor="start" fill="#1F4E79" font-style="italic">{TB·CHECKED_BY}</text></g>
<g transform="translate(754,78) scale(1,-1)"><text x="0" y="0" font-size="1.4" text-anchor="start" fill="#1F4E79" font-style="italic">{TB·APVD_BY}</text></g>
<g transform="translate(624,64) scale(1,-1)"><text x="0" y="0" font-size="1.0" text-anchor="start" fill="#1F4E79" font-style="italic">{TB·DATE_DRAWN}</text></g>
<g transform="translate(684,64) scale(1,-1)"><text x="0" y="0" font-size="1.0" text-anchor="start" fill="#1F4E79" font-style="italic">{TB·DATE_CHECKED}</text></g>
<g transform="translate(754,64) scale(1,-1)"><text x="0" y="0" font-size="1.0" text-anchor="start" fill="#1F4E79" font-style="italic">{TB·DATE_APVD}</text></g>
<g transform="translate(3,118.08333333333333) scale(1,-1)"><text x="0" y="0" font-size="2.08" text-anchor="start" fill="#1F4E79" font-style="italic">{TB·CLIENT_NAME}</text></g>
<g transform="translate(3,110.58333333333333) scale(1,-1)"><text x="0" y="0" font-size="1.17" text-anchor="start" fill="#1F4E79" font-style="italic">{TB·CLIENT_ADDRESS}</text></g>
<g transform="translate(3,97.41666666666666) scale(1,-1)"><text x="0" y="0" font-size="1.95" text-anchor="start" fill="#1F4E79" font-style="italic">{ORG·PROJECT_NAME}</text></g>
<g transform="translate(3,89.91666666666666) scale(1,-1)"><text x="0" y="0" font-size="1.1" text-anchor="start" fill="#1F4E79" font-style="italic">{ORG·PROJECT_ADDRESS}</text></g>
<g transform="translate(3,75.74999999999999) scale(1,-1)"><text x="0" y="0" font-size="1.43" text-anchor="start" fill="#1F4E79" font-style="italic">{TB·CONSULTANT_NAME}</text></g>
<g transform="translate(3,68.24999999999999) scale(1,-1)"><text x="0" y="0" font-size="0.98" text-anchor="start" fill="#1F4E79" font-style="italic">{TB·CONSULTANT_ADDRESS}</text></g>
<g transform="translate(3,54.08333333333333) scale(1,-1)"><text x="0" y="0" font-size="1.43" text-anchor="start" fill="#1F4E79" font-style="italic">{TB·STRUCTURAL_CONSULTANTS_NAME}</text></g>
<g transform="translate(3,46.58333333333333) scale(1,-1)"><text x="0" y="0" font-size="0.98" text-anchor="start" fill="#1F4E79" font-style="italic">{TB·STRUCTURAL_CONSULTANTS_ADDRESS}</text></g>
<g transform="translate(3,32.41666666666666) scale(1,-1)"><text x="0" y="0" font-size="1.43" text-anchor="start" fill="#1F4E79" font-style="italic">{TB·MEP_CONSULTANTS_NAME}</text></g>
<g transform="translate(3,24.91666666666666) scale(1,-1)"><text x="0" y="0" font-size="0.98" text-anchor="start" fill="#1F4E79" font-style="italic">{TB·MEP_CONSULTANTS_ADDRESS}</text></g>
<g transform="translate(3,10.74999999999999) scale(1,-1)"><text x="0" y="0" font-size="1.43" text-anchor="start" fill="#1F4E79" font-style="italic">{TB·CONTRACTOR_NAME}</text></g>
<g transform="translate(3,3.2499999999999893) scale(1,-1)"><text x="0" y="0" font-size="0.98" text-anchor="start" fill="#1F4E79" font-style="italic">{TB·CONTRACTOR_ADDRESS}</text></g>
<g transform="translate(265,109.5) scale(1,-1)"><text x="0" y="0" font-size="1.3" text-anchor="start" fill="#1F4E79" font-style="italic">{TB·NOTES_LEGEND_REF}</text></g>
<g transform="translate(265,91.3) scale(1,-1)"><text x="0" y="0" font-size="1.3" text-anchor="start" fill="#1F4E79" font-style="italic">{ORG·PROJECT_CODE}</text></g>
<g transform="translate(265,61.4) scale(1,-1)"><text x="0" y="0" font-size="1.3" text-anchor="start" fill="#1F4E79" font-style="italic">{TB·DISCIPLINE}</text></g>
<g transform="translate(265,28.900000000000002) scale(1,-1)"><text x="0" y="0" font-size="1.3" text-anchor="start" fill="#1F4E79" font-style="italic">{ORG·RIBA_STAGE}</text></g>
<g transform="translate(502,104.0) scale(1,-1)"><text x="0" y="0" font-size="3.9" text-anchor="start" fill="#1F4E79" font-style="italic">{ORG·PROJECT_NAME}</text></g>
<g transform="translate(788,117.0) scale(1,-1)"><text x="0" y="0" font-size="1.3" text-anchor="start" fill="#1F4E79" font-style="italic">{TB·DATE_DRAWN}</text></g>
<g transform="translate(788,87.4) scale(1,-1)"><text x="0" y="0" font-size="1.3" text-anchor="start" fill="#1F4E79" font-style="italic">{TB·DRAWN_BY}</text></g>
<g transform="translate(788,54.9) scale(1,-1)"><text x="0" y="0" font-size="1.3" text-anchor="start" fill="#1F4E79" font-style="italic">{TB·CHECKED_BY}</text></g>
<g transform="translate(788,22.4) scale(1,-1)"><text x="0" y="0" font-size="1.3" text-anchor="start" fill="#1F4E79" font-style="italic">{TB·APVD_BY}</text></g>
<g transform="translate(1026,64.0) scale(1,-1)"><text x="0" y="0" font-size="1.3" text-anchor="start" fill="#1F4E79" font-style="italic">{TB·SCALE_OVERRIDE}</text></g>
<g transform="translate(1026,25.0) scale(1,-1)"><text x="0" y="0" font-size="1.3" text-anchor="start" fill="#1F4E79" font-style="italic">{TB·PAPER_SZ}</text></g>
<g transform="translate(1025,71.5) scale(1,-1)"><text x="0" y="0" font-size="5.2" text-anchor="start" fill="#1F4E79" font-style="italic">{TB·SHEET_NR}</text></g>
<g transform="translate(1025,13.0) scale(1,-1)"><text x="0" y="0" font-size="1.95" text-anchor="start" fill="#1F4E79" font-style="italic">{TB·REVISION_NR}</text></g>
<rect x="10" y="135" width="1169" height="701" fill="#1F4E79" fill-opacity="0.05" stroke="#1F4E79" stroke-width="0.5" stroke-dasharray="" opacity="1.0"/>
<rect x="10" y="829" width="12" height="7" fill="#1F4E79" opacity="0.9"/>
<g transform="translate(12,834.5) scale(1,-1)"><text x="0" y="0" font-size="4" font-weight="bold" fill="#fff">S01</text></g>
<g transform="translate(12,827) scale(1,-1)"><text x="0" y="0" font-size="3" fill="#1F4E79" opacity="0.85">main-plan</text></g>
<rect x="10" y="135" width="579" height="701" fill="#5fa8d3" fill-opacity="0.05" stroke="#5fa8d3" stroke-width="0.5" stroke-dasharray="" opacity="1.0"/>
<rect x="10" y="829" width="12" height="7" fill="#5fa8d3" opacity="0.9"/>
<g transform="translate(12,834.5) scale(1,-1)"><text x="0" y="0" font-size="4" font-weight="bold" fill="#fff">S02</text></g>
<g transform="translate(12,827) scale(1,-1)"><text x="0" y="0" font-size="3" fill="#5fa8d3" opacity="0.85">main-plan-half-left</text></g>
<rect x="599" y="135" width="579" height="701" fill="#5fa8d3" fill-opacity="0.05" stroke="#5fa8d3" stroke-width="0.5" stroke-dasharray="" opacity="1.0"/>
<rect x="599" y="829" width="12" height="7" fill="#5fa8d3" opacity="0.9"/>
<g transform="translate(601,834.5) scale(1,-1)"><text x="0" y="0" font-size="4" font-weight="bold" fill="#fff">S03</text></g>
<g transform="translate(601,827) scale(1,-1)"><text x="0" y="0" font-size="3" fill="#5fa8d3" opacity="0.85">main-plan-half-right</text></g>
<rect x="10" y="135" width="579" height="343" fill="#5fa8d3" fill-opacity="0.05" stroke="#5fa8d3" stroke-width="0.5" stroke-dasharray="" opacity="1.0"/>
<rect x="10" y="471" width="12" height="7" fill="#5fa8d3" opacity="0.9"/>
<g transform="translate(12,476.5) scale(1,-1)"><text x="0" y="0" font-size="4" font-weight="bold" fill="#fff">S04</text></g>
<g transform="translate(12,469) scale(1,-1)"><text x="0" y="0" font-size="3" fill="#5fa8d3" opacity="0.85">quad-bottom-left</text></g>
<rect x="599" y="135" width="579" height="343" fill="#5fa8d3" fill-opacity="0.05" stroke="#5fa8d3" stroke-width="0.5" stroke-dasharray="" opacity="1.0"/>
<rect x="599" y="471" width="12" height="7" fill="#5fa8d3" opacity="0.9"/>
<g transform="translate(601,476.5) scale(1,-1)"><text x="0" y="0" font-size="4" font-weight="bold" fill="#fff">S05</text></g>
<g transform="translate(601,469) scale(1,-1)"><text x="0" y="0" font-size="3" fill="#5fa8d3" opacity="0.85">quad-bottom-right</text></g>
<rect x="10" y="483" width="579" height="343" fill="#5fa8d3" fill-opacity="0.05" stroke="#5fa8d3" stroke-width="0.5" stroke-dasharray="" opacity="1.0"/>
<rect x="10" y="819" width="12" height="7" fill="#5fa8d3" opacity="0.9"/>
<g transform="translate(12,824.5) scale(1,-1)"><text x="0" y="0" font-size="4" font-weight="bold" fill="#fff">S06</text></g>
<g transform="translate(12,817) scale(1,-1)"><text x="0" y="0" font-size="3" fill="#5fa8d3" opacity="0.85">quad-top-left</text></g>
<rect x="599" y="483" width="579" height="343" fill="#5fa8d3" fill-opacity="0.05" stroke="#5fa8d3" stroke-width="0.5" stroke-dasharray="" opacity="1.0"/>
<rect x="599" y="819" width="12" height="7" fill="#5fa8d3" opacity="0.9"/>
<g transform="translate(601,824.5) scale(1,-1)"><text x="0" y="0" font-size="4" font-weight="bold" fill="#fff">S07</text></g>
<g transform="translate(601,817) scale(1,-1)"><text x="0" y="0" font-size="3" fill="#5fa8d3" opacity="0.85">quad-top-right</text></g>
<rect x="989" y="705" width="190" height="126" fill="#4CAF50" fill-opacity="0.10" stroke="#4CAF50" stroke-width="0.5" stroke-dasharray="3,2" opacity="0.85"/>
<rect x="989" y="824" width="12" height="7" fill="#4CAF50" opacity="0.9"/>
<g transform="translate(991,829.5) scale(1,-1)"><text x="0" y="0" font-size="4" font-weight="bold" fill="#fff">KP</text></g>
<g transform="translate(991,822) scale(1,-1)"><text x="0" y="0" font-size="3" fill="#4CAF50" opacity="0.85">key-plan</text></g>
<rect x="989" y="502" width="190" height="196" fill="#607D8B" fill-opacity="0.10" stroke="#607D8B" stroke-width="0.5" stroke-dasharray="3,2" opacity="0.85"/>
<rect x="989" y="691" width="16.5" height="7" fill="#607D8B" opacity="0.9"/>
<g transform="translate(991,696.5) scale(1,-1)"><text x="0" y="0" font-size="4" font-weight="bold" fill="#fff">NOTES</text></g>
<g transform="translate(991,689) scale(1,-1)"><text x="0" y="0" font-size="3" fill="#607D8B" opacity="0.85">notes</text></g>
<rect x="989" y="329" width="190" height="168" fill="#FF9800" fill-opacity="0.10" stroke="#FF9800" stroke-width="0.5" stroke-dasharray="3,2" opacity="0.85"/>
<rect x="989" y="490" width="19.0" height="7" fill="#FF9800" opacity="0.9"/>
<g transform="translate(991,495.5) scale(1,-1)"><text x="0" y="0" font-size="4" font-weight="bold" fill="#fff">LEGEND</text></g>
<g transform="translate(991,488) scale(1,-1)"><text x="0" y="0" font-size="3" fill="#FF9800" opacity="0.85">discipline-legend</text></g>
<rect x="989" y="135" width="190" height="189" fill="#F44336" fill-opacity="0.10" stroke="#F44336" stroke-width="0.5" stroke-dasharray="3,2" opacity="0.85"/>
<rect x="989" y="317" width="12" height="7" fill="#F44336" opacity="0.9"/>
<g transform="translate(991,322.5) scale(1,-1)"><text x="0" y="0" font-size="4" font-weight="bold" fill="#fff">REV</text></g>
<g transform="translate(991,315) scale(1,-1)"><text x="0" y="0" font-size="3" fill="#F44336" opacity="0.85">revision-history</text></g>
<rect x="1156" y="137" width="18" height="18" fill="#009688" fill-opacity="0.0" stroke="#009688" stroke-width="0.5" stroke-dasharray="1,1.5" opacity="0.95"/>
<rect x="1156" y="148" width="12" height="7" fill="#009688" opacity="0.9"/>
<g transform="translate(1158,153.5) scale(1,-1)"><text x="0" y="0" font-size="4" font-weight="bold" fill="#fff">NA</text></g>
<g transform="translate(1158,146) scale(1,-1)"><text x="0" y="0" font-size="3" fill="#009688" opacity="0.85">north-arrow</text></g>
<rect x="15" y="135" width="119" height="8" fill="#009688" fill-opacity="0.0" stroke="#009688" stroke-width="0.5" stroke-dasharray="1,1.5" opacity="0.95"/>
<rect x="15" y="136" width="12" height="7" fill="#009688" opacity="0.9"/>
<g transform="translate(17,141.5) scale(1,-1)"><text x="0" y="0" font-size="4" font-weight="bold" fill="#fff">SB</text></g>
<g transform="translate(17,134) scale(1,-1)"><text x="0" y="0" font-size="3" fill="#009688" opacity="0.85">scale-bar</text></g>
</g>
<text x="30" y="55" font-size="6" fill="#666" font-weight="bold">slot legend:</text>
<rect x="80" y="51" width="6" height="6" fill="#1F4E79" opacity="0.85"/>
<text x="89" y="55" font-size="5" fill="#333">main-plan</text>
<rect x="119" y="51" width="6" height="6" fill="#5fa8d3" opacity="0.85"/>
<text x="128" y="55" font-size="5" fill="#333">main-plan-half-left</text>
<rect x="188" y="51" width="6" height="6" fill="#5fa8d3" opacity="0.85"/>
<text x="197" y="55" font-size="5" fill="#333">main-plan-half-right</text>
<rect x="260" y="51" width="6" height="6" fill="#5fa8d3" opacity="0.85"/>
<text x="269" y="55" font-size="5" fill="#333">quad-bottom-left</text>
<rect x="320" y="51" width="6" height="6" fill="#5fa8d3" opacity="0.85"/>
<text x="329" y="55" font-size="5" fill="#333">quad-bottom-right</text>
<rect x="383" y="51" width="6" height="6" fill="#5fa8d3" opacity="0.85"/>
<text x="392" y="55" font-size="5" fill="#333">quad-top-left</text>
<rect x="434" y="51" width="6" height="6" fill="#5fa8d3" opacity="0.85"/>
<text x="443" y="55" font-size="5" fill="#333">quad-top-right</text>
<rect x="488" y="51" width="6" height="6" fill="#4CAF50" opacity="0.85"/>
<text x="497" y="55" font-size="5" fill="#333">key-plan</text>
<rect x="524" y="51" width="6" height="6" fill="#607D8B" opacity="0.85"/>
<text x="533" y="55" font-size="5" fill="#333">notes</text>
<rect x="551" y="51" width="6" height="6" fill="#FF9800" opacity="0.85"/>
<text x="560" y="55" font-size="5" fill="#333">discipline-legend</text>
<rect x="614" y="51" width="6" height="6" fill="#F44336" opacity="0.85"/>
<text x="623" y="55" font-size="5" fill="#333">revision-history</text>
<rect x="674" y="51" width="6" height="6" fill="#009688" opacity="0.85"/>
<text x="683" y="55" font-size="5" fill="#333">north-arrow</text>
<text x="719" y="55" font-size="5" fill="#999">+1 more</text>
<text x="30" y="936.0" font-size="7" fill="#444">parameters 44  ·  lines 39  ·  labels 52  ·  static-text 38  ·  fills 0  ·  slots 13</text>
<text x="30" y="946.0" font-size="6" fill="#666">A0 landscape working sheet — minimal NONBIM identity (large sheet-number block in the right column). Extends A0_LAND_common_v2.0 — inherits the 5-column bottom strip + slots.</text>
</svg>