<?xml version="1.0" encoding="UTF-8"?>
<svg xmlns="http://www.w3.org/2000/svg" viewBox="0 0 1249 951" width="1249mm" height="951mm" style="background:#fafafa;font-family:Helvetica,Arial,sans-serif;">
<rect x="0" y="0" width="1249" height="50" fill="#1F4E79"/>
<text x="624.5" y="22.5" text-anchor="middle" fill="#fff" font-size="14" font-weight="bold">STING_TB_A0_BIM_v2.0</text>
<text x="624.5" y="39.0" text-anchor="middle" fill="#cfe2ff" font-size="9">paper 1189 × 841 mm   ·   mode=BIM</text>
<g transform="translate(30,921) scale(1,-1)">
<rect x="0" y="0" width="1189" height="841" fill="#ffffff" stroke="#1a1a1a" stroke-width="0.6"/>
<rect x="291.305" y="148" width="118.89999999999998" height="10" fill="#F2A341" opacity="0.85"/>
<rect x="0" y="157" width="1189" height="3" fill="#1F4E79" opacity="0.85"/>
<line x1="0" y1="0" x2="841"  y2="0" stroke="#000" stroke-width="0.7"/>
<line x1="841" y1="0" x2="841"  y2="594" stroke="#000" stroke-width="0.7"/>
<line x1="841" y1="594" x2="0"  y2="594" stroke="#000" stroke-width="0.7"/>
<line x1="0" y1="594" x2="0"  y2="0" stroke="#000" stroke-width="0.7"/>
<line x1="0" y1="110" x2="841"  y2="110" stroke="#222" stroke-width="0.35"/>
<line x1="200" y1="0" x2="200"  y2="110" stroke="#444" stroke-width="0.18"/>
<line x1="400" y1="0" x2="400"  y2="110" stroke="#444" stroke-width="0.18"/>
<line x1="620" y1="0" x2="620"  y2="110" stroke="#444" stroke-width="0.18"/>
<line x1="820" y1="0" x2="820"  y2="110" stroke="#444" stroke-width="0.18"/>
<line x1="0" y1="50" x2="200"  y2="50" stroke="#444" stroke-width="0.18"/>
<line x1="0" y1="35" x2="200"  y2="35" stroke="#444" stroke-width="0.18"/>
<line x1="0" y1="20" x2="200"  y2="20" stroke="#444" stroke-width="0.18"/>
<line x1="200" y1="85" x2="400"  y2="85" stroke="#444" stroke-width="0.18"/>
<line x1="200" y1="60" x2="400"  y2="60" stroke="#444" stroke-width="0.18"/>
<line x1="200" y1="35" x2="400"  y2="35" stroke="#444" stroke-width="0.18"/>
<line x1="620" y1="90" x2="820"  y2="90" stroke="#444" stroke-width="0.18"/>
<line x1="620" y1="72" x2="820"  y2="72" stroke="#444" stroke-width="0.18"/>
<line x1="680" y1="72" x2="680"  y2="110" stroke="#444" stroke-width="0.18"/>
<line x1="750" y1="72" x2="750"  y2="110" stroke="#444" stroke-width="0.18"/>
<line x1="0" y1="0" x2="1189"  y2="0" stroke="#000" stroke-width="0.7"/>
<line x1="1189" y1="0" x2="1189"  y2="841" stroke="#000" stroke-width="0.7"/>
<line x1="1189" y1="841" x2="0"  y2="841" stroke="#000" stroke-width="0.7"/>
<line x1="0" y1="841" x2="0"  y2="0" stroke="#000" stroke-width="0.7"/>
<line x1="0" y1="130" x2="1189"  y2="130" stroke="#222" stroke-width="0.35"/>
<line x1="285" y1="0" x2="285"  y2="130" stroke="#444" stroke-width="0.18"/>
<line x1="571" y1="0" x2="571"  y2="130" stroke="#444" stroke-width="0.18"/>
<line x1="880" y1="0" x2="880"  y2="130" stroke="#444" stroke-width="0.18"/>
<line x1="1094" y1="0" x2="1094"  y2="130" stroke="#444" stroke-width="0.18"/>
<line x1="0" y1="26.0" x2="285"  y2="26.0" stroke="#444" stroke-width="0.18"/>
<line x1="0" y1="52.0" x2="285"  y2="52.0" stroke="#444" stroke-width="0.18"/>
<line x1="0" y1="78.0" x2="285"  y2="78.0" stroke="#444" stroke-width="0.18"/>
<line x1="0" y1="104.0" x2="285"  y2="104.0" stroke="#444" stroke-width="0.18"/>
<line x1="0" y1="160" x2="1189"  y2="160" stroke="#222" stroke-width="0.35"/>
<line x1="0" y1="145" x2="1189"  y2="145" stroke="#444" stroke-width="0.18"/>
<line x1="169.9" y1="130" x2="169.9"  y2="145" stroke="#444" stroke-width="0.18"/>
<line x1="339.7" y1="130" x2="339.7"  y2="145" stroke="#444" stroke-width="0.18"/>
<line x1="509.6" y1="130" x2="509.6"  y2="145" stroke="#444" stroke-width="0.18"/>
<line x1="679.4" y1="130" x2="679.4"  y2="145" stroke="#444" stroke-width="0.18"/>
<line x1="849.3" y1="130" x2="849.3"  y2="145" stroke="#444" stroke-width="0.18"/>
<line x1="1019.1" y1="130" x2="1019.1"  y2="145" stroke="#444" stroke-width="0.18"/>
<g transform="translate(4,105) scale(1,-1)"><text x="0" y="0" font-size="1.4" text-anchor="start" fill="#000">CLIENT</text></g>
<g transform="translate(4,80) scale(1,-1)"><text x="0" y="0" font-size="1.4" text-anchor="start" fill="#000">PROJECT</text></g>
<g transform="translate(4,46) scale(1,-1)"><text x="0" y="0" font-size="1.2" text-anchor="start" fill="#000">ARCHITECT</text></g>
<g transform="translate(4,31) scale(1,-1)"><text x="0" y="0" font-size="1.2" text-anchor="start" fill="#000">STRUCTURAL</text></g>
<g transform="translate(4,16) scale(1,-1)"><text x="0" y="0" font-size="1.2" text-anchor="start" fill="#000">MEP</text></g>
<g transform="translate(4,2) scale(1,-1)"><text x="0" y="0" font-size="1.2" text-anchor="start" fill="#000">CONTRACTOR</text></g>
<g transform="translate(204,105) scale(1,-1)"><text x="0" y="0" font-size="1.4" text-anchor="start" fill="#000">NOTES</text></g>
<g transform="translate(404,105) scale(1,-1)"><text x="0" y="0" font-size="1.4" text-anchor="start" fill="#000">DRAWING TITLE</text></g>
<g transform="translate(204,82) scale(1,-1)"><text x="0" y="0" font-size="1.2" text-anchor="start" fill="#000">PROJECT REF.</text></g>
<g transform="translate(204,56) scale(1,-1)"><text x="0" y="0" font-size="1.2" text-anchor="start" fill="#000">DISCIPLINE</text></g>
<g transform="translate(204,31) scale(1,-1)"><text x="0" y="0" font-size="1.2" text-anchor="start" fill="#000">RIBA STAGE</text></g>
<g transform="translate(624,105) scale(1,-1)"><text x="0" y="0" font-size="1.2" text-anchor="start" fill="#000">DATE</text></g>
<g transform="translate(684,105) scale(1,-1)"><text x="0" y="0" font-size="1.2" text-anchor="start" fill="#000">PAPER</text></g>
<g transform="translate(754,105) scale(1,-1)"><text x="0" y="0" font-size="1.2" text-anchor="start" fill="#000">SCALE</text></g>
<g transform="translate(624,87) scale(1,-1)"><text x="0" y="0" font-size="1.2" text-anchor="start" fill="#000">DRAWN BY</text></g>
<g transform="translate(684,87) scale(1,-1)"><text x="0" y="0" font-size="1.2" text-anchor="start" fill="#000">CHECKED BY</text></g>
<g transform="translate(754,87) scale(1,-1)"><text x="0" y="0" font-size="1.2" text-anchor="start" fill="#000">APPROVED BY</text></g>
<g transform="translate(624,69) scale(1,-1)"><text x="0" y="0" font-size="1.0" text-anchor="start" fill="#000">DATES</text></g>
<g transform="translate(4,126) scale(1,-1)"><text x="0" y="0" font-size="1.4" text-anchor="start" fill="#000">CLIENT</text></g>
<g transform="translate(4,100.0) scale(1,-1)"><text x="0" y="0" font-size="1.2" text-anchor="start" fill="#000">PROJECT</text></g>
<g transform="translate(4,74.0) scale(1,-1)"><text x="0" y="0" font-size="1.2" text-anchor="start" fill="#000">ARCHITECT</text></g>
<g transform="translate(4,48.0) scale(1,-1)"><text x="0" y="0" font-size="1.2" text-anchor="start" fill="#000">STRUCTURAL</text></g>
<g transform="translate(4,22.0) scale(1,-1)"><text x="0" y="0" font-size="1.2" text-anchor="start" fill="#000">MEP</text></g>
<g transform="translate(4,2) scale(1,-1)"><text x="0" y="0" font-size="1.2" text-anchor="start" fill="#000">CONTRACTOR</text></g>
<g transform="translate(289,126) scale(1,-1)"><text x="0" y="0" font-size="1.4" text-anchor="start" fill="#000">NOTES</text></g>
<g transform="translate(575,126) scale(1,-1)"><text x="0" y="0" font-size="1.4" text-anchor="start" fill="#000">DRAWING TITLE</text></g>
<g transform="translate(884,126) scale(1,-1)"><text x="0" y="0" font-size="1.2" text-anchor="start" fill="#000">DATE</text></g>
<g transform="translate(884,115) scale(1,-1)"><text x="0" y="0" font-size="1.0" text-anchor="start" fill="#000">DRAWN BY</text></g>
<g transform="translate(884,105) scale(1,-1)"><text x="0" y="0" font-size="1.0" text-anchor="start" fill="#000">CHECKED BY</text></g>
<g transform="translate(884,95) scale(1,-1)"><text x="0" y="0" font-size="1.0" text-anchor="start" fill="#000">APPROVED BY</text></g>
<g transform="translate(1096,126) scale(1,-1)"><text x="0" y="0" font-size="1.2" text-anchor="start" fill="#000">SHEET</text></g>
<g transform="translate(4,157) scale(1,-1)"><text x="0" y="0" font-size="1.0" text-anchor="start" fill="#000">STATUS</text></g>
<g transform="translate(297.25,157) scale(1,-1)"><text x="0" y="0" font-size="1.0" text-anchor="start" fill="#000">SUITABILITY</text></g>
<g transform="translate(594.5,157) scale(1,-1)"><text x="0" y="0" font-size="1.0" text-anchor="start" fill="#000">REV</text></g>
<g transform="translate(772.85,157) scale(1,-1)"><text x="0" y="0" font-size="1.0" text-anchor="start" fill="#000">REV DATE</text></g>
<g transform="translate(927.4200000000001,157) scale(1,-1)"><text x="0" y="0" font-size="1.0" text-anchor="start" fill="#000">LOIN/LOD</text></g>
<g transform="translate(1093.88,157) scale(1,-1)"><text x="0" y="0" font-size="1.0" text-anchor="start" fill="#000">FED</text></g>
<g transform="translate(4,140) scale(1,-1)"><text x="0" y="0" font-size="0.9" text-anchor="start" fill="#000">ISO 19650 SHEET ID — 7 SEGMENTS</text></g>
<g transform="translate(4,95) scale(1,-1)"><text x="0" y="0" font-size="2.0" text-anchor="start" fill="#1F4E79" font-style="italic">{TB·CLIENT_NAME}</text></g>
<g transform="translate(4,86) scale(1,-1)"><text x="0" y="0" font-size="1.4" text-anchor="start" fill="#1F4E79" font-style="italic">{TB·CLIENT_ADDRESS}</text></g>
<g transform="translate(4,70) scale(1,-1)"><text x="0" y="0" font-size="2.0" text-anchor="start" fill="#1F4E79" font-style="italic">{ORG·PROJECT_NAME}</text></g>
<g transform="translate(4,60) scale(1,-1)"><text x="0" y="0" font-size="1.4" text-anchor="start" fill="#1F4E79" font-style="italic">{ORG·PROJECT_ADDRESS}</text></g>
<g transform="translate(40,46) scale(1,-1)"><text x="0" y="0" font-size="1.4" text-anchor="start" fill="#1F4E79" font-style="italic">{TB·CONSULTANT_NAME}</text></g>
<g transform="translate(40,41) scale(1,-1)"><text x="0" y="0" font-size="1.0" text-anchor="start" fill="#1F4E79" font-style="italic">{TB·CONSULTANT_ADDRESS}</text></g>
<g transform="translate(40,31) scale(1,-1)"><text x="0" y="0" font-size="1.4" text-anchor="start" fill="#1F4E79" font-style="italic">{TB·STRUCTURAL_CONSULTANTS_NAME}</text></g>
<g transform="translate(40,26) scale(1,-1)"><text x="0" y="0" font-size="1.0" text-anchor="start" fill="#1F4E79" font-style="italic">{TB·STRUCTURAL_CONSULTANTS_ADDRESS}</text></g>
<g transform="translate(40,16) scale(1,-1)"><text x="0" y="0" font-size="1.4" text-anchor="start" fill="#1F4E79" font-style="italic">{TB·MEP_CONSULTANTS_NAME}</text></g>
<g transform="translate(40,11) scale(1,-1)"><text x="0" y="0" font-size="1.0" text-anchor="start" fill="#1F4E79" font-style="italic">{TB·MEP_CONSULTANTS_ADDRESS}</text></g>
<g transform="translate(40,2) scale(1,-1)"><text x="0" y="0" font-size="1.4" text-anchor="start" fill="#1F4E79" font-style="italic">{TB·CONTRACTOR_NAME}</text></g>
<g transform="translate(120,2) scale(1,-1)"><text x="0" y="0" font-size="1.0" text-anchor="start" fill="#1F4E79" font-style="italic">{TB·CONTRACTOR_ADDRESS}</text></g>
<g transform="translate(204,75) scale(1,-1)"><text x="0" y="0" font-size="1.6" text-anchor="start" fill="#1F4E79" font-style="italic">{ORG·PROJECT_CODE}</text></g>
<g transform="translate(300,75) scale(1,-1)"><text x="0" y="0" font-size="1.6" text-anchor="start" fill="#1F4E79" font-style="italic">{ORG·PROJECT_NUMBER}</text></g>
<g transform="translate(204,50) scale(1,-1)"><text x="0" y="0" font-size="1.6" text-anchor="start" fill="#1F4E79" font-style="italic">{TB·DISCIPLINE}</text></g>
<g transform="translate(204,25) scale(1,-1)"><text x="0" y="0" font-size="1.6" text-anchor="start" fill="#1F4E79" font-style="italic">{ORG·RIBA_STAGE}</text></g>
<g transform="translate(204,95) scale(1,-1)"><text x="0" y="0" font-size="1.4" text-anchor="start" fill="#1F4E79" font-style="italic">{TB·NOTES_LEGEND_REF}</text></g>
<g transform="translate(404,90) scale(1,-1)"><text x="0" y="0" font-size="3.5" text-anchor="start" fill="#1F4E79" font-style="italic">{ORG·PROJECT_NAME}</text></g>
<g transform="translate(624,96) scale(1,-1)"><text x="0" y="0" font-size="1.4" text-anchor="start" fill="#1F4E79" font-style="italic">{TB·DATE_DRAWN}</text></g>
<g transform="translate(684,96) scale(1,-1)"><text x="0" y="0" font-size="1.4" text-anchor="start" fill="#1F4E79" font-style="italic">{TB·PAPER_SZ}</text></g>
<g transform="translate(754,96) scale(1,-1)"><text x="0" y="0" font-size="1.4" text-anchor="start" fill="#1F4E79" font-style="italic">{TB·SCALE_OVERRIDE}</text></g>
<g transform="translate(624,78) scale(1,-1)"><text x="0" y="0" font-size="1.4" text-anchor="start" fill="#1F4E79" font-style="italic">{TB·DRAWN_BY}</text></g>
<g transform="translate(684,78) scale(1,-1)"><text x="0" y="0" font-size="1.4" text-anchor="start" fill="#1F4E79" font-style="italic">{TB·CHECKED_BY}</text></g>
<g transform="translate(754,78) scale(1,-1)"><text x="0" y="0" font-size="1.4" text-anchor="start" fill="#1F4E79" font-style="italic">{TB·APVD_BY}</text></g>
<g transform="translate(624,64) scale(1,-1)"><text x="0" y="0" font-size="1.0" text-anchor="start" fill="#1F4E79" font-style="italic">{TB·DATE_DRAWN}</text></g>
<g transform="translate(684,64) scale(1,-1)"><text x="0" y="0" font-size="1.0" text-anchor="start" fill="#1F4E79" font-style="italic">{TB·DATE_CHECKED}</text></g>
<g transform="translate(754,64) scale(1,-1)"><text x="0" y="0" font-size="1.0" text-anchor="start" fill="#1F4E79" font-style="italic">{TB·DATE_APVD}</text></g>
<g transform="translate(4,118) scale(1,-1)"><text x="0" y="0" font-size="1.8" text-anchor="start" fill="#1F4E79" font-style="italic">{TB·CLIENT_NAME}</text></g>
<g transform="translate(4,112) scale(1,-1)"><text x="0" y="0" font-size="1.0" text-anchor="start" fill="#1F4E79" font-style="italic">{TB·CLIENT_ADDRESS}</text></g>
<g transform="translate(4,92.0) scale(1,-1)"><text x="0" y="0" font-size="1.6" text-anchor="start" fill="#1F4E79" font-style="italic">{ORG·PROJECT_NAME}</text></g>
<g transform="translate(4,86.0) scale(1,-1)"><text x="0" y="0" font-size="0.9" text-anchor="start" fill="#1F4E79" font-style="italic">{ORG·PROJECT_ADDRESS}</text></g>
<g transform="translate(128.25,72.0) scale(1,-1)"><text x="0" y="0" font-size="1.2" text-anchor="start" fill="#1F4E79" font-style="italic">{TB·CONSULTANT_NAME}</text></g>
<g transform="translate(128.25,66.0) scale(1,-1)"><text x="0" y="0" font-size="0.8" text-anchor="start" fill="#1F4E79" font-style="italic">{TB·CONSULTANT_ADDRESS}</text></g>
<g transform="translate(128.25,46.0) scale(1,-1)"><text x="0" y="0" font-size="1.2" text-anchor="start" fill="#1F4E79" font-style="italic">{TB·STRUCTURAL_CONSULTANTS_NAME}</text></g>
<g transform="translate(128.25,40.0) scale(1,-1)"><text x="0" y="0" font-size="0.8" text-anchor="start" fill="#1F4E79" font-style="italic">{TB·STRUCTURAL_CONSULTANTS_ADDRESS}</text></g>
<g transform="translate(128.25,20.0) scale(1,-1)"><text x="0" y="0" font-size="1.2" text-anchor="start" fill="#1F4E79" font-style="italic">{TB·MEP_CONSULTANTS_NAME}</text></g>
<g transform="translate(128.25,14.0) scale(1,-1)"><text x="0" y="0" font-size="0.8" text-anchor="start" fill="#1F4E79" font-style="italic">{TB·MEP_CONSULTANTS_ADDRESS}</text></g>
<g transform="translate(128.25,8) scale(1,-1)"><text x="0" y="0" font-size="1.2" text-anchor="start" fill="#1F4E79" font-style="italic">{TB·CONTRACTOR_NAME}</text></g>
<g transform="translate(128.25,2) scale(1,-1)"><text x="0" y="0" font-size="0.8" text-anchor="start" fill="#1F4E79" font-style="italic">{TB·CONTRACTOR_ADDRESS}</text></g>
<g transform="translate(289,118) scale(1,-1)"><text x="0" y="0" font-size="1.2" text-anchor="start" fill="#1F4E79" font-style="italic">{TB·NOTES_LEGEND_REF}</text></g>
<g transform="translate(575,118) scale(1,-1)"><text x="0" y="0" font-size="2.5" text-anchor="start" fill="#1F4E79" font-style="italic">{ORG·PROJECT_NAME}</text></g>
<g transform="translate(575,108) scale(1,-1)"><text x="0" y="0" font-size="1.4" text-anchor="start" fill="#1F4E79" font-style="italic">{TB·DISCIPLINE}</text></g>
<g transform="translate(575,98) scale(1,-1)"><text x="0" y="0" font-size="1.2" text-anchor="start" fill="#1F4E79" font-style="italic">{ORG·RIBA_STAGE}</text></g>
<g transform="translate(884,120) scale(1,-1)"><text x="0" y="0" font-size="1.2" text-anchor="start" fill="#1F4E79" font-style="italic">{TB·DATE_DRAWN}</text></g>
<g transform="translate(884,109) scale(1,-1)"><text x="0" y="0" font-size="1.0" text-anchor="start" fill="#1F4E79" font-style="italic">{TB·DRAWN_BY}</text></g>
<g transform="translate(884,99) scale(1,-1)"><text x="0" y="0" font-size="1.0" text-anchor="start" fill="#1F4E79" font-style="italic">{TB·CHECKED_BY}</text></g>
<g transform="translate(884,89) scale(1,-1)"><text x="0" y="0" font-size="1.0" text-anchor="start" fill="#1F4E79" font-style="italic">{TB·APVD_BY}</text></g>
<g transform="translate(884,80) scale(1,-1)"><text x="0" y="0" font-size="1.0" text-anchor="start" fill="#1F4E79" font-style="italic">{TB·SCALE_OVERRIDE}</text></g>
<g transform="translate(4,145) scale(1,-1)"><text x="0" y="0" font-size="1.6" text-anchor="start" fill="#1F4E79" font-style="italic">{TB·DELIVERABLE_STATUS}</text></g>
<g transform="translate(297.25,145) scale(1,-1)"><text x="0" y="0" font-size="1.6" text-anchor="start" fill="#1F4E79" font-style="italic">{DWG·SUITABILITY_COD}</text></g>
<g transform="translate(594.5,145) scale(1,-1)"><text x="0" y="0" font-size="1.6" text-anchor="start" fill="#1F4E79" font-style="italic">{TB·REVISION_NR}</text></g>
<g transform="translate(772.85,145) scale(1,-1)"><text x="0" y="0" font-size="1.4" text-anchor="start" fill="#1F4E79" font-style="italic">{TB·REVISION_DATE}</text></g>
<g transform="translate(927.4200000000001,145) scale(1,-1)"><text x="0" y="0" font-size="1.2" text-anchor="start" fill="#1F4E79" font-style="italic">{ST·LOIN_LOD}</text></g>
<g transform="translate(1093.88,145) scale(1,-1)"><text x="0" y="0" font-size="1.2" text-anchor="start" fill="#1F4E79" font-style="italic">{ST·FEDERATION_STATUS}</text></g>
<g transform="translate(4.0,135) scale(1,-1)"><text x="0" y="0" font-size="1.4" text-anchor="start" fill="#1F4E79" font-style="italic">{ST·SHEET_PROJECT}</text></g>
<g transform="translate(173.85714285714286,135) scale(1,-1)"><text x="0" y="0" font-size="1.4" text-anchor="start" fill="#1F4E79" font-style="italic">{ST·SHEET_ORIG}</text></g>
<g transform="translate(343.7142857142857,135) scale(1,-1)"><text x="0" y="0" font-size="1.4" text-anchor="start" fill="#1F4E79" font-style="italic">{ST·SHEET_VOLUME}</text></g>
<g transform="translate(513.5714285714286,135) scale(1,-1)"><text x="0" y="0" font-size="1.4" text-anchor="start" fill="#1F4E79" font-style="italic">{ST·SHEET_LEVEL}</text></g>
<g transform="translate(683.4285714285714,135) scale(1,-1)"><text x="0" y="0" font-size="1.4" text-anchor="start" fill="#1F4E79" font-style="italic">{ST·SHEET_TYPE}</text></g>
<g transform="translate(853.2857142857143,135) scale(1,-1)"><text x="0" y="0" font-size="1.4" text-anchor="start" fill="#1F4E79" font-style="italic">{ST·SHEET_ROLE}</text></g>
<g transform="translate(1023.1428571428571,135) scale(1,-1)"><text x="0" y="0" font-size="1.4" text-anchor="start" fill="#1F4E79" font-style="italic">{ST·SHEET_SEQ}</text></g>
<rect x="10" y="135" width="1169" height="701" fill="none" stroke="#5fa8d3" stroke-width="0.4" stroke-dasharray="3,2"/>
<g transform="translate(15,831) scale(1,-1)"><text x="0" y="0" font-size="6" font-weight="bold" fill="#5fa8d3">S01</text></g>
<g transform="translate(15,824) scale(1,-1)"><text x="0" y="0" font-size="3.5" fill="#5fa8d3" opacity="0.7">main-plan</text></g>
<rect x="10" y="135" width="579" height="701" fill="none" stroke="#5fa8d3" stroke-width="0.4" stroke-dasharray="3,2"/>
<g transform="translate(15,831) scale(1,-1)"><text x="0" y="0" font-size="6" font-weight="bold" fill="#5fa8d3">S02</text></g>
<g transform="translate(15,824) scale(1,-1)"><text x="0" y="0" font-size="3.5" fill="#5fa8d3" opacity="0.7">main-plan-half-left</text></g>
<rect x="599" y="135" width="579" height="701" fill="none" stroke="#5fa8d3" stroke-width="0.4" stroke-dasharray="3,2"/>
<g transform="translate(604,831) scale(1,-1)"><text x="0" y="0" font-size="6" font-weight="bold" fill="#5fa8d3">S03</text></g>
<g transform="translate(604,824) scale(1,-1)"><text x="0" y="0" font-size="3.5" fill="#5fa8d3" opacity="0.7">main-plan-half-right</text></g>
<rect x="10" y="135" width="579" height="345" fill="none" stroke="#5fa8d3" stroke-width="0.4" stroke-dasharray="3,2"/>
<g transform="translate(15,475) scale(1,-1)"><text x="0" y="0" font-size="6" font-weight="bold" fill="#5fa8d3">S04</text></g>
<g transform="translate(15,468) scale(1,-1)"><text x="0" y="0" font-size="3.5" fill="#5fa8d3" opacity="0.7">quad-bottom-left</text></g>
<rect x="599" y="135" width="579" height="345" fill="none" stroke="#5fa8d3" stroke-width="0.4" stroke-dasharray="3,2"/>
<g transform="translate(604,475) scale(1,-1)"><text x="0" y="0" font-size="6" font-weight="bold" fill="#5fa8d3">S05</text></g>
<g transform="translate(604,468) scale(1,-1)"><text x="0" y="0" font-size="3.5" fill="#5fa8d3" opacity="0.7">quad-bottom-right</text></g>
<rect x="10" y="485" width="579" height="345" fill="none" stroke="#5fa8d3" stroke-width="0.4" stroke-dasharray="3,2"/>
<g transform="translate(15,825) scale(1,-1)"><text x="0" y="0" font-size="6" font-weight="bold" fill="#5fa8d3">S06</text></g>
<g transform="translate(15,818) scale(1,-1)"><text x="0" y="0" font-size="3.5" fill="#5fa8d3" opacity="0.7">quad-top-left</text></g>
<rect x="599" y="485" width="579" height="345" fill="none" stroke="#5fa8d3" stroke-width="0.4" stroke-dasharray="3,2"/>
<g transform="translate(604,825) scale(1,-1)"><text x="0" y="0" font-size="6" font-weight="bold" fill="#5fa8d3">S07</text></g>
<g transform="translate(604,818) scale(1,-1)"><text x="0" y="0" font-size="3.5" fill="#5fa8d3" opacity="0.7">quad-top-right</text></g>
<rect x="996" y="140" width="178" height="127" fill="none" stroke="#5fa8d3" stroke-width="0.4" stroke-dasharray="3,2"/>
<g transform="translate(1001,262) scale(1,-1)"><text x="0" y="0" font-size="6" font-weight="bold" fill="#5fa8d3">KP</text></g>
<g transform="translate(1001,255) scale(1,-1)"><text x="0" y="0" font-size="3.5" fill="#5fa8d3" opacity="0.7">key-plan</text></g>
</g>
<text x="30" y="936.0" font-size="7" fill="#444">parameters 63  ·  lines 40  ·  labels 61  ·  static-text 38  ·  fills 2  ·  slots 8</text>
<text x="30" y="946.0" font-size="6" fill="#666">A0 landscape working sheet — full ISO 19650 BIM identity (7-segment ID + suitability chip + revision-history strip + AUTHORISED BY) — extends A0_LAND_common_v2.0.</text>
</svg>