<?xml version="1.0" encoding="UTF-8"?>
<svg xmlns="http://www.w3.org/2000/svg" viewBox="0 0 480 704" width="480mm" height="704mm" style="background:#fafafa;font-family:Helvetica,Arial,sans-serif;">
<rect x="0" y="0" width="480" height="50" fill="#1F4E79"/>
<text x="240.0" y="22.5" text-anchor="middle" fill="#fff" font-size="14" font-weight="bold">STING_TB_A2_PORT_BIM_v2.0</text>
<text x="240.0" y="39.0" text-anchor="middle" fill="#cfe2ff" font-size="9">paper 420 × 594 mm   ·   mode=BIM</text>
<g transform="translate(30,674) scale(1,-1)">
<rect x="0" y="0" width="420" height="594" fill="#ffffff" stroke="#1a1a1a" stroke-width="0.6"/>
<rect x="92.4" y="101.2" width="84.0" height="10.799999999999997" fill="#F2A341" opacity="0.85"/>
<rect x="0" y="110.5" width="420" height="1.5" fill="#1F4E79" opacity="0.85"/>
<line x1="0" y1="0" x2="841"  y2="0" stroke="#000" stroke-width="0.7"/>
<line x1="841" y1="0" x2="841"  y2="594" stroke="#000" stroke-width="0.7"/>
<line x1="841" y1="594" x2="0"  y2="594" stroke="#000" stroke-width="0.7"/>
<line x1="0" y1="594" x2="0"  y2="0" stroke="#000" stroke-width="0.7"/>
<line x1="0" y1="110" x2="841"  y2="110" stroke="#222" stroke-width="0.35"/>
<line x1="200" y1="0" x2="200"  y2="110" stroke="#444" stroke-width="0.18"/>
<line x1="400" y1="0" x2="400"  y2="110" stroke="#444" stroke-width="0.18"/>
<line x1="620" y1="0" x2="620"  y2="110" stroke="#444" stroke-width="0.18"/>
<line x1="820" y1="0" x2="820"  y2="110" stroke="#444" stroke-width="0.18"/>
<line x1="0" y1="50" x2="200"  y2="50" stroke="#444" stroke-width="0.18"/>
<line x1="0" y1="35" x2="200"  y2="35" stroke="#444" stroke-width="0.18"/>
<line x1="0" y1="20" x2="200"  y2="20" stroke="#444" stroke-width="0.18"/>
<line x1="200" y1="85" x2="400"  y2="85" stroke="#444" stroke-width="0.18"/>
<line x1="200" y1="60" x2="400"  y2="60" stroke="#444" stroke-width="0.18"/>
<line x1="200" y1="35" x2="400"  y2="35" stroke="#444" stroke-width="0.18"/>
<line x1="620" y1="90" x2="820"  y2="90" stroke="#444" stroke-width="0.18"/>
<line x1="620" y1="72" x2="820"  y2="72" stroke="#444" stroke-width="0.18"/>
<line x1="680" y1="72" x2="680"  y2="110" stroke="#444" stroke-width="0.18"/>
<line x1="750" y1="72" x2="750"  y2="110" stroke="#444" stroke-width="0.18"/>
<line x1="0" y1="0" x2="420"  y2="0" stroke="#000" stroke-width="0.7"/>
<line x1="420" y1="0" x2="420"  y2="594" stroke="#000" stroke-width="0.7"/>
<line x1="420" y1="594" x2="0"  y2="594" stroke="#000" stroke-width="0.7"/>
<line x1="0" y1="594" x2="0"  y2="0" stroke="#000" stroke-width="0.7"/>
<line x1="0" y1="88" x2="420"  y2="88" stroke="#222" stroke-width="0.35"/>
<line x1="92" y1="0" x2="92"  y2="88" stroke="#444" stroke-width="0.18"/>
<line x1="176" y1="0" x2="176"  y2="88" stroke="#444" stroke-width="0.18"/>
<line x1="277" y1="0" x2="277"  y2="88" stroke="#444" stroke-width="0.18"/>
<line x1="361" y1="0" x2="361"  y2="88" stroke="#444" stroke-width="0.18"/>
<line x1="0" y1="14.7" x2="92"  y2="14.7" stroke="#444" stroke-width="0.18"/>
<line x1="0" y1="29.3" x2="92"  y2="29.3" stroke="#444" stroke-width="0.18"/>
<line x1="0" y1="44.0" x2="92"  y2="44.0" stroke="#444" stroke-width="0.18"/>
<line x1="0" y1="58.7" x2="92"  y2="58.7" stroke="#444" stroke-width="0.18"/>
<line x1="0" y1="73.3" x2="92"  y2="73.3" stroke="#444" stroke-width="0.18"/>
<line x1="92" y1="26.4" x2="176"  y2="26.4" stroke="#444" stroke-width="0.18"/>
<line x1="92" y1="48.4" x2="176"  y2="48.4" stroke="#444" stroke-width="0.18"/>
<line x1="92" y1="68.6" x2="176"  y2="68.6" stroke="#444" stroke-width="0.18"/>
<line x1="277" y1="22.0" x2="361"  y2="22.0" stroke="#444" stroke-width="0.18"/>
<line x1="277" y1="44.0" x2="361"  y2="44.0" stroke="#444" stroke-width="0.18"/>
<line x1="277" y1="66.0" x2="361"  y2="66.0" stroke="#444" stroke-width="0.18"/>
<line x1="0" y1="112" x2="420"  y2="112" stroke="#222" stroke-width="0.35"/>
<line x1="0" y1="101.2" x2="420"  y2="101.2" stroke="#444" stroke-width="0.18"/>
<line x1="92.4" y1="101.2" x2="92.4"  y2="112" stroke="#444" stroke-width="0.18"/>
<line x1="176.4" y1="101.2" x2="176.4"  y2="112" stroke="#444" stroke-width="0.18"/>
<line x1="231.0" y1="101.2" x2="231.0"  y2="112" stroke="#444" stroke-width="0.18"/>
<line x1="294.0" y1="101.2" x2="294.0"  y2="112" stroke="#444" stroke-width="0.18"/>
<line x1="357.0" y1="101.2" x2="357.0"  y2="112" stroke="#444" stroke-width="0.18"/>
<line x1="52.5" y1="88" x2="52.5"  y2="101.2" stroke="#444" stroke-width="0.18"/>
<line x1="105.0" y1="88" x2="105.0"  y2="101.2" stroke="#444" stroke-width="0.18"/>
<line x1="157.5" y1="88" x2="157.5"  y2="101.2" stroke="#444" stroke-width="0.18"/>
<line x1="210.0" y1="88" x2="210.0"  y2="101.2" stroke="#444" stroke-width="0.18"/>
<line x1="262.5" y1="88" x2="262.5"  y2="101.2" stroke="#444" stroke-width="0.18"/>
<line x1="315.0" y1="88" x2="315.0"  y2="101.2" stroke="#444" stroke-width="0.18"/>
<line x1="367.5" y1="88" x2="367.5"  y2="101.2" stroke="#444" stroke-width="0.18"/>
<g transform="translate(4,105) scale(1,-1)"><text x="0" y="0" font-size="1.4" text-anchor="start" fill="#000">CLIENT</text></g>
<g transform="translate(4,80) scale(1,-1)"><text x="0" y="0" font-size="1.4" text-anchor="start" fill="#000">PROJECT</text></g>
<g transform="translate(4,46) scale(1,-1)"><text x="0" y="0" font-size="1.2" text-anchor="start" fill="#000">ARCHITECT</text></g>
<g transform="translate(4,31) scale(1,-1)"><text x="0" y="0" font-size="1.2" text-anchor="start" fill="#000">STRUCTURAL</text></g>
<g transform="translate(4,16) scale(1,-1)"><text x="0" y="0" font-size="1.2" text-anchor="start" fill="#000">MEP</text></g>
<g transform="translate(4,2) scale(1,-1)"><text x="0" y="0" font-size="1.2" text-anchor="start" fill="#000">CONTRACTOR</text></g>
<g transform="translate(204,105) scale(1,-1)"><text x="0" y="0" font-size="1.4" text-anchor="start" fill="#000">NOTES</text></g>
<g transform="translate(404,105) scale(1,-1)"><text x="0" y="0" font-size="1.4" text-anchor="start" fill="#000">DRAWING TITLE</text></g>
<g transform="translate(204,82) scale(1,-1)"><text x="0" y="0" font-size="1.2" text-anchor="start" fill="#000">PROJECT REF.</text></g>
<g transform="translate(204,56) scale(1,-1)"><text x="0" y="0" font-size="1.2" text-anchor="start" fill="#000">DISCIPLINE</text></g>
<g transform="translate(204,31) scale(1,-1)"><text x="0" y="0" font-size="1.2" text-anchor="start" fill="#000">RIBA STAGE</text></g>
<g transform="translate(624,105) scale(1,-1)"><text x="0" y="0" font-size="1.2" text-anchor="start" fill="#000">DATE</text></g>
<g transform="translate(684,105) scale(1,-1)"><text x="0" y="0" font-size="1.2" text-anchor="start" fill="#000">PAPER</text></g>
<g transform="translate(754,105) scale(1,-1)"><text x="0" y="0" font-size="1.2" text-anchor="start" fill="#000">SCALE</text></g>
<g transform="translate(624,87) scale(1,-1)"><text x="0" y="0" font-size="1.2" text-anchor="start" fill="#000">DRAWN BY</text></g>
<g transform="translate(684,87) scale(1,-1)"><text x="0" y="0" font-size="1.2" text-anchor="start" fill="#000">CHECKED BY</text></g>
<g transform="translate(754,87) scale(1,-1)"><text x="0" y="0" font-size="1.2" text-anchor="start" fill="#000">APPROVED BY</text></g>
<g transform="translate(624,69) scale(1,-1)"><text x="0" y="0" font-size="1.0" text-anchor="start" fill="#000">DATES</text></g>
<g transform="translate(2,85) scale(1,-1)"><text x="0" y="0" font-size="1.19" text-anchor="start" fill="#000">CLIENT</text></g>
<g transform="translate(2,70.33333333333333) scale(1,-1)"><text x="0" y="0" font-size="1.02" text-anchor="start" fill="#000">PROJECT</text></g>
<g transform="translate(2,55.66666666666667) scale(1,-1)"><text x="0" y="0" font-size="0.85" text-anchor="start" fill="#000">ARCHITECT</text></g>
<g transform="translate(2,41.0) scale(1,-1)"><text x="0" y="0" font-size="0.85" text-anchor="start" fill="#000">STRUCTURAL</text></g>
<g transform="translate(2,26.333333333333336) scale(1,-1)"><text x="0" y="0" font-size="0.85" text-anchor="start" fill="#000">MEP</text></g>
<g transform="translate(2,11.666666666666671) scale(1,-1)"><text x="0" y="0" font-size="0.85" text-anchor="start" fill="#000">CONTRACTOR</text></g>
<g transform="translate(94,85) scale(1,-1)"><text x="0" y="0" font-size="1.02" text-anchor="start" fill="#000">NOTES</text></g>
<g transform="translate(94,65.64) scale(1,-1)"><text x="0" y="0" font-size="0.77" text-anchor="start" fill="#000">PROJECT REF</text></g>
<g transform="translate(94,45.400000000000006) scale(1,-1)"><text x="0" y="0" font-size="0.77" text-anchor="start" fill="#000">DISCIPLINE</text></g>
<g transform="translate(94,23.4) scale(1,-1)"><text x="0" y="0" font-size="0.77" text-anchor="start" fill="#000">RIBA STAGE</text></g>
<g transform="translate(178,85) scale(1,-1)"><text x="0" y="0" font-size="1.19" text-anchor="start" fill="#000">DRAWING TITLE</text></g>
<g transform="translate(279,85) scale(1,-1)"><text x="0" y="0" font-size="0.85" text-anchor="start" fill="#000">DATE</text></g>
<g transform="translate(279,63.0) scale(1,-1)"><text x="0" y="0" font-size="0.77" text-anchor="start" fill="#000">DRAWN BY</text></g>
<g transform="translate(279,41.0) scale(1,-1)"><text x="0" y="0" font-size="0.77" text-anchor="start" fill="#000">CHECKED BY</text></g>
<g transform="translate(279,19.0) scale(1,-1)"><text x="0" y="0" font-size="0.77" text-anchor="start" fill="#000">APPROVED BY</text></g>
<g transform="translate(363,85) scale(1,-1)"><text x="0" y="0" font-size="0.85" text-anchor="start" fill="#000">SHEET</text></g>
<g transform="translate(363,49.8) scale(1,-1)"><text x="0" y="0" font-size="0.77" text-anchor="start" fill="#000">SCALE</text></g>
<g transform="translate(363,23.4) scale(1,-1)"><text x="0" y="0" font-size="0.77" text-anchor="start" fill="#000">PAPER</text></g>
<g transform="translate(1.5,110.3) scale(1,-1)"><text x="0" y="0" font-size="0.77" text-anchor="start" fill="#000">STATUS</text></g>
<g transform="translate(93.9,110.3) scale(1,-1)"><text x="0" y="0" font-size="0.77" text-anchor="start" fill="#000">SUITABILITY</text></g>
<g transform="translate(177.9,110.3) scale(1,-1)"><text x="0" y="0" font-size="0.77" text-anchor="start" fill="#000">REV</text></g>
<g transform="translate(232.50000000000003,110.3) scale(1,-1)"><text x="0" y="0" font-size="0.77" text-anchor="start" fill="#000">REV DATE</text></g>
<g transform="translate(295.5,110.3) scale(1,-1)"><text x="0" y="0" font-size="0.77" text-anchor="start" fill="#000">LOIN/LOD</text></g>
<g transform="translate(358.5,110.3) scale(1,-1)"><text x="0" y="0" font-size="0.77" text-anchor="start" fill="#000">FED</text></g>
<g transform="translate(1.5,99.5) scale(1,-1)"><text x="0" y="0" font-size="0.68" text-anchor="start" fill="#000">ISO 19650 SHEET ID</text></g>
<g transform="translate(1.5,95.5) scale(1,-1)"><text x="0" y="0" font-size="0.59" text-anchor="start" fill="#000">PRJ</text></g>
<g transform="translate(54.0,95.5) scale(1,-1)"><text x="0" y="0" font-size="0.59" text-anchor="start" fill="#000">ORIG</text></g>
<g transform="translate(106.5,95.5) scale(1,-1)"><text x="0" y="0" font-size="0.59" text-anchor="start" fill="#000">VOL</text></g>
<g transform="translate(159.0,95.5) scale(1,-1)"><text x="0" y="0" font-size="0.59" text-anchor="start" fill="#000">LVL</text></g>
<g transform="translate(211.5,95.5) scale(1,-1)"><text x="0" y="0" font-size="0.59" text-anchor="start" fill="#000">TYPE</text></g>
<g transform="translate(264.0,95.5) scale(1,-1)"><text x="0" y="0" font-size="0.59" text-anchor="start" fill="#000">ROLE</text></g>
<g transform="translate(316.5,95.5) scale(1,-1)"><text x="0" y="0" font-size="0.59" text-anchor="start" fill="#000">SEQ</text></g>
<g transform="translate(369.0,95.5) scale(1,-1)"><text x="0" y="0" font-size="0.59" text-anchor="start" fill="#000">OF</text></g>
<g transform="translate(4,95) scale(1,-1)"><text x="0" y="0" font-size="2.0" text-anchor="start" fill="#1F4E79" font-style="italic">{TB·CLIENT_NAME}</text></g>
<g transform="translate(4,86) scale(1,-1)"><text x="0" y="0" font-size="1.4" text-anchor="start" fill="#1F4E79" font-style="italic">{TB·CLIENT_ADDRESS}</text></g>
<g transform="translate(4,70) scale(1,-1)"><text x="0" y="0" font-size="2.0" text-anchor="start" fill="#1F4E79" font-style="italic">{ORG·PROJECT_NAME}</text></g>
<g transform="translate(4,60) scale(1,-1)"><text x="0" y="0" font-size="1.4" text-anchor="start" fill="#1F4E79" font-style="italic">{ORG·PROJECT_ADDRESS}</text></g>
<g transform="translate(40,46) scale(1,-1)"><text x="0" y="0" font-size="1.4" text-anchor="start" fill="#1F4E79" font-style="italic">{TB·CONSULTANT_NAME}</text></g>
<g transform="translate(40,41) scale(1,-1)"><text x="0" y="0" font-size="1.0" text-anchor="start" fill="#1F4E79" font-style="italic">{TB·CONSULTANT_ADDRESS}</text></g>
<g transform="translate(40,31) scale(1,-1)"><text x="0" y="0" font-size="1.4" text-anchor="start" fill="#1F4E79" font-style="italic">{TB·STRUCTURAL_CONSULTANTS_NAME}</text></g>
<g transform="translate(40,26) scale(1,-1)"><text x="0" y="0" font-size="1.0" text-anchor="start" fill="#1F4E79" font-style="italic">{TB·STRUCTURAL_CONSULTANTS_ADDRESS}</text></g>
<g transform="translate(40,16) scale(1,-1)"><text x="0" y="0" font-size="1.4" text-anchor="start" fill="#1F4E79" font-style="italic">{TB·MEP_CONSULTANTS_NAME}</text></g>
<g transform="translate(40,11) scale(1,-1)"><text x="0" y="0" font-size="1.0" text-anchor="start" fill="#1F4E79" font-style="italic">{TB·MEP_CONSULTANTS_ADDRESS}</text></g>
<g transform="translate(40,2) scale(1,-1)"><text x="0" y="0" font-size="1.4" text-anchor="start" fill="#1F4E79" font-style="italic">{TB·CONTRACTOR_NAME}</text></g>
<g transform="translate(120,2) scale(1,-1)"><text x="0" y="0" font-size="1.0" text-anchor="start" fill="#1F4E79" font-style="italic">{TB·CONTRACTOR_ADDRESS}</text></g>
<g transform="translate(204,75) scale(1,-1)"><text x="0" y="0" font-size="1.6" text-anchor="start" fill="#1F4E79" font-style="italic">{ORG·PROJECT_CODE}</text></g>
<g transform="translate(300,75) scale(1,-1)"><text x="0" y="0" font-size="1.6" text-anchor="start" fill="#1F4E79" font-style="italic">{ORG·PROJECT_NUMBER}</text></g>
<g transform="translate(204,50) scale(1,-1)"><text x="0" y="0" font-size="1.6" text-anchor="start" fill="#1F4E79" font-style="italic">{TB·DISCIPLINE}</text></g>
<g transform="translate(204,25) scale(1,-1)"><text x="0" y="0" font-size="1.6" text-anchor="start" fill="#1F4E79" font-style="italic">{ORG·RIBA_STAGE}</text></g>
<g transform="translate(204,95) scale(1,-1)"><text x="0" y="0" font-size="1.4" text-anchor="start" fill="#1F4E79" font-style="italic">{TB·NOTES_LEGEND_REF}</text></g>
<g transform="translate(404,90) scale(1,-1)"><text x="0" y="0" font-size="3.5" text-anchor="start" fill="#1F4E79" font-style="italic">{ORG·PROJECT_NAME}</text></g>
<g transform="translate(624,96) scale(1,-1)"><text x="0" y="0" font-size="1.4" text-anchor="start" fill="#1F4E79" font-style="italic">{TB·DATE_DRAWN}</text></g>
<g transform="translate(684,96) scale(1,-1)"><text x="0" y="0" font-size="1.4" text-anchor="start" fill="#1F4E79" font-style="italic">{TB·PAPER_SZ}</text></g>
<g transform="translate(754,96) scale(1,-1)"><text x="0" y="0" font-size="1.4" text-anchor="start" fill="#1F4E79" font-style="italic">{TB·SCALE_OVERRIDE}</text></g>
<g transform="translate(624,78) scale(1,-1)"><text x="0" y="0" font-size="1.4" text-anchor="start" fill="#1F4E79" font-style="italic">{TB·DRAWN_BY}</text></g>
<g transform="translate(684,78) scale(1,-1)"><text x="0" y="0" font-size="1.4" text-anchor="start" fill="#1F4E79" font-style="italic">{TB·CHECKED_BY}</text></g>
<g transform="translate(754,78) scale(1,-1)"><text x="0" y="0" font-size="1.4" text-anchor="start" fill="#1F4E79" font-style="italic">{TB·APVD_BY}</text></g>
<g transform="translate(624,64) scale(1,-1)"><text x="0" y="0" font-size="1.0" text-anchor="start" fill="#1F4E79" font-style="italic">{TB·DATE_DRAWN}</text></g>
<g transform="translate(684,64) scale(1,-1)"><text x="0" y="0" font-size="1.0" text-anchor="start" fill="#1F4E79" font-style="italic">{TB·DATE_CHECKED}</text></g>
<g transform="translate(754,64) scale(1,-1)"><text x="0" y="0" font-size="1.0" text-anchor="start" fill="#1F4E79" font-style="italic">{TB·DATE_APVD}</text></g>
<g transform="translate(2,79.93333333333334) scale(1,-1)"><text x="0" y="0" font-size="1.36" text-anchor="start" fill="#1F4E79" font-style="italic">{TB·CLIENT_NAME}</text></g>
<g transform="translate(2,74.53333333333333) scale(1,-1)"><text x="0" y="0" font-size="0.77" text-anchor="start" fill="#1F4E79" font-style="italic">{TB·CLIENT_ADDRESS}</text></g>
<g transform="translate(2,66.26666666666667) scale(1,-1)"><text x="0" y="0" font-size="1.27" text-anchor="start" fill="#1F4E79" font-style="italic">{ORG·PROJECT_NAME}</text></g>
<g transform="translate(2,60.86666666666667) scale(1,-1)"><text x="0" y="0" font-size="0.72" text-anchor="start" fill="#1F4E79" font-style="italic">{ORG·PROJECT_ADDRESS}</text></g>
<g transform="translate(2,51.60000000000001) scale(1,-1)"><text x="0" y="0" font-size="0.94" text-anchor="start" fill="#1F4E79" font-style="italic">{TB·CONSULTANT_NAME}</text></g>
<g transform="translate(2,46.20000000000001) scale(1,-1)"><text x="0" y="0" font-size="0.64" text-anchor="start" fill="#1F4E79" font-style="italic">{TB·CONSULTANT_ADDRESS}</text></g>
<g transform="translate(2,36.93333333333334) scale(1,-1)"><text x="0" y="0" font-size="0.94" text-anchor="start" fill="#1F4E79" font-style="italic">{TB·STRUCTURAL_CONSULTANTS_NAME}</text></g>
<g transform="translate(2,31.53333333333334) scale(1,-1)"><text x="0" y="0" font-size="0.64" text-anchor="start" fill="#1F4E79" font-style="italic">{TB·STRUCTURAL_CONSULTANTS_ADDRESS}</text></g>
<g transform="translate(2,22.26666666666667) scale(1,-1)"><text x="0" y="0" font-size="0.94" text-anchor="start" fill="#1F4E79" font-style="italic">{TB·MEP_CONSULTANTS_NAME}</text></g>
<g transform="translate(2,16.86666666666667) scale(1,-1)"><text x="0" y="0" font-size="0.64" text-anchor="start" fill="#1F4E79" font-style="italic">{TB·MEP_CONSULTANTS_ADDRESS}</text></g>
<g transform="translate(2,7.600000000000005) scale(1,-1)"><text x="0" y="0" font-size="0.94" text-anchor="start" fill="#1F4E79" font-style="italic">{TB·CONTRACTOR_NAME}</text></g>
<g transform="translate(2,2.2000000000000055) scale(1,-1)"><text x="0" y="0" font-size="0.64" text-anchor="start" fill="#1F4E79" font-style="italic">{TB·CONTRACTOR_ADDRESS}</text></g>
<g transform="translate(94,73.8) scale(1,-1)"><text x="0" y="0" font-size="0.85" text-anchor="start" fill="#1F4E79" font-style="italic">{TB·NOTES_LEGEND_REF}</text></g>
<g transform="translate(94,61.48) scale(1,-1)"><text x="0" y="0" font-size="0.85" text-anchor="start" fill="#1F4E79" font-style="italic">{ORG·PROJECT_CODE}</text></g>
<g transform="translate(94,41.239999999999995) scale(1,-1)"><text x="0" y="0" font-size="0.85" text-anchor="start" fill="#1F4E79" font-style="italic">{TB·DISCIPLINE}</text></g>
<g transform="translate(94,19.240000000000002) scale(1,-1)"><text x="0" y="0" font-size="0.85" text-anchor="start" fill="#1F4E79" font-style="italic">{ORG·RIBA_STAGE}</text></g>
<g transform="translate(178,70.4) scale(1,-1)"><text x="0" y="0" font-size="2.55" text-anchor="start" fill="#1F4E79" font-style="italic">{ORG·PROJECT_NAME}</text></g>
<g transform="translate(279,79.2) scale(1,-1)"><text x="0" y="0" font-size="0.85" text-anchor="start" fill="#1F4E79" font-style="italic">{TB·DATE_DRAWN}</text></g>
<g transform="translate(279,58.84) scale(1,-1)"><text x="0" y="0" font-size="0.85" text-anchor="start" fill="#1F4E79" font-style="italic">{TB·DRAWN_BY}</text></g>
<g transform="translate(279,36.839999999999996) scale(1,-1)"><text x="0" y="0" font-size="0.85" text-anchor="start" fill="#1F4E79" font-style="italic">{TB·CHECKED_BY}</text></g>
<g transform="translate(279,14.84) scale(1,-1)"><text x="0" y="0" font-size="0.85" text-anchor="start" fill="#1F4E79" font-style="italic">{TB·APVD_BY}</text></g>
<g transform="translate(363,43.0) scale(1,-1)"><text x="0" y="0" font-size="0.85" text-anchor="start" fill="#1F4E79" font-style="italic">{TB·SCALE_OVERRIDE}</text></g>
<g transform="translate(363,16.6) scale(1,-1)"><text x="0" y="0" font-size="0.85" text-anchor="start" fill="#1F4E79" font-style="italic">{TB·PAPER_SZ}</text></g>
<g transform="translate(1.5,95.2) scale(1,-1)"><text x="0" y="0" font-size="1.19" text-anchor="start" fill="#1F4E79" font-style="italic">{TB·DELIVERABLE_STATUS}</text></g>
<g transform="translate(93.9,95.2) scale(1,-1)"><text x="0" y="0" font-size="1.19" text-anchor="start" fill="#1F4E79" font-style="italic">{DWG·SUITABILITY_COD}</text></g>
<g transform="translate(177.9,95.2) scale(1,-1)"><text x="0" y="0" font-size="1.19" text-anchor="start" fill="#1F4E79" font-style="italic">{TB·REVISION_NR}</text></g>
<g transform="translate(232.50000000000003,95.2) scale(1,-1)"><text x="0" y="0" font-size="0.85" text-anchor="start" fill="#1F4E79" font-style="italic">{TB·REVISION_DATE}</text></g>
<g transform="translate(295.5,95.2) scale(1,-1)"><text x="0" y="0" font-size="0.85" text-anchor="start" fill="#1F4E79" font-style="italic">{ST·LOIN_LOD}</text></g>
<g transform="translate(358.5,95.2) scale(1,-1)"><text x="0" y="0" font-size="0.85" text-anchor="start" fill="#1F4E79" font-style="italic">{ST·FEDERATION_STATUS}</text></g>
<g transform="translate(1.5,92.32) scale(1,-1)"><text x="0" y="0" font-size="1.02" text-anchor="start" fill="#1F4E79" font-style="italic">{ST·SHEET_PROJECT}</text></g>
<g transform="translate(54.0,92.32) scale(1,-1)"><text x="0" y="0" font-size="1.02" text-anchor="start" fill="#1F4E79" font-style="italic">{ST·SHEET_ORIG}</text></g>
<g transform="translate(106.5,92.32) scale(1,-1)"><text x="0" y="0" font-size="1.02" text-anchor="start" fill="#1F4E79" font-style="italic">{ST·SHEET_VOLUME}</text></g>
<g transform="translate(159.0,92.32) scale(1,-1)"><text x="0" y="0" font-size="1.02" text-anchor="start" fill="#1F4E79" font-style="italic">{ST·SHEET_LEVEL}</text></g>
<g transform="translate(211.5,92.32) scale(1,-1)"><text x="0" y="0" font-size="1.02" text-anchor="start" fill="#1F4E79" font-style="italic">{ST·SHEET_TYPE}</text></g>
<g transform="translate(264.0,92.32) scale(1,-1)"><text x="0" y="0" font-size="1.02" text-anchor="start" fill="#1F4E79" font-style="italic">{ST·SHEET_ROLE}</text></g>
<g transform="translate(316.5,92.32) scale(1,-1)"><text x="0" y="0" font-size="1.02" text-anchor="start" fill="#1F4E79" font-style="italic">{ST·SHEET_SEQ}</text></g>
<g transform="translate(369.0,92.32) scale(1,-1)"><text x="0" y="0" font-size="0.85" text-anchor="start" fill="#1F4E79" font-style="italic">{ST·SHEET_OF_TOTAL}</text></g>
<rect x="10" y="93" width="400" height="496" fill="none" stroke="#5fa8d3" stroke-width="0.4" stroke-dasharray="3,2"/>
<g transform="translate(15,584) scale(1,-1)"><text x="0" y="0" font-size="6" font-weight="bold" fill="#5fa8d3">S01</text></g>
<g transform="translate(15,577) scale(1,-1)"><text x="0" y="0" font-size="3.5" fill="#5fa8d3" opacity="0.7">main-plan</text></g>
<rect x="10" y="93" width="195" height="496" fill="none" stroke="#5fa8d3" stroke-width="0.4" stroke-dasharray="3,2"/>
<g transform="translate(15,584) scale(1,-1)"><text x="0" y="0" font-size="6" font-weight="bold" fill="#5fa8d3">S02</text></g>
<g transform="translate(15,577) scale(1,-1)"><text x="0" y="0" font-size="3.5" fill="#5fa8d3" opacity="0.7">main-plan-half-left</text></g>
<rect x="215" y="93" width="195" height="496" fill="none" stroke="#5fa8d3" stroke-width="0.4" stroke-dasharray="3,2"/>
<g transform="translate(220,584) scale(1,-1)"><text x="0" y="0" font-size="6" font-weight="bold" fill="#5fa8d3">S03</text></g>
<g transform="translate(220,577) scale(1,-1)"><text x="0" y="0" font-size="3.5" fill="#5fa8d3" opacity="0.7">main-plan-half-right</text></g>
<rect x="10" y="93" width="195" height="240" fill="none" stroke="#5fa8d3" stroke-width="0.4" stroke-dasharray="3,2"/>
<g transform="translate(15,328) scale(1,-1)"><text x="0" y="0" font-size="6" font-weight="bold" fill="#5fa8d3">S04</text></g>
<g transform="translate(15,321) scale(1,-1)"><text x="0" y="0" font-size="3.5" fill="#5fa8d3" opacity="0.7">quad-bottom-left</text></g>
<rect x="215" y="93" width="195" height="240" fill="none" stroke="#5fa8d3" stroke-width="0.4" stroke-dasharray="3,2"/>
<g transform="translate(220,328) scale(1,-1)"><text x="0" y="0" font-size="6" font-weight="bold" fill="#5fa8d3">S05</text></g>
<g transform="translate(220,321) scale(1,-1)"><text x="0" y="0" font-size="3.5" fill="#5fa8d3" opacity="0.7">quad-bottom-right</text></g>
<rect x="10" y="338" width="195" height="240" fill="none" stroke="#5fa8d3" stroke-width="0.4" stroke-dasharray="3,2"/>
<g transform="translate(15,573) scale(1,-1)"><text x="0" y="0" font-size="6" font-weight="bold" fill="#5fa8d3">S06</text></g>
<g transform="translate(15,566) scale(1,-1)"><text x="0" y="0" font-size="3.5" fill="#5fa8d3" opacity="0.7">quad-top-left</text></g>
<rect x="215" y="338" width="195" height="240" fill="none" stroke="#5fa8d3" stroke-width="0.4" stroke-dasharray="3,2"/>
<g transform="translate(220,573) scale(1,-1)"><text x="0" y="0" font-size="6" font-weight="bold" fill="#5fa8d3">S07</text></g>
<g transform="translate(220,566) scale(1,-1)"><text x="0" y="0" font-size="3.5" fill="#5fa8d3" opacity="0.7">quad-top-right</text></g>
<rect x="346" y="98" width="59" height="89" fill="none" stroke="#5fa8d3" stroke-width="0.4" stroke-dasharray="3,2"/>
<g transform="translate(351,182) scale(1,-1)"><text x="0" y="0" font-size="6" font-weight="bold" fill="#5fa8d3">KP</text></g>
<g transform="translate(351,175) scale(1,-1)"><text x="0" y="0" font-size="3.5" fill="#5fa8d3" opacity="0.7">key-plan</text></g>
</g>
<text x="30" y="689.0" font-size="7" fill="#444">parameters 63  ·  lines 53  ·  labels 64  ·  static-text 51  ·  fills 2  ·  slots 8</text>
<text x="30" y="699.0" font-size="6" fill="#666">A2 portrait working sheet — full ISO 19650 BIM identity (top BIM strip with status / suitability chip / revision / LOIN / federation, plus 7-segment sheet ID row). Extends A2_PORT_common_v2.0 — inheri…</text>
</svg>