<?xml version="1.0" encoding="UTF-8"?>
<svg xmlns="http://www.w3.org/2000/svg" viewBox="0 0 357 530" width="357mm" height="530mm" style="background:#fafafa;font-family:Helvetica,Arial,sans-serif;">
<rect x="0" y="0" width="357" height="50" fill="#1F4E79"/>
<text x="178.5" y="22.5" text-anchor="middle" fill="#fff" font-size="14" font-weight="bold">STING_TB_A3_PORT_BIM_v2.0</text>
<text x="178.5" y="39.0" text-anchor="middle" fill="#cfe2ff" font-size="9">paper 297 × 420 mm   ·   mode=BIM</text>
<g transform="translate(30,500) scale(1,-1)">
<rect x="0" y="0" width="297" height="420" fill="#ffffff" stroke="#1a1a1a" stroke-width="0.6"/>
<rect x="65.34" y="81.0" width="59.39999999999999" height="9.0" fill="#F2A341" opacity="0.85"/>
<rect x="0" y="88.5" width="297" height="1.5" fill="#1F4E79" opacity="0.85"/>
<line x1="0" y1="0" x2="841"  y2="0" stroke="#000" stroke-width="0.7"/>
<line x1="841" y1="0" x2="841"  y2="594" stroke="#000" stroke-width="0.7"/>
<line x1="841" y1="594" x2="0"  y2="594" stroke="#000" stroke-width="0.7"/>
<line x1="0" y1="594" x2="0"  y2="0" stroke="#000" stroke-width="0.7"/>
<line x1="0" y1="110" x2="841"  y2="110" stroke="#222" stroke-width="0.35"/>
<line x1="200" y1="0" x2="200"  y2="110" stroke="#444" stroke-width="0.18"/>
<line x1="400" y1="0" x2="400"  y2="110" stroke="#444" stroke-width="0.18"/>
<line x1="620" y1="0" x2="620"  y2="110" stroke="#444" stroke-width="0.18"/>
<line x1="820" y1="0" x2="820"  y2="110" stroke="#444" stroke-width="0.18"/>
<line x1="0" y1="50" x2="200"  y2="50" stroke="#444" stroke-width="0.18"/>
<line x1="0" y1="35" x2="200"  y2="35" stroke="#444" stroke-width="0.18"/>
<line x1="0" y1="20" x2="200"  y2="20" stroke="#444" stroke-width="0.18"/>
<line x1="200" y1="85" x2="400"  y2="85" stroke="#444" stroke-width="0.18"/>
<line x1="200" y1="60" x2="400"  y2="60" stroke="#444" stroke-width="0.18"/>
<line x1="200" y1="35" x2="400"  y2="35" stroke="#444" stroke-width="0.18"/>
<line x1="620" y1="90" x2="820"  y2="90" stroke="#444" stroke-width="0.18"/>
<line x1="620" y1="72" x2="820"  y2="72" stroke="#444" stroke-width="0.18"/>
<line x1="680" y1="72" x2="680"  y2="110" stroke="#444" stroke-width="0.18"/>
<line x1="750" y1="72" x2="750"  y2="110" stroke="#444" stroke-width="0.18"/>
<line x1="0" y1="0" x2="297"  y2="0" stroke="#000" stroke-width="0.7"/>
<line x1="297" y1="0" x2="297"  y2="420" stroke="#000" stroke-width="0.7"/>
<line x1="297" y1="420" x2="0"  y2="420" stroke="#000" stroke-width="0.7"/>
<line x1="0" y1="420" x2="0"  y2="0" stroke="#000" stroke-width="0.7"/>
<line x1="0" y1="70" x2="297"  y2="70" stroke="#222" stroke-width="0.35"/>
<line x1="65" y1="0" x2="65"  y2="70" stroke="#444" stroke-width="0.18"/>
<line x1="125" y1="0" x2="125"  y2="70" stroke="#444" stroke-width="0.18"/>
<line x1="196" y1="0" x2="196"  y2="70" stroke="#444" stroke-width="0.18"/>
<line x1="255" y1="0" x2="255"  y2="70" stroke="#444" stroke-width="0.18"/>
<line x1="0" y1="11.7" x2="65"  y2="11.7" stroke="#444" stroke-width="0.18"/>
<line x1="0" y1="23.3" x2="65"  y2="23.3" stroke="#444" stroke-width="0.18"/>
<line x1="0" y1="35.0" x2="65"  y2="35.0" stroke="#444" stroke-width="0.18"/>
<line x1="0" y1="46.7" x2="65"  y2="46.7" stroke="#444" stroke-width="0.18"/>
<line x1="0" y1="58.3" x2="65"  y2="58.3" stroke="#444" stroke-width="0.18"/>
<line x1="65" y1="21.0" x2="125"  y2="21.0" stroke="#444" stroke-width="0.18"/>
<line x1="65" y1="38.5" x2="125"  y2="38.5" stroke="#444" stroke-width="0.18"/>
<line x1="65" y1="54.6" x2="125"  y2="54.6" stroke="#444" stroke-width="0.18"/>
<line x1="196" y1="17.5" x2="255"  y2="17.5" stroke="#444" stroke-width="0.18"/>
<line x1="196" y1="35.0" x2="255"  y2="35.0" stroke="#444" stroke-width="0.18"/>
<line x1="196" y1="52.5" x2="255"  y2="52.5" stroke="#444" stroke-width="0.18"/>
<line x1="0" y1="90" x2="297"  y2="90" stroke="#222" stroke-width="0.35"/>
<line x1="0" y1="81.0" x2="297"  y2="81.0" stroke="#444" stroke-width="0.18"/>
<line x1="65.3" y1="81.0" x2="65.3"  y2="90" stroke="#444" stroke-width="0.18"/>
<line x1="124.7" y1="81.0" x2="124.7"  y2="90" stroke="#444" stroke-width="0.18"/>
<line x1="163.4" y1="81.0" x2="163.4"  y2="90" stroke="#444" stroke-width="0.18"/>
<line x1="207.9" y1="81.0" x2="207.9"  y2="90" stroke="#444" stroke-width="0.18"/>
<line x1="252.4" y1="81.0" x2="252.4"  y2="90" stroke="#444" stroke-width="0.18"/>
<line x1="37.1" y1="70" x2="37.1"  y2="81.0" stroke="#444" stroke-width="0.18"/>
<line x1="74.2" y1="70" x2="74.2"  y2="81.0" stroke="#444" stroke-width="0.18"/>
<line x1="111.4" y1="70" x2="111.4"  y2="81.0" stroke="#444" stroke-width="0.18"/>
<line x1="148.5" y1="70" x2="148.5"  y2="81.0" stroke="#444" stroke-width="0.18"/>
<line x1="185.6" y1="70" x2="185.6"  y2="81.0" stroke="#444" stroke-width="0.18"/>
<line x1="222.8" y1="70" x2="222.8"  y2="81.0" stroke="#444" stroke-width="0.18"/>
<line x1="259.9" y1="70" x2="259.9"  y2="81.0" stroke="#444" stroke-width="0.18"/>
<g transform="translate(4,105) scale(1,-1)"><text x="0" y="0" font-size="1.4" text-anchor="start" fill="#000">CLIENT</text></g>
<g transform="translate(4,80) scale(1,-1)"><text x="0" y="0" font-size="1.4" text-anchor="start" fill="#000">PROJECT</text></g>
<g transform="translate(4,46) scale(1,-1)"><text x="0" y="0" font-size="1.2" text-anchor="start" fill="#000">ARCHITECT</text></g>
<g transform="translate(4,31) scale(1,-1)"><text x="0" y="0" font-size="1.2" text-anchor="start" fill="#000">STRUCTURAL</text></g>
<g transform="translate(4,16) scale(1,-1)"><text x="0" y="0" font-size="1.2" text-anchor="start" fill="#000">MEP</text></g>
<g transform="translate(4,2) scale(1,-1)"><text x="0" y="0" font-size="1.2" text-anchor="start" fill="#000">CONTRACTOR</text></g>
<g transform="translate(204,105) scale(1,-1)"><text x="0" y="0" font-size="1.4" text-anchor="start" fill="#000">NOTES</text></g>
<g transform="translate(404,105) scale(1,-1)"><text x="0" y="0" font-size="1.4" text-anchor="start" fill="#000">DRAWING TITLE</text></g>
<g transform="translate(204,82) scale(1,-1)"><text x="0" y="0" font-size="1.2" text-anchor="start" fill="#000">PROJECT REF.</text></g>
<g transform="translate(204,56) scale(1,-1)"><text x="0" y="0" font-size="1.2" text-anchor="start" fill="#000">DISCIPLINE</text></g>
<g transform="translate(204,31) scale(1,-1)"><text x="0" y="0" font-size="1.2" text-anchor="start" fill="#000">RIBA STAGE</text></g>
<g transform="translate(624,105) scale(1,-1)"><text x="0" y="0" font-size="1.2" text-anchor="start" fill="#000">DATE</text></g>
<g transform="translate(684,105) scale(1,-1)"><text x="0" y="0" font-size="1.2" text-anchor="start" fill="#000">PAPER</text></g>
<g transform="translate(754,105) scale(1,-1)"><text x="0" y="0" font-size="1.2" text-anchor="start" fill="#000">SCALE</text></g>
<g transform="translate(624,87) scale(1,-1)"><text x="0" y="0" font-size="1.2" text-anchor="start" fill="#000">DRAWN BY</text></g>
<g transform="translate(684,87) scale(1,-1)"><text x="0" y="0" font-size="1.2" text-anchor="start" fill="#000">CHECKED BY</text></g>
<g transform="translate(754,87) scale(1,-1)"><text x="0" y="0" font-size="1.2" text-anchor="start" fill="#000">APPROVED BY</text></g>
<g transform="translate(624,69) scale(1,-1)"><text x="0" y="0" font-size="1.0" text-anchor="start" fill="#000">DATES</text></g>
<g transform="translate(2,67) scale(1,-1)"><text x="0" y="0" font-size="0.98" text-anchor="start" fill="#000">CLIENT</text></g>
<g transform="translate(2,55.333333333333336) scale(1,-1)"><text x="0" y="0" font-size="0.84" text-anchor="start" fill="#000">PROJECT</text></g>
<g transform="translate(2,43.66666666666667) scale(1,-1)"><text x="0" y="0" font-size="0.7" text-anchor="start" fill="#000">ARCHITECT</text></g>
<g transform="translate(2,32.0) scale(1,-1)"><text x="0" y="0" font-size="0.7" text-anchor="start" fill="#000">STRUCTURAL</text></g>
<g transform="translate(2,20.333333333333336) scale(1,-1)"><text x="0" y="0" font-size="0.7" text-anchor="start" fill="#000">MEP</text></g>
<g transform="translate(2,8.666666666666671) scale(1,-1)"><text x="0" y="0" font-size="0.7" text-anchor="start" fill="#000">CONTRACTOR</text></g>
<g transform="translate(67,67) scale(1,-1)"><text x="0" y="0" font-size="0.84" text-anchor="start" fill="#000">NOTES</text></g>
<g transform="translate(67,51.6) scale(1,-1)"><text x="0" y="0" font-size="0.63" text-anchor="start" fill="#000">PROJECT REF</text></g>
<g transform="translate(67,35.5) scale(1,-1)"><text x="0" y="0" font-size="0.63" text-anchor="start" fill="#000">DISCIPLINE</text></g>
<g transform="translate(67,18.0) scale(1,-1)"><text x="0" y="0" font-size="0.63" text-anchor="start" fill="#000">RIBA STAGE</text></g>
<g transform="translate(127,67) scale(1,-1)"><text x="0" y="0" font-size="0.98" text-anchor="start" fill="#000">DRAWING TITLE</text></g>
<g transform="translate(198,67) scale(1,-1)"><text x="0" y="0" font-size="0.7" text-anchor="start" fill="#000">DATE</text></g>
<g transform="translate(198,49.5) scale(1,-1)"><text x="0" y="0" font-size="0.63" text-anchor="start" fill="#000">DRAWN BY</text></g>
<g transform="translate(198,32.0) scale(1,-1)"><text x="0" y="0" font-size="0.63" text-anchor="start" fill="#000">CHECKED BY</text></g>
<g transform="translate(198,14.5) scale(1,-1)"><text x="0" y="0" font-size="0.63" text-anchor="start" fill="#000">APPROVED BY</text></g>
<g transform="translate(257,67) scale(1,-1)"><text x="0" y="0" font-size="0.7" text-anchor="start" fill="#000">SHEET</text></g>
<g transform="translate(257,39.0) scale(1,-1)"><text x="0" y="0" font-size="0.63" text-anchor="start" fill="#000">SCALE</text></g>
<g transform="translate(257,18.0) scale(1,-1)"><text x="0" y="0" font-size="0.63" text-anchor="start" fill="#000">PAPER</text></g>
<g transform="translate(1.5,88.6) scale(1,-1)"><text x="0" y="0" font-size="0.63" text-anchor="start" fill="#000">STATUS</text></g>
<g transform="translate(66.84,88.6) scale(1,-1)"><text x="0" y="0" font-size="0.63" text-anchor="start" fill="#000">SUITABILITY</text></g>
<g transform="translate(126.24,88.6) scale(1,-1)"><text x="0" y="0" font-size="0.63" text-anchor="start" fill="#000">REV</text></g>
<g transform="translate(164.85000000000002,88.6) scale(1,-1)"><text x="0" y="0" font-size="0.63" text-anchor="start" fill="#000">REV DATE</text></g>
<g transform="translate(209.39999999999998,88.6) scale(1,-1)"><text x="0" y="0" font-size="0.63" text-anchor="start" fill="#000">LOIN/LOD</text></g>
<g transform="translate(253.95,88.6) scale(1,-1)"><text x="0" y="0" font-size="0.63" text-anchor="start" fill="#000">FED</text></g>
<g transform="translate(1.5,79.6) scale(1,-1)"><text x="0" y="0" font-size="0.56" text-anchor="start" fill="#000">ISO 19650 SHEET ID</text></g>
<g transform="translate(1.5,75.6) scale(1,-1)"><text x="0" y="0" font-size="0.49" text-anchor="start" fill="#000">PRJ</text></g>
<g transform="translate(38.625,75.6) scale(1,-1)"><text x="0" y="0" font-size="0.49" text-anchor="start" fill="#000">ORIG</text></g>
<g transform="translate(75.75,75.6) scale(1,-1)"><text x="0" y="0" font-size="0.49" text-anchor="start" fill="#000">VOL</text></g>
<g transform="translate(112.875,75.6) scale(1,-1)"><text x="0" y="0" font-size="0.49" text-anchor="start" fill="#000">LVL</text></g>
<g transform="translate(150.0,75.6) scale(1,-1)"><text x="0" y="0" font-size="0.49" text-anchor="start" fill="#000">TYPE</text></g>
<g transform="translate(187.125,75.6) scale(1,-1)"><text x="0" y="0" font-size="0.49" text-anchor="start" fill="#000">ROLE</text></g>
<g transform="translate(224.25,75.6) scale(1,-1)"><text x="0" y="0" font-size="0.49" text-anchor="start" fill="#000">SEQ</text></g>
<g transform="translate(261.375,75.6) scale(1,-1)"><text x="0" y="0" font-size="0.49" text-anchor="start" fill="#000">OF</text></g>
<g transform="translate(4,95) scale(1,-1)"><text x="0" y="0" font-size="2.0" text-anchor="start" fill="#1F4E79" font-style="italic">{TB·CLIENT_NAME}</text></g>
<g transform="translate(4,86) scale(1,-1)"><text x="0" y="0" font-size="1.4" text-anchor="start" fill="#1F4E79" font-style="italic">{TB·CLIENT_ADDRESS}</text></g>
<g transform="translate(4,70) scale(1,-1)"><text x="0" y="0" font-size="2.0" text-anchor="start" fill="#1F4E79" font-style="italic">{ORG·PROJECT_NAME}</text></g>
<g transform="translate(4,60) scale(1,-1)"><text x="0" y="0" font-size="1.4" text-anchor="start" fill="#1F4E79" font-style="italic">{ORG·PROJECT_ADDRESS}</text></g>
<g transform="translate(40,46) scale(1,-1)"><text x="0" y="0" font-size="1.4" text-anchor="start" fill="#1F4E79" font-style="italic">{TB·CONSULTANT_NAME}</text></g>
<g transform="translate(40,41) scale(1,-1)"><text x="0" y="0" font-size="1.0" text-anchor="start" fill="#1F4E79" font-style="italic">{TB·CONSULTANT_ADDRESS}</text></g>
<g transform="translate(40,31) scale(1,-1)"><text x="0" y="0" font-size="1.4" text-anchor="start" fill="#1F4E79" font-style="italic">{TB·STRUCTURAL_CONSULTANTS_NAME}</text></g>
<g transform="translate(40,26) scale(1,-1)"><text x="0" y="0" font-size="1.0" text-anchor="start" fill="#1F4E79" font-style="italic">{TB·STRUCTURAL_CONSULTANTS_ADDRESS}</text></g>
<g transform="translate(40,16) scale(1,-1)"><text x="0" y="0" font-size="1.4" text-anchor="start" fill="#1F4E79" font-style="italic">{TB·MEP_CONSULTANTS_NAME}</text></g>
<g transform="translate(40,11) scale(1,-1)"><text x="0" y="0" font-size="1.0" text-anchor="start" fill="#1F4E79" font-style="italic">{TB·MEP_CONSULTANTS_ADDRESS}</text></g>
<g transform="translate(40,2) scale(1,-1)"><text x="0" y="0" font-size="1.4" text-anchor="start" fill="#1F4E79" font-style="italic">{TB·CONTRACTOR_NAME}</text></g>
<g transform="translate(120,2) scale(1,-1)"><text x="0" y="0" font-size="1.0" text-anchor="start" fill="#1F4E79" font-style="italic">{TB·CONTRACTOR_ADDRESS}</text></g>
<g transform="translate(204,75) scale(1,-1)"><text x="0" y="0" font-size="1.6" text-anchor="start" fill="#1F4E79" font-style="italic">{ORG·PROJECT_CODE}</text></g>
<g transform="translate(300,75) scale(1,-1)"><text x="0" y="0" font-size="1.6" text-anchor="start" fill="#1F4E79" font-style="italic">{ORG·PROJECT_NUMBER}</text></g>
<g transform="translate(204,50) scale(1,-1)"><text x="0" y="0" font-size="1.6" text-anchor="start" fill="#1F4E79" font-style="italic">{TB·DISCIPLINE}</text></g>
<g transform="translate(204,25) scale(1,-1)"><text x="0" y="0" font-size="1.6" text-anchor="start" fill="#1F4E79" font-style="italic">{ORG·RIBA_STAGE}</text></g>
<g transform="translate(204,95) scale(1,-1)"><text x="0" y="0" font-size="1.4" text-anchor="start" fill="#1F4E79" font-style="italic">{TB·NOTES_LEGEND_REF}</text></g>
<g transform="translate(404,90) scale(1,-1)"><text x="0" y="0" font-size="3.5" text-anchor="start" fill="#1F4E79" font-style="italic">{ORG·PROJECT_NAME}</text></g>
<g transform="translate(624,96) scale(1,-1)"><text x="0" y="0" font-size="1.4" text-anchor="start" fill="#1F4E79" font-style="italic">{TB·DATE_DRAWN}</text></g>
<g transform="translate(684,96) scale(1,-1)"><text x="0" y="0" font-size="1.4" text-anchor="start" fill="#1F4E79" font-style="italic">{TB·PAPER_SZ}</text></g>
<g transform="translate(754,96) scale(1,-1)"><text x="0" y="0" font-size="1.4" text-anchor="start" fill="#1F4E79" font-style="italic">{TB·SCALE_OVERRIDE}</text></g>
<g transform="translate(624,78) scale(1,-1)"><text x="0" y="0" font-size="1.4" text-anchor="start" fill="#1F4E79" font-style="italic">{TB·DRAWN_BY}</text></g>
<g transform="translate(684,78) scale(1,-1)"><text x="0" y="0" font-size="1.4" text-anchor="start" fill="#1F4E79" font-style="italic">{TB·CHECKED_BY}</text></g>
<g transform="translate(754,78) scale(1,-1)"><text x="0" y="0" font-size="1.4" text-anchor="start" fill="#1F4E79" font-style="italic">{TB·APVD_BY}</text></g>
<g transform="translate(624,64) scale(1,-1)"><text x="0" y="0" font-size="1.0" text-anchor="start" fill="#1F4E79" font-style="italic">{TB·DATE_DRAWN}</text></g>
<g transform="translate(684,64) scale(1,-1)"><text x="0" y="0" font-size="1.0" text-anchor="start" fill="#1F4E79" font-style="italic">{TB·DATE_CHECKED}</text></g>
<g transform="translate(754,64) scale(1,-1)"><text x="0" y="0" font-size="1.0" text-anchor="start" fill="#1F4E79" font-style="italic">{TB·DATE_APVD}</text></g>
<g transform="translate(2,63.583333333333336) scale(1,-1)"><text x="0" y="0" font-size="1.12" text-anchor="start" fill="#1F4E79" font-style="italic">{TB·CLIENT_NAME}</text></g>
<g transform="translate(2,59.083333333333336) scale(1,-1)"><text x="0" y="0" font-size="0.63" text-anchor="start" fill="#1F4E79" font-style="italic">{TB·CLIENT_ADDRESS}</text></g>
<g transform="translate(2,52.91666666666667) scale(1,-1)"><text x="0" y="0" font-size="1.05" text-anchor="start" fill="#1F4E79" font-style="italic">{ORG·PROJECT_NAME}</text></g>
<g transform="translate(2,48.41666666666667) scale(1,-1)"><text x="0" y="0" font-size="0.59" text-anchor="start" fill="#1F4E79" font-style="italic">{ORG·PROJECT_ADDRESS}</text></g>
<g transform="translate(2,41.25000000000001) scale(1,-1)"><text x="0" y="0" font-size="0.77" text-anchor="start" fill="#1F4E79" font-style="italic">{TB·CONSULTANT_NAME}</text></g>
<g transform="translate(2,36.75000000000001) scale(1,-1)"><text x="0" y="0" font-size="0.52" text-anchor="start" fill="#1F4E79" font-style="italic">{TB·CONSULTANT_ADDRESS}</text></g>
<g transform="translate(2,29.583333333333332) scale(1,-1)"><text x="0" y="0" font-size="0.77" text-anchor="start" fill="#1F4E79" font-style="italic">{TB·STRUCTURAL_CONSULTANTS_NAME}</text></g>
<g transform="translate(2,25.083333333333332) scale(1,-1)"><text x="0" y="0" font-size="0.52" text-anchor="start" fill="#1F4E79" font-style="italic">{TB·STRUCTURAL_CONSULTANTS_ADDRESS}</text></g>
<g transform="translate(2,17.916666666666668) scale(1,-1)"><text x="0" y="0" font-size="0.77" text-anchor="start" fill="#1F4E79" font-style="italic">{TB·MEP_CONSULTANTS_NAME}</text></g>
<g transform="translate(2,13.416666666666668) scale(1,-1)"><text x="0" y="0" font-size="0.52" text-anchor="start" fill="#1F4E79" font-style="italic">{TB·MEP_CONSULTANTS_ADDRESS}</text></g>
<g transform="translate(2,6.250000000000004) scale(1,-1)"><text x="0" y="0" font-size="0.77" text-anchor="start" fill="#1F4E79" font-style="italic">{TB·CONTRACTOR_NAME}</text></g>
<g transform="translate(2,1.7500000000000049) scale(1,-1)"><text x="0" y="0" font-size="0.52" text-anchor="start" fill="#1F4E79" font-style="italic">{TB·CONTRACTOR_ADDRESS}</text></g>
<g transform="translate(67,58.5) scale(1,-1)"><text x="0" y="0" font-size="0.7" text-anchor="start" fill="#1F4E79" font-style="italic">{TB·NOTES_LEGEND_REF}</text></g>
<g transform="translate(67,48.699999999999996) scale(1,-1)"><text x="0" y="0" font-size="0.7" text-anchor="start" fill="#1F4E79" font-style="italic">{ORG·PROJECT_CODE}</text></g>
<g transform="translate(67,32.6) scale(1,-1)"><text x="0" y="0" font-size="0.7" text-anchor="start" fill="#1F4E79" font-style="italic">{TB·DISCIPLINE}</text></g>
<g transform="translate(67,15.100000000000001) scale(1,-1)"><text x="0" y="0" font-size="0.7" text-anchor="start" fill="#1F4E79" font-style="italic">{ORG·RIBA_STAGE}</text></g>
<g transform="translate(127,56.0) scale(1,-1)"><text x="0" y="0" font-size="2.1" text-anchor="start" fill="#1F4E79" font-style="italic">{ORG·PROJECT_NAME}</text></g>
<g transform="translate(198,63.0) scale(1,-1)"><text x="0" y="0" font-size="0.7" text-anchor="start" fill="#1F4E79" font-style="italic">{TB·DATE_DRAWN}</text></g>
<g transform="translate(198,46.6) scale(1,-1)"><text x="0" y="0" font-size="0.7" text-anchor="start" fill="#1F4E79" font-style="italic">{TB·DRAWN_BY}</text></g>
<g transform="translate(198,29.099999999999998) scale(1,-1)"><text x="0" y="0" font-size="0.7" text-anchor="start" fill="#1F4E79" font-style="italic">{TB·CHECKED_BY}</text></g>
<g transform="translate(198,11.6) scale(1,-1)"><text x="0" y="0" font-size="0.7" text-anchor="start" fill="#1F4E79" font-style="italic">{TB·APVD_BY}</text></g>
<g transform="translate(257,34.0) scale(1,-1)"><text x="0" y="0" font-size="0.7" text-anchor="start" fill="#1F4E79" font-style="italic">{TB·SCALE_OVERRIDE}</text></g>
<g transform="translate(257,13.0) scale(1,-1)"><text x="0" y="0" font-size="0.7" text-anchor="start" fill="#1F4E79" font-style="italic">{TB·PAPER_SZ}</text></g>
<g transform="translate(1.5,76.0) scale(1,-1)"><text x="0" y="0" font-size="0.98" text-anchor="start" fill="#1F4E79" font-style="italic">{TB·DELIVERABLE_STATUS}</text></g>
<g transform="translate(66.84,76.0) scale(1,-1)"><text x="0" y="0" font-size="0.98" text-anchor="start" fill="#1F4E79" font-style="italic">{DWG·SUITABILITY_COD}</text></g>
<g transform="translate(126.24,76.0) scale(1,-1)"><text x="0" y="0" font-size="0.98" text-anchor="start" fill="#1F4E79" font-style="italic">{TB·REVISION_NR}</text></g>
<g transform="translate(164.85000000000002,76.0) scale(1,-1)"><text x="0" y="0" font-size="0.7" text-anchor="start" fill="#1F4E79" font-style="italic">{TB·REVISION_DATE}</text></g>
<g transform="translate(209.39999999999998,76.0) scale(1,-1)"><text x="0" y="0" font-size="0.7" text-anchor="start" fill="#1F4E79" font-style="italic">{ST·LOIN_LOD}</text></g>
<g transform="translate(253.95,76.0) scale(1,-1)"><text x="0" y="0" font-size="0.7" text-anchor="start" fill="#1F4E79" font-style="italic">{ST·FEDERATION_STATUS}</text></g>
<g transform="translate(1.5,73.6) scale(1,-1)"><text x="0" y="0" font-size="0.84" text-anchor="start" fill="#1F4E79" font-style="italic">{ST·SHEET_PROJECT}</text></g>
<g transform="translate(38.625,73.6) scale(1,-1)"><text x="0" y="0" font-size="0.84" text-anchor="start" fill="#1F4E79" font-style="italic">{ST·SHEET_ORIG}</text></g>
<g transform="translate(75.75,73.6) scale(1,-1)"><text x="0" y="0" font-size="0.84" text-anchor="start" fill="#1F4E79" font-style="italic">{ST·SHEET_VOLUME}</text></g>
<g transform="translate(112.875,73.6) scale(1,-1)"><text x="0" y="0" font-size="0.84" text-anchor="start" fill="#1F4E79" font-style="italic">{ST·SHEET_LEVEL}</text></g>
<g transform="translate(150.0,73.6) scale(1,-1)"><text x="0" y="0" font-size="0.84" text-anchor="start" fill="#1F4E79" font-style="italic">{ST·SHEET_TYPE}</text></g>
<g transform="translate(187.125,73.6) scale(1,-1)"><text x="0" y="0" font-size="0.84" text-anchor="start" fill="#1F4E79" font-style="italic">{ST·SHEET_ROLE}</text></g>
<g transform="translate(224.25,73.6) scale(1,-1)"><text x="0" y="0" font-size="0.84" text-anchor="start" fill="#1F4E79" font-style="italic">{ST·SHEET_SEQ}</text></g>
<g transform="translate(261.375,73.6) scale(1,-1)"><text x="0" y="0" font-size="0.7" text-anchor="start" fill="#1F4E79" font-style="italic">{ST·SHEET_OF_TOTAL}</text></g>
<rect x="10" y="75" width="277" height="340" fill="#1F4E79" fill-opacity="0.05" stroke="#1F4E79" stroke-width="0.5" stroke-dasharray="" opacity="1.0"/>
<rect x="10" y="408" width="12" height="7" fill="#1F4E79" opacity="0.9"/>
<g transform="translate(12,413.5) scale(1,-1)"><text x="0" y="0" font-size="4" font-weight="bold" fill="#fff">S01</text></g>
<g transform="translate(12,406) scale(1,-1)"><text x="0" y="0" font-size="3" fill="#1F4E79" opacity="0.85">main-plan</text></g>
<rect x="10" y="75" width="133" height="340" fill="#5fa8d3" fill-opacity="0.05" stroke="#5fa8d3" stroke-width="0.5" stroke-dasharray="" opacity="1.0"/>
<rect x="10" y="408" width="12" height="7" fill="#5fa8d3" opacity="0.9"/>
<g transform="translate(12,413.5) scale(1,-1)"><text x="0" y="0" font-size="4" font-weight="bold" fill="#fff">S02</text></g>
<g transform="translate(12,406) scale(1,-1)"><text x="0" y="0" font-size="3" fill="#5fa8d3" opacity="0.85">main-plan-half-left</text></g>
<rect x="153" y="75" width="133" height="340" fill="#5fa8d3" fill-opacity="0.05" stroke="#5fa8d3" stroke-width="0.5" stroke-dasharray="" opacity="1.0"/>
<rect x="153" y="408" width="12" height="7" fill="#5fa8d3" opacity="0.9"/>
<g transform="translate(155,413.5) scale(1,-1)"><text x="0" y="0" font-size="4" font-weight="bold" fill="#fff">S03</text></g>
<g transform="translate(155,406) scale(1,-1)"><text x="0" y="0" font-size="3" fill="#5fa8d3" opacity="0.85">main-plan-half-right</text></g>
<rect x="10" y="75" width="133" height="162" fill="#5fa8d3" fill-opacity="0.05" stroke="#5fa8d3" stroke-width="0.5" stroke-dasharray="" opacity="1.0"/>
<rect x="10" y="230" width="12" height="7" fill="#5fa8d3" opacity="0.9"/>
<g transform="translate(12,235.5) scale(1,-1)"><text x="0" y="0" font-size="4" font-weight="bold" fill="#fff">S04</text></g>
<g transform="translate(12,228) scale(1,-1)"><text x="0" y="0" font-size="3" fill="#5fa8d3" opacity="0.85">quad-bottom-left</text></g>
<rect x="153" y="75" width="133" height="162" fill="#5fa8d3" fill-opacity="0.05" stroke="#5fa8d3" stroke-width="0.5" stroke-dasharray="" opacity="1.0"/>
<rect x="153" y="230" width="12" height="7" fill="#5fa8d3" opacity="0.9"/>
<g transform="translate(155,235.5) scale(1,-1)"><text x="0" y="0" font-size="4" font-weight="bold" fill="#fff">S05</text></g>
<g transform="translate(155,228) scale(1,-1)"><text x="0" y="0" font-size="3" fill="#5fa8d3" opacity="0.85">quad-bottom-right</text></g>
<rect x="10" y="242" width="133" height="162" fill="#5fa8d3" fill-opacity="0.05" stroke="#5fa8d3" stroke-width="0.5" stroke-dasharray="" opacity="1.0"/>
<rect x="10" y="397" width="12" height="7" fill="#5fa8d3" opacity="0.9"/>
<g transform="translate(12,402.5) scale(1,-1)"><text x="0" y="0" font-size="4" font-weight="bold" fill="#fff">S06</text></g>
<g transform="translate(12,395) scale(1,-1)"><text x="0" y="0" font-size="3" fill="#5fa8d3" opacity="0.85">quad-top-left</text></g>
<rect x="153" y="242" width="133" height="162" fill="#5fa8d3" fill-opacity="0.05" stroke="#5fa8d3" stroke-width="0.5" stroke-dasharray="" opacity="1.0"/>
<rect x="153" y="397" width="12" height="7" fill="#5fa8d3" opacity="0.9"/>
<g transform="translate(155,402.5) scale(1,-1)"><text x="0" y="0" font-size="4" font-weight="bold" fill="#fff">S07</text></g>
<g transform="translate(155,395) scale(1,-1)"><text x="0" y="0" font-size="3" fill="#5fa8d3" opacity="0.85">quad-top-right</text></g>
<rect x="690" y="130" width="120" height="100" fill="#4CAF50" fill-opacity="0.05" stroke="#4CAF50" stroke-width="0.5" stroke-dasharray="" opacity="1.0"/>
<rect x="690" y="223" width="12" height="7" fill="#4CAF50" opacity="0.9"/>
<g transform="translate(692,228.5) scale(1,-1)"><text x="0" y="0" font-size="4" font-weight="bold" fill="#fff">KP</text></g>
<g transform="translate(692,221) scale(1,-1)"><text x="0" y="0" font-size="3" fill="#4CAF50" opacity="0.85">key-plan</text></g>
<rect x="264" y="77" width="18" height="18" fill="#009688" fill-opacity="0.0" stroke="#009688" stroke-width="0.5" stroke-dasharray="1,1.5" opacity="0.95"/>
<rect x="264" y="88" width="12" height="7" fill="#009688" opacity="0.9"/>
<g transform="translate(266,93.5) scale(1,-1)"><text x="0" y="0" font-size="4" font-weight="bold" fill="#fff">NA</text></g>
<g transform="translate(266,86) scale(1,-1)"><text x="0" y="0" font-size="3" fill="#009688" opacity="0.85">north-arrow</text></g>
<rect x="15" y="75" width="30" height="8" fill="#009688" fill-opacity="0.0" stroke="#009688" stroke-width="0.5" stroke-dasharray="1,1.5" opacity="0.95"/>
<rect x="15" y="76" width="12" height="7" fill="#009688" opacity="0.9"/>
<g transform="translate(17,81.5) scale(1,-1)"><text x="0" y="0" font-size="4" font-weight="bold" fill="#fff">SB</text></g>
<g transform="translate(17,74) scale(1,-1)"><text x="0" y="0" font-size="3" fill="#009688" opacity="0.85">scale-bar</text></g>
</g>
<text x="30" y="55" font-size="6" fill="#666" font-weight="bold">slot legend:</text>
<rect x="80" y="51" width="6" height="6" fill="#1F4E79" opacity="0.85"/>
<text x="89" y="55" font-size="5" fill="#333">main-plan</text>
<rect x="119" y="51" width="6" height="6" fill="#5fa8d3" opacity="0.85"/>
<text x="128" y="55" font-size="5" fill="#333">main-plan-half-left</text>
<rect x="188" y="51" width="6" height="6" fill="#5fa8d3" opacity="0.85"/>
<text x="197" y="55" font-size="5" fill="#333">main-plan-half-right</text>
<rect x="260" y="51" width="6" height="6" fill="#5fa8d3" opacity="0.85"/>
<text x="269" y="55" font-size="5" fill="#333">quad-bottom-left</text>
<rect x="320" y="51" width="6" height="6" fill="#5fa8d3" opacity="0.85"/>
<text x="329" y="55" font-size="5" fill="#333">quad-bottom-right</text>
<rect x="383" y="51" width="6" height="6" fill="#5fa8d3" opacity="0.85"/>
<text x="392" y="55" font-size="5" fill="#333">quad-top-left</text>
<rect x="434" y="51" width="6" height="6" fill="#5fa8d3" opacity="0.85"/>
<text x="443" y="55" font-size="5" fill="#333">quad-top-right</text>
<rect x="488" y="51" width="6" height="6" fill="#4CAF50" opacity="0.85"/>
<text x="497" y="55" font-size="5" fill="#333">key-plan</text>
<rect x="524" y="51" width="6" height="6" fill="#009688" opacity="0.85"/>
<text x="533" y="55" font-size="5" fill="#333">north-arrow</text>
<rect x="569" y="51" width="6" height="6" fill="#009688" opacity="0.85"/>
<text x="578" y="55" font-size="5" fill="#333">scale-bar</text>
<text x="30" y="515.0" font-size="7" fill="#444">parameters 63  ·  lines 53  ·  labels 64  ·  static-text 51  ·  fills 2  ·  slots 10</text>
<text x="30" y="525.0" font-size="6" fill="#666">A3 portrait working sheet — full ISO 19650 BIM identity (top BIM strip with status / suitability chip / revision / LOIN / federation, plus 7-segment sheet ID row). Extends A3_PORT_common_v2.0 — inheri…</text>
</svg>