<?xml version="1.0" encoding="UTF-8"?>
<svg xmlns="http://www.w3.org/2000/svg" viewBox="0 0 654 530" width="654mm" height="530mm" style="background:#fafafa;font-family:Helvetica,Arial,sans-serif;">
<rect x="0" y="0" width="654" height="50" fill="#1F4E79"/>
<text x="327.0" y="22.5" text-anchor="middle" fill="#fff" font-size="14" font-weight="bold">STING_TB_A2_NONBIM_v2.0</text>
<text x="327.0" y="39.0" text-anchor="middle" fill="#cfe2ff" font-size="9">paper 594 × 420 mm   ·   mode=NONBIM</text>
<g transform="translate(30,500) scale(1,-1)">
<rect x="0" y="0" width="594" height="420" fill="#ffffff" stroke="#1a1a1a" stroke-width="0.6"/>
<line x1="0" y1="0" x2="841"  y2="0" stroke="#000" stroke-width="0.7"/>
<line x1="841" y1="0" x2="841"  y2="594" stroke="#000" stroke-width="0.7"/>
<line x1="841" y1="594" x2="0"  y2="594" stroke="#000" stroke-width="0.7"/>
<line x1="0" y1="594" x2="0"  y2="0" stroke="#000" stroke-width="0.7"/>
<line x1="0" y1="110" x2="841"  y2="110" stroke="#222" stroke-width="0.35"/>
<line x1="200" y1="0" x2="200"  y2="110" stroke="#444" stroke-width="0.18"/>
<line x1="400" y1="0" x2="400"  y2="110" stroke="#444" stroke-width="0.18"/>
<line x1="620" y1="0" x2="620"  y2="110" stroke="#444" stroke-width="0.18"/>
<line x1="820" y1="0" x2="820"  y2="110" stroke="#444" stroke-width="0.18"/>
<line x1="0" y1="50" x2="200"  y2="50" stroke="#444" stroke-width="0.18"/>
<line x1="0" y1="35" x2="200"  y2="35" stroke="#444" stroke-width="0.18"/>
<line x1="0" y1="20" x2="200"  y2="20" stroke="#444" stroke-width="0.18"/>
<line x1="200" y1="85" x2="400"  y2="85" stroke="#444" stroke-width="0.18"/>
<line x1="200" y1="60" x2="400"  y2="60" stroke="#444" stroke-width="0.18"/>
<line x1="200" y1="35" x2="400"  y2="35" stroke="#444" stroke-width="0.18"/>
<line x1="620" y1="90" x2="820"  y2="90" stroke="#444" stroke-width="0.18"/>
<line x1="620" y1="72" x2="820"  y2="72" stroke="#444" stroke-width="0.18"/>
<line x1="680" y1="72" x2="680"  y2="110" stroke="#444" stroke-width="0.18"/>
<line x1="750" y1="72" x2="750"  y2="110" stroke="#444" stroke-width="0.18"/>
<line x1="0" y1="0" x2="594"  y2="0" stroke="#000" stroke-width="0.7"/>
<line x1="594" y1="0" x2="594"  y2="420" stroke="#000" stroke-width="0.7"/>
<line x1="594" y1="420" x2="0"  y2="420" stroke="#000" stroke-width="0.7"/>
<line x1="0" y1="420" x2="0"  y2="0" stroke="#000" stroke-width="0.7"/>
<line x1="0" y1="88" x2="594"  y2="88" stroke="#222" stroke-width="0.35"/>
<line x1="131" y1="0" x2="131"  y2="88" stroke="#444" stroke-width="0.18"/>
<line x1="249" y1="0" x2="249"  y2="88" stroke="#444" stroke-width="0.18"/>
<line x1="392" y1="0" x2="392"  y2="88" stroke="#444" stroke-width="0.18"/>
<line x1="511" y1="0" x2="511"  y2="88" stroke="#444" stroke-width="0.18"/>
<line x1="0" y1="14.7" x2="131"  y2="14.7" stroke="#444" stroke-width="0.18"/>
<line x1="0" y1="29.3" x2="131"  y2="29.3" stroke="#444" stroke-width="0.18"/>
<line x1="0" y1="44.0" x2="131"  y2="44.0" stroke="#444" stroke-width="0.18"/>
<line x1="0" y1="58.7" x2="131"  y2="58.7" stroke="#444" stroke-width="0.18"/>
<line x1="0" y1="73.3" x2="131"  y2="73.3" stroke="#444" stroke-width="0.18"/>
<line x1="131" y1="26.4" x2="249"  y2="26.4" stroke="#444" stroke-width="0.18"/>
<line x1="131" y1="48.4" x2="249"  y2="48.4" stroke="#444" stroke-width="0.18"/>
<line x1="131" y1="68.6" x2="249"  y2="68.6" stroke="#444" stroke-width="0.18"/>
<line x1="392" y1="22.0" x2="511"  y2="22.0" stroke="#444" stroke-width="0.18"/>
<line x1="392" y1="44.0" x2="511"  y2="44.0" stroke="#444" stroke-width="0.18"/>
<line x1="392" y1="66.0" x2="511"  y2="66.0" stroke="#444" stroke-width="0.18"/>
<g transform="translate(4,105) scale(1,-1)"><text x="0" y="0" font-size="1.4" text-anchor="start" fill="#000">CLIENT</text></g>
<g transform="translate(4,80) scale(1,-1)"><text x="0" y="0" font-size="1.4" text-anchor="start" fill="#000">PROJECT</text></g>
<g transform="translate(4,46) scale(1,-1)"><text x="0" y="0" font-size="1.2" text-anchor="start" fill="#000">ARCHITECT</text></g>
<g transform="translate(4,31) scale(1,-1)"><text x="0" y="0" font-size="1.2" text-anchor="start" fill="#000">STRUCTURAL</text></g>
<g transform="translate(4,16) scale(1,-1)"><text x="0" y="0" font-size="1.2" text-anchor="start" fill="#000">MEP</text></g>
<g transform="translate(4,2) scale(1,-1)"><text x="0" y="0" font-size="1.2" text-anchor="start" fill="#000">CONTRACTOR</text></g>
<g transform="translate(204,105) scale(1,-1)"><text x="0" y="0" font-size="1.4" text-anchor="start" fill="#000">NOTES</text></g>
<g transform="translate(404,105) scale(1,-1)"><text x="0" y="0" font-size="1.4" text-anchor="start" fill="#000">DRAWING TITLE</text></g>
<g transform="translate(204,82) scale(1,-1)"><text x="0" y="0" font-size="1.2" text-anchor="start" fill="#000">PROJECT REF.</text></g>
<g transform="translate(204,56) scale(1,-1)"><text x="0" y="0" font-size="1.2" text-anchor="start" fill="#000">DISCIPLINE</text></g>
<g transform="translate(204,31) scale(1,-1)"><text x="0" y="0" font-size="1.2" text-anchor="start" fill="#000">RIBA STAGE</text></g>
<g transform="translate(624,105) scale(1,-1)"><text x="0" y="0" font-size="1.2" text-anchor="start" fill="#000">DATE</text></g>
<g transform="translate(684,105) scale(1,-1)"><text x="0" y="0" font-size="1.2" text-anchor="start" fill="#000">PAPER</text></g>
<g transform="translate(754,105) scale(1,-1)"><text x="0" y="0" font-size="1.2" text-anchor="start" fill="#000">SCALE</text></g>
<g transform="translate(624,87) scale(1,-1)"><text x="0" y="0" font-size="1.2" text-anchor="start" fill="#000">DRAWN BY</text></g>
<g transform="translate(684,87) scale(1,-1)"><text x="0" y="0" font-size="1.2" text-anchor="start" fill="#000">CHECKED BY</text></g>
<g transform="translate(754,87) scale(1,-1)"><text x="0" y="0" font-size="1.2" text-anchor="start" fill="#000">APPROVED BY</text></g>
<g transform="translate(624,69) scale(1,-1)"><text x="0" y="0" font-size="1.0" text-anchor="start" fill="#000">DATES</text></g>
<g transform="translate(2,85) scale(1,-1)"><text x="0" y="0" font-size="1.19" text-anchor="start" fill="#000">CLIENT</text></g>
<g transform="translate(2,70.33333333333333) scale(1,-1)"><text x="0" y="0" font-size="1.02" text-anchor="start" fill="#000">PROJECT</text></g>
<g transform="translate(2,55.66666666666667) scale(1,-1)"><text x="0" y="0" font-size="0.85" text-anchor="start" fill="#000">ARCHITECT</text></g>
<g transform="translate(2,41.0) scale(1,-1)"><text x="0" y="0" font-size="0.85" text-anchor="start" fill="#000">STRUCTURAL</text></g>
<g transform="translate(2,26.333333333333336) scale(1,-1)"><text x="0" y="0" font-size="0.85" text-anchor="start" fill="#000">MEP</text></g>
<g transform="translate(2,11.666666666666671) scale(1,-1)"><text x="0" y="0" font-size="0.85" text-anchor="start" fill="#000">CONTRACTOR</text></g>
<g transform="translate(133,85) scale(1,-1)"><text x="0" y="0" font-size="1.02" text-anchor="start" fill="#000">NOTES</text></g>
<g transform="translate(133,65.64) scale(1,-1)"><text x="0" y="0" font-size="0.77" text-anchor="start" fill="#000">PROJECT REF</text></g>
<g transform="translate(133,45.400000000000006) scale(1,-1)"><text x="0" y="0" font-size="0.77" text-anchor="start" fill="#000">DISCIPLINE</text></g>
<g transform="translate(133,23.4) scale(1,-1)"><text x="0" y="0" font-size="0.77" text-anchor="start" fill="#000">RIBA STAGE</text></g>
<g transform="translate(251,85) scale(1,-1)"><text x="0" y="0" font-size="1.19" text-anchor="start" fill="#000">DRAWING TITLE</text></g>
<g transform="translate(394,85) scale(1,-1)"><text x="0" y="0" font-size="0.85" text-anchor="start" fill="#000">DATE</text></g>
<g transform="translate(394,63.0) scale(1,-1)"><text x="0" y="0" font-size="0.77" text-anchor="start" fill="#000">DRAWN BY</text></g>
<g transform="translate(394,41.0) scale(1,-1)"><text x="0" y="0" font-size="0.77" text-anchor="start" fill="#000">CHECKED BY</text></g>
<g transform="translate(394,19.0) scale(1,-1)"><text x="0" y="0" font-size="0.77" text-anchor="start" fill="#000">APPROVED BY</text></g>
<g transform="translate(513,85) scale(1,-1)"><text x="0" y="0" font-size="0.85" text-anchor="start" fill="#000">SHEET</text></g>
<g transform="translate(513,49.8) scale(1,-1)"><text x="0" y="0" font-size="0.77" text-anchor="start" fill="#000">SCALE</text></g>
<g transform="translate(513,23.4) scale(1,-1)"><text x="0" y="0" font-size="0.77" text-anchor="start" fill="#000">PAPER</text></g>
<g transform="translate(513,74.8) scale(1,-1)"><text x="0" y="0" font-size="1.02" text-anchor="start" fill="#000">SHEET NUMBER</text></g>
<g transform="translate(513,26.4) scale(1,-1)"><text x="0" y="0" font-size="0.85" text-anchor="start" fill="#000">REV</text></g>
<g transform="translate(4,95) scale(1,-1)"><text x="0" y="0" font-size="2.0" text-anchor="start" fill="#1F4E79" font-style="italic">{TB·CLIENT_NAME}</text></g>
<g transform="translate(4,86) scale(1,-1)"><text x="0" y="0" font-size="1.4" text-anchor="start" fill="#1F4E79" font-style="italic">{TB·CLIENT_ADDRESS}</text></g>
<g transform="translate(4,70) scale(1,-1)"><text x="0" y="0" font-size="2.0" text-anchor="start" fill="#1F4E79" font-style="italic">{ORG·PROJECT_NAME}</text></g>
<g transform="translate(4,60) scale(1,-1)"><text x="0" y="0" font-size="1.4" text-anchor="start" fill="#1F4E79" font-style="italic">{ORG·PROJECT_ADDRESS}</text></g>
<g transform="translate(40,46) scale(1,-1)"><text x="0" y="0" font-size="1.4" text-anchor="start" fill="#1F4E79" font-style="italic">{TB·CONSULTANT_NAME}</text></g>
<g transform="translate(40,41) scale(1,-1)"><text x="0" y="0" font-size="1.0" text-anchor="start" fill="#1F4E79" font-style="italic">{TB·CONSULTANT_ADDRESS}</text></g>
<g transform="translate(40,31) scale(1,-1)"><text x="0" y="0" font-size="1.4" text-anchor="start" fill="#1F4E79" font-style="italic">{TB·STRUCTURAL_CONSULTANTS_NAME}</text></g>
<g transform="translate(40,26) scale(1,-1)"><text x="0" y="0" font-size="1.0" text-anchor="start" fill="#1F4E79" font-style="italic">{TB·STRUCTURAL_CONSULTANTS_ADDRESS}</text></g>
<g transform="translate(40,16) scale(1,-1)"><text x="0" y="0" font-size="1.4" text-anchor="start" fill="#1F4E79" font-style="italic">{TB·MEP_CONSULTANTS_NAME}</text></g>
<g transform="translate(40,11) scale(1,-1)"><text x="0" y="0" font-size="1.0" text-anchor="start" fill="#1F4E79" font-style="italic">{TB·MEP_CONSULTANTS_ADDRESS}</text></g>
<g transform="translate(40,2) scale(1,-1)"><text x="0" y="0" font-size="1.4" text-anchor="start" fill="#1F4E79" font-style="italic">{TB·CONTRACTOR_NAME}</text></g>
<g transform="translate(120,2) scale(1,-1)"><text x="0" y="0" font-size="1.0" text-anchor="start" fill="#1F4E79" font-style="italic">{TB·CONTRACTOR_ADDRESS}</text></g>
<g transform="translate(204,75) scale(1,-1)"><text x="0" y="0" font-size="1.6" text-anchor="start" fill="#1F4E79" font-style="italic">{ORG·PROJECT_CODE}</text></g>
<g transform="translate(300,75) scale(1,-1)"><text x="0" y="0" font-size="1.6" text-anchor="start" fill="#1F4E79" font-style="italic">{ORG·PROJECT_NUMBER}</text></g>
<g transform="translate(204,50) scale(1,-1)"><text x="0" y="0" font-size="1.6" text-anchor="start" fill="#1F4E79" font-style="italic">{TB·DISCIPLINE}</text></g>
<g transform="translate(204,25) scale(1,-1)"><text x="0" y="0" font-size="1.6" text-anchor="start" fill="#1F4E79" font-style="italic">{ORG·RIBA_STAGE}</text></g>
<g transform="translate(204,95) scale(1,-1)"><text x="0" y="0" font-size="1.4" text-anchor="start" fill="#1F4E79" font-style="italic">{TB·NOTES_LEGEND_REF}</text></g>
<g transform="translate(404,90) scale(1,-1)"><text x="0" y="0" font-size="3.5" text-anchor="start" fill="#1F4E79" font-style="italic">{ORG·PROJECT_NAME}</text></g>
<g transform="translate(624,96) scale(1,-1)"><text x="0" y="0" font-size="1.4" text-anchor="start" fill="#1F4E79" font-style="italic">{TB·DATE_DRAWN}</text></g>
<g transform="translate(684,96) scale(1,-1)"><text x="0" y="0" font-size="1.4" text-anchor="start" fill="#1F4E79" font-style="italic">{TB·PAPER_SZ}</text></g>
<g transform="translate(754,96) scale(1,-1)"><text x="0" y="0" font-size="1.4" text-anchor="start" fill="#1F4E79" font-style="italic">{TB·SCALE_OVERRIDE}</text></g>
<g transform="translate(624,78) scale(1,-1)"><text x="0" y="0" font-size="1.4" text-anchor="start" fill="#1F4E79" font-style="italic">{TB·DRAWN_BY}</text></g>
<g transform="translate(684,78) scale(1,-1)"><text x="0" y="0" font-size="1.4" text-anchor="start" fill="#1F4E79" font-style="italic">{TB·CHECKED_BY}</text></g>
<g transform="translate(754,78) scale(1,-1)"><text x="0" y="0" font-size="1.4" text-anchor="start" fill="#1F4E79" font-style="italic">{TB·APVD_BY}</text></g>
<g transform="translate(624,64) scale(1,-1)"><text x="0" y="0" font-size="1.0" text-anchor="start" fill="#1F4E79" font-style="italic">{TB·DATE_DRAWN}</text></g>
<g transform="translate(684,64) scale(1,-1)"><text x="0" y="0" font-size="1.0" text-anchor="start" fill="#1F4E79" font-style="italic">{TB·DATE_CHECKED}</text></g>
<g transform="translate(754,64) scale(1,-1)"><text x="0" y="0" font-size="1.0" text-anchor="start" fill="#1F4E79" font-style="italic">{TB·DATE_APVD}</text></g>
<g transform="translate(2,79.93333333333334) scale(1,-1)"><text x="0" y="0" font-size="1.36" text-anchor="start" fill="#1F4E79" font-style="italic">{TB·CLIENT_NAME}</text></g>
<g transform="translate(2,74.53333333333333) scale(1,-1)"><text x="0" y="0" font-size="0.77" text-anchor="start" fill="#1F4E79" font-style="italic">{TB·CLIENT_ADDRESS}</text></g>
<g transform="translate(2,66.26666666666667) scale(1,-1)"><text x="0" y="0" font-size="1.27" text-anchor="start" fill="#1F4E79" font-style="italic">{ORG·PROJECT_NAME}</text></g>
<g transform="translate(2,60.86666666666667) scale(1,-1)"><text x="0" y="0" font-size="0.72" text-anchor="start" fill="#1F4E79" font-style="italic">{ORG·PROJECT_ADDRESS}</text></g>
<g transform="translate(2,51.60000000000001) scale(1,-1)"><text x="0" y="0" font-size="0.94" text-anchor="start" fill="#1F4E79" font-style="italic">{TB·CONSULTANT_NAME}</text></g>
<g transform="translate(2,46.20000000000001) scale(1,-1)"><text x="0" y="0" font-size="0.64" text-anchor="start" fill="#1F4E79" font-style="italic">{TB·CONSULTANT_ADDRESS}</text></g>
<g transform="translate(2,36.93333333333334) scale(1,-1)"><text x="0" y="0" font-size="0.94" text-anchor="start" fill="#1F4E79" font-style="italic">{TB·STRUCTURAL_CONSULTANTS_NAME}</text></g>
<g transform="translate(2,31.53333333333334) scale(1,-1)"><text x="0" y="0" font-size="0.64" text-anchor="start" fill="#1F4E79" font-style="italic">{TB·STRUCTURAL_CONSULTANTS_ADDRESS}</text></g>
<g transform="translate(2,22.26666666666667) scale(1,-1)"><text x="0" y="0" font-size="0.94" text-anchor="start" fill="#1F4E79" font-style="italic">{TB·MEP_CONSULTANTS_NAME}</text></g>
<g transform="translate(2,16.86666666666667) scale(1,-1)"><text x="0" y="0" font-size="0.64" text-anchor="start" fill="#1F4E79" font-style="italic">{TB·MEP_CONSULTANTS_ADDRESS}</text></g>
<g transform="translate(2,7.600000000000005) scale(1,-1)"><text x="0" y="0" font-size="0.94" text-anchor="start" fill="#1F4E79" font-style="italic">{TB·CONTRACTOR_NAME}</text></g>
<g transform="translate(2,2.2000000000000055) scale(1,-1)"><text x="0" y="0" font-size="0.64" text-anchor="start" fill="#1F4E79" font-style="italic">{TB·CONTRACTOR_ADDRESS}</text></g>
<g transform="translate(133,73.8) scale(1,-1)"><text x="0" y="0" font-size="0.85" text-anchor="start" fill="#1F4E79" font-style="italic">{TB·NOTES_LEGEND_REF}</text></g>
<g transform="translate(133,61.48) scale(1,-1)"><text x="0" y="0" font-size="0.85" text-anchor="start" fill="#1F4E79" font-style="italic">{ORG·PROJECT_CODE}</text></g>
<g transform="translate(133,41.239999999999995) scale(1,-1)"><text x="0" y="0" font-size="0.85" text-anchor="start" fill="#1F4E79" font-style="italic">{TB·DISCIPLINE}</text></g>
<g transform="translate(133,19.240000000000002) scale(1,-1)"><text x="0" y="0" font-size="0.85" text-anchor="start" fill="#1F4E79" font-style="italic">{ORG·RIBA_STAGE}</text></g>
<g transform="translate(251,70.4) scale(1,-1)"><text x="0" y="0" font-size="2.55" text-anchor="start" fill="#1F4E79" font-style="italic">{ORG·PROJECT_NAME}</text></g>
<g transform="translate(394,79.2) scale(1,-1)"><text x="0" y="0" font-size="0.85" text-anchor="start" fill="#1F4E79" font-style="italic">{TB·DATE_DRAWN}</text></g>
<g transform="translate(394,58.84) scale(1,-1)"><text x="0" y="0" font-size="0.85" text-anchor="start" fill="#1F4E79" font-style="italic">{TB·DRAWN_BY}</text></g>
<g transform="translate(394,36.839999999999996) scale(1,-1)"><text x="0" y="0" font-size="0.85" text-anchor="start" fill="#1F4E79" font-style="italic">{TB·CHECKED_BY}</text></g>
<g transform="translate(394,14.84) scale(1,-1)"><text x="0" y="0" font-size="0.85" text-anchor="start" fill="#1F4E79" font-style="italic">{TB·APVD_BY}</text></g>
<g transform="translate(513,43.0) scale(1,-1)"><text x="0" y="0" font-size="0.85" text-anchor="start" fill="#1F4E79" font-style="italic">{TB·SCALE_OVERRIDE}</text></g>
<g transform="translate(513,16.6) scale(1,-1)"><text x="0" y="0" font-size="0.85" text-anchor="start" fill="#1F4E79" font-style="italic">{TB·PAPER_SZ}</text></g>
<g transform="translate(513,48.400000000000006) scale(1,-1)"><text x="0" y="0" font-size="3.4" text-anchor="start" fill="#1F4E79" font-style="italic">{TB·SHEET_NR}</text></g>
<g transform="translate(513,8.8) scale(1,-1)"><text x="0" y="0" font-size="1.27" text-anchor="start" fill="#1F4E79" font-style="italic">{TB·REVISION_NR}</text></g>
<rect x="10" y="93" width="574" height="322" fill="#1F4E79" fill-opacity="0.05" stroke="#1F4E79" stroke-width="0.5" stroke-dasharray="" opacity="1.0"/>
<rect x="10" y="408" width="12" height="7" fill="#1F4E79" opacity="0.9"/>
<g transform="translate(12,413.5) scale(1,-1)"><text x="0" y="0" font-size="4" font-weight="bold" fill="#fff">S01</text></g>
<g transform="translate(12,406) scale(1,-1)"><text x="0" y="0" font-size="3" fill="#1F4E79" opacity="0.85">main-plan</text></g>
<rect x="10" y="93" width="282" height="322" fill="#5fa8d3" fill-opacity="0.05" stroke="#5fa8d3" stroke-width="0.5" stroke-dasharray="" opacity="1.0"/>
<rect x="10" y="408" width="12" height="7" fill="#5fa8d3" opacity="0.9"/>
<g transform="translate(12,413.5) scale(1,-1)"><text x="0" y="0" font-size="4" font-weight="bold" fill="#fff">S02</text></g>
<g transform="translate(12,406) scale(1,-1)"><text x="0" y="0" font-size="3" fill="#5fa8d3" opacity="0.85">main-plan-half-left</text></g>
<rect x="302" y="93" width="282" height="322" fill="#5fa8d3" fill-opacity="0.05" stroke="#5fa8d3" stroke-width="0.5" stroke-dasharray="" opacity="1.0"/>
<rect x="302" y="408" width="12" height="7" fill="#5fa8d3" opacity="0.9"/>
<g transform="translate(304,413.5) scale(1,-1)"><text x="0" y="0" font-size="4" font-weight="bold" fill="#fff">S03</text></g>
<g transform="translate(304,406) scale(1,-1)"><text x="0" y="0" font-size="3" fill="#5fa8d3" opacity="0.85">main-plan-half-right</text></g>
<rect x="10" y="93" width="282" height="153" fill="#5fa8d3" fill-opacity="0.05" stroke="#5fa8d3" stroke-width="0.5" stroke-dasharray="" opacity="1.0"/>
<rect x="10" y="239" width="12" height="7" fill="#5fa8d3" opacity="0.9"/>
<g transform="translate(12,244.5) scale(1,-1)"><text x="0" y="0" font-size="4" font-weight="bold" fill="#fff">S04</text></g>
<g transform="translate(12,237) scale(1,-1)"><text x="0" y="0" font-size="3" fill="#5fa8d3" opacity="0.85">quad-bottom-left</text></g>
<rect x="302" y="93" width="282" height="153" fill="#5fa8d3" fill-opacity="0.05" stroke="#5fa8d3" stroke-width="0.5" stroke-dasharray="" opacity="1.0"/>
<rect x="302" y="239" width="12" height="7" fill="#5fa8d3" opacity="0.9"/>
<g transform="translate(304,244.5) scale(1,-1)"><text x="0" y="0" font-size="4" font-weight="bold" fill="#fff">S05</text></g>
<g transform="translate(304,237) scale(1,-1)"><text x="0" y="0" font-size="3" fill="#5fa8d3" opacity="0.85">quad-bottom-right</text></g>
<rect x="10" y="251" width="282" height="153" fill="#5fa8d3" fill-opacity="0.05" stroke="#5fa8d3" stroke-width="0.5" stroke-dasharray="" opacity="1.0"/>
<rect x="10" y="397" width="12" height="7" fill="#5fa8d3" opacity="0.9"/>
<g transform="translate(12,402.5) scale(1,-1)"><text x="0" y="0" font-size="4" font-weight="bold" fill="#fff">S06</text></g>
<g transform="translate(12,395) scale(1,-1)"><text x="0" y="0" font-size="3" fill="#5fa8d3" opacity="0.85">quad-top-left</text></g>
<rect x="302" y="251" width="282" height="153" fill="#5fa8d3" fill-opacity="0.05" stroke="#5fa8d3" stroke-width="0.5" stroke-dasharray="" opacity="1.0"/>
<rect x="302" y="397" width="12" height="7" fill="#5fa8d3" opacity="0.9"/>
<g transform="translate(304,402.5) scale(1,-1)"><text x="0" y="0" font-size="4" font-weight="bold" fill="#fff">S07</text></g>
<g transform="translate(304,395) scale(1,-1)"><text x="0" y="0" font-size="3" fill="#5fa8d3" opacity="0.85">quad-top-right</text></g>
<rect x="489" y="352" width="95" height="58" fill="#4CAF50" fill-opacity="0.10" stroke="#4CAF50" stroke-width="0.5" stroke-dasharray="3,2" opacity="0.85"/>
<rect x="489" y="403" width="12" height="7" fill="#4CAF50" opacity="0.9"/>
<g transform="translate(491,408.5) scale(1,-1)"><text x="0" y="0" font-size="4" font-weight="bold" fill="#fff">KP</text></g>
<g transform="translate(491,401) scale(1,-1)"><text x="0" y="0" font-size="3" fill="#4CAF50" opacity="0.85">key-plan</text></g>
<rect x="489" y="255" width="95" height="90" fill="#607D8B" fill-opacity="0.10" stroke="#607D8B" stroke-width="0.5" stroke-dasharray="3,2" opacity="0.85"/>
<rect x="489" y="338" width="16.5" height="7" fill="#607D8B" opacity="0.9"/>
<g transform="translate(491,343.5) scale(1,-1)"><text x="0" y="0" font-size="4" font-weight="bold" fill="#fff">NOTES</text></g>
<g transform="translate(491,336) scale(1,-1)"><text x="0" y="0" font-size="3" fill="#607D8B" opacity="0.85">notes</text></g>
<rect x="489" y="173" width="95" height="77" fill="#FF9800" fill-opacity="0.10" stroke="#FF9800" stroke-width="0.5" stroke-dasharray="3,2" opacity="0.85"/>
<rect x="489" y="243" width="19.0" height="7" fill="#FF9800" opacity="0.9"/>
<g transform="translate(491,248.5) scale(1,-1)"><text x="0" y="0" font-size="4" font-weight="bold" fill="#fff">LEGEND</text></g>
<g transform="translate(491,241) scale(1,-1)"><text x="0" y="0" font-size="3" fill="#FF9800" opacity="0.85">discipline-legend</text></g>
<rect x="489" y="93" width="95" height="75" fill="#F44336" fill-opacity="0.10" stroke="#F44336" stroke-width="0.5" stroke-dasharray="3,2" opacity="0.85"/>
<rect x="489" y="161" width="12" height="7" fill="#F44336" opacity="0.9"/>
<g transform="translate(491,166.5) scale(1,-1)"><text x="0" y="0" font-size="4" font-weight="bold" fill="#fff">REV</text></g>
<g transform="translate(491,159) scale(1,-1)"><text x="0" y="0" font-size="3" fill="#F44336" opacity="0.85">revision-history</text></g>
<rect x="561" y="95" width="18" height="18" fill="#009688" fill-opacity="0.0" stroke="#009688" stroke-width="0.5" stroke-dasharray="1,1.5" opacity="0.95"/>
<rect x="561" y="106" width="12" height="7" fill="#009688" opacity="0.9"/>
<g transform="translate(563,111.5) scale(1,-1)"><text x="0" y="0" font-size="4" font-weight="bold" fill="#fff">NA</text></g>
<g transform="translate(563,104) scale(1,-1)"><text x="0" y="0" font-size="3" fill="#009688" opacity="0.85">north-arrow</text></g>
<rect x="15" y="93" width="59" height="8" fill="#009688" fill-opacity="0.0" stroke="#009688" stroke-width="0.5" stroke-dasharray="1,1.5" opacity="0.95"/>
<rect x="15" y="94" width="12" height="7" fill="#009688" opacity="0.9"/>
<g transform="translate(17,99.5) scale(1,-1)"><text x="0" y="0" font-size="4" font-weight="bold" fill="#fff">SB</text></g>
<g transform="translate(17,92) scale(1,-1)"><text x="0" y="0" font-size="3" fill="#009688" opacity="0.85">scale-bar</text></g>
</g>
<text x="30" y="55" font-size="6" fill="#666" font-weight="bold">slot legend:</text>
<rect x="80" y="51" width="6" height="6" fill="#1F4E79" opacity="0.85"/>
<text x="89" y="55" font-size="5" fill="#333">main-plan</text>
<rect x="119" y="51" width="6" height="6" fill="#5fa8d3" opacity="0.85"/>
<text x="128" y="55" font-size="5" fill="#333">main-plan-half-left</text>
<rect x="188" y="51" width="6" height="6" fill="#5fa8d3" opacity="0.85"/>
<text x="197" y="55" font-size="5" fill="#333">main-plan-half-right</text>
<rect x="260" y="51" width="6" height="6" fill="#5fa8d3" opacity="0.85"/>
<text x="269" y="55" font-size="5" fill="#333">quad-bottom-left</text>
<rect x="320" y="51" width="6" height="6" fill="#5fa8d3" opacity="0.85"/>
<text x="329" y="55" font-size="5" fill="#333">quad-bottom-right</text>
<rect x="383" y="51" width="6" height="6" fill="#5fa8d3" opacity="0.85"/>
<text x="392" y="55" font-size="5" fill="#333">quad-top-left</text>
<rect x="434" y="51" width="6" height="6" fill="#5fa8d3" opacity="0.85"/>
<text x="443" y="55" font-size="5" fill="#333">quad-top-right</text>
<rect x="488" y="51" width="6" height="6" fill="#4CAF50" opacity="0.85"/>
<text x="497" y="55" font-size="5" fill="#333">key-plan</text>
<rect x="524" y="51" width="6" height="6" fill="#607D8B" opacity="0.85"/>
<text x="533" y="55" font-size="5" fill="#333">notes</text>
<rect x="551" y="51" width="6" height="6" fill="#FF9800" opacity="0.85"/>
<text x="560" y="55" font-size="5" fill="#333">discipline-legend</text>
<rect x="614" y="51" width="6" height="6" fill="#F44336" opacity="0.85"/>
<text x="623" y="55" font-size="5" fill="#333">revision-history</text>
<rect x="674" y="51" width="6" height="6" fill="#009688" opacity="0.85"/>
<text x="683" y="55" font-size="5" fill="#333">north-arrow</text>
<text x="719" y="55" font-size="5" fill="#999">+1 more</text>
<text x="30" y="515.0" font-size="7" fill="#444">parameters 44  ·  lines 39  ·  labels 52  ·  static-text 38  ·  fills 0  ·  slots 13</text>
<text x="30" y="525.0" font-size="6" fill="#666">A2 landscape working sheet — minimal NONBIM identity (large sheet-number block in the right column). Extends A2_LAND_common_v2.0 — inherits the 5-column bottom strip + slots.</text>
</svg>