<svg xmlns="http://www.w3.org/2000/svg" width="594mm" height="841mm" viewBox="0 0 594 841">
<rect x="0" y="0" width="594" height="841" fill="#FFFFFF"/>
<rect x="0" y="0" width="594" height="60" fill="#1F4E79"/>
<rect x="0" y="741" width="594" height="5" fill="#F2A341"/>
<line x1="0" y1="841" x2="594" y2="841" stroke="#222" stroke-width="0.9"/>
<line x1="594" y1="841" x2="594" y2="0" stroke="#222" stroke-width="0.9"/>
<line x1="594" y1="0" x2="0" y2="0" stroke="#222" stroke-width="0.9"/>
<line x1="0" y1="0" x2="0" y2="841" stroke="#222" stroke-width="0.9"/>
<line x1="0" y1="60" x2="594" y2="60" stroke="#222" stroke-width="0.9"/>
<line x1="0" y1="741" x2="594" y2="741" stroke="#222" stroke-width="0.9"/>
<line x1="0" y1="781" x2="594" y2="781" stroke="#222" stroke-width="0.5"/>
<line x1="297" y1="841" x2="297" y2="741" stroke="#222" stroke-width="0.3"/>
<text x="4" y="14" font-family="Arial" font-size="2.2" fill="#FFFFFF" font-weight="bold">PROJECT</text>
<text x="4" y="761" font-family="Arial" font-size="2.2" fill="#333" font-weight="bold">DELIVERABLE</text>
<text x="4" y="801" font-family="Arial" font-size="2.2" fill="#333" font-weight="bold">REVISION</text>
<text x="300" y="761" font-family="Arial" font-size="2.2" fill="#333" font-weight="bold">ISSUE DATE</text>
<text x="300" y="801" font-family="Arial" font-size="2.2" fill="#333" font-weight="bold">TRANSMITTAL</text>
<text x="297" y="330.5" font-family="Consolas,monospace" font-size="14.4" fill="#1565C0" text-anchor="middle">${PRJ_ORG_PROJECT_NAME_TXT}</text>
<text x="297" y="355.5" font-family="Consolas,monospace" font-size="3.6" fill="#1565C0" text-anchor="middle">${PRJ_ORG_PROJECT_ADDRESS_TXT}</text>
<text x="297" y="400.5" font-family="Consolas,monospace" font-size="5.4" fill="#1565C0" text-anchor="middle">${PRJ_TB_CLIENT_NAME_TXT}</text>
<text x="297" y="440.5" font-family="Consolas,monospace" font-size="2.7" fill="#1565C0" text-anchor="middle">${PRJ_ORG_RIBA_STAGE_TXT}</text>
<text x="297" y="470.5" font-family="Consolas,monospace" font-size="3.6" fill="#1565C0" text-anchor="middle">${PRJ_DWG_ISSUE_PURPOSE_TXT}</text>
<text x="4" y="771" font-family="Consolas,monospace" font-size="2.2" fill="#1565C0" text-anchor="start">${PRJ_TB_DELIVERABLE_STATUS_TXT}</text>
<text x="4" y="811" font-family="Consolas,monospace" font-size="2.7" fill="#1565C0" text-anchor="start">${PRJ_TB_REVISION_NR_TXT}</text>
<text x="300" y="771" font-family="Consolas,monospace" font-size="2.2" fill="#1565C0" text-anchor="start">${PRJ_TB_DATE_DRAWN_TXT}</text>
<text x="300" y="811" font-family="Consolas,monospace" font-size="2.2" fill="#1565C0" text-anchor="start">${PRJ_TB_LAST_TRANSMITTAL_TXT}</text>
</svg>