<?xml version="1.0" encoding="UTF-8"?>
<svg xmlns="http://www.w3.org/2000/svg" viewBox="0 0 901 1299" width="901mm" height="1299mm" style="background:#fafafa;font-family:Helvetica,Arial,sans-serif;">
<rect x="0" y="0" width="901" height="50" fill="#1F4E79"/>
<text x="450.5" y="22.5" text-anchor="middle" fill="#fff" font-size="14" font-weight="bold">STING_TB_A0_PORT_NONBIM_v2.0</text>
<text x="450.5" y="39.0" text-anchor="middle" fill="#cfe2ff" font-size="9">paper 841 × 1189 mm   ·   mode=NONBIM</text>
<g transform="translate(30,1269) scale(1,-1)">
<rect x="0" y="0" width="841" height="1189" fill="#ffffff" stroke="#1a1a1a" stroke-width="0.6"/>
<line x1="0" y1="0" x2="841"  y2="0" stroke="#000" stroke-width="0.7"/>
<line x1="841" y1="0" x2="841"  y2="594" stroke="#000" stroke-width="0.7"/>
<line x1="841" y1="594" x2="0"  y2="594" stroke="#000" stroke-width="0.7"/>
<line x1="0" y1="594" x2="0"  y2="0" stroke="#000" stroke-width="0.7"/>
<line x1="0" y1="110" x2="841"  y2="110" stroke="#222" stroke-width="0.35"/>
<line x1="200" y1="0" x2="200"  y2="110" stroke="#444" stroke-width="0.18"/>
<line x1="400" y1="0" x2="400"  y2="110" stroke="#444" stroke-width="0.18"/>
<line x1="620" y1="0" x2="620"  y2="110" stroke="#444" stroke-width="0.18"/>
<line x1="820" y1="0" x2="820"  y2="110" stroke="#444" stroke-width="0.18"/>
<line x1="0" y1="50" x2="200"  y2="50" stroke="#444" stroke-width="0.18"/>
<line x1="0" y1="35" x2="200"  y2="35" stroke="#444" stroke-width="0.18"/>
<line x1="0" y1="20" x2="200"  y2="20" stroke="#444" stroke-width="0.18"/>
<line x1="200" y1="85" x2="400"  y2="85" stroke="#444" stroke-width="0.18"/>
<line x1="200" y1="60" x2="400"  y2="60" stroke="#444" stroke-width="0.18"/>
<line x1="200" y1="35" x2="400"  y2="35" stroke="#444" stroke-width="0.18"/>
<line x1="620" y1="90" x2="820"  y2="90" stroke="#444" stroke-width="0.18"/>
<line x1="620" y1="72" x2="820"  y2="72" stroke="#444" stroke-width="0.18"/>
<line x1="680" y1="72" x2="680"  y2="110" stroke="#444" stroke-width="0.18"/>
<line x1="750" y1="72" x2="750"  y2="110" stroke="#444" stroke-width="0.18"/>
<line x1="0" y1="0" x2="841"  y2="0" stroke="#000" stroke-width="0.7"/>
<line x1="841" y1="0" x2="841"  y2="1189" stroke="#000" stroke-width="0.7"/>
<line x1="841" y1="1189" x2="0"  y2="1189" stroke="#000" stroke-width="0.7"/>
<line x1="0" y1="1189" x2="0"  y2="0" stroke="#000" stroke-width="0.7"/>
<line x1="0" y1="130" x2="841"  y2="130" stroke="#222" stroke-width="0.35"/>
<line x1="185" y1="0" x2="185"  y2="130" stroke="#444" stroke-width="0.18"/>
<line x1="353" y1="0" x2="353"  y2="130" stroke="#444" stroke-width="0.18"/>
<line x1="555" y1="0" x2="555"  y2="130" stroke="#444" stroke-width="0.18"/>
<line x1="723" y1="0" x2="723"  y2="130" stroke="#444" stroke-width="0.18"/>
<line x1="0" y1="21.7" x2="185"  y2="21.7" stroke="#444" stroke-width="0.18"/>
<line x1="0" y1="43.3" x2="185"  y2="43.3" stroke="#444" stroke-width="0.18"/>
<line x1="0" y1="65.0" x2="185"  y2="65.0" stroke="#444" stroke-width="0.18"/>
<line x1="0" y1="86.7" x2="185"  y2="86.7" stroke="#444" stroke-width="0.18"/>
<line x1="0" y1="108.3" x2="185"  y2="108.3" stroke="#444" stroke-width="0.18"/>
<line x1="185" y1="39.0" x2="353"  y2="39.0" stroke="#444" stroke-width="0.18"/>
<line x1="185" y1="71.5" x2="353"  y2="71.5" stroke="#444" stroke-width="0.18"/>
<line x1="185" y1="101.4" x2="353"  y2="101.4" stroke="#444" stroke-width="0.18"/>
<line x1="555" y1="32.5" x2="723"  y2="32.5" stroke="#444" stroke-width="0.18"/>
<line x1="555" y1="65.0" x2="723"  y2="65.0" stroke="#444" stroke-width="0.18"/>
<line x1="555" y1="97.5" x2="723"  y2="97.5" stroke="#444" stroke-width="0.18"/>
<g transform="translate(4,105) scale(1,-1)"><text x="0" y="0" font-size="1.4" text-anchor="start" fill="#000">CLIENT</text></g>
<g transform="translate(4,80) scale(1,-1)"><text x="0" y="0" font-size="1.4" text-anchor="start" fill="#000">PROJECT</text></g>
<g transform="translate(4,46) scale(1,-1)"><text x="0" y="0" font-size="1.2" text-anchor="start" fill="#000">ARCHITECT</text></g>
<g transform="translate(4,31) scale(1,-1)"><text x="0" y="0" font-size="1.2" text-anchor="start" fill="#000">STRUCTURAL</text></g>
<g transform="translate(4,16) scale(1,-1)"><text x="0" y="0" font-size="1.2" text-anchor="start" fill="#000">MEP</text></g>
<g transform="translate(4,2) scale(1,-1)"><text x="0" y="0" font-size="1.2" text-anchor="start" fill="#000">CONTRACTOR</text></g>
<g transform="translate(204,105) scale(1,-1)"><text x="0" y="0" font-size="1.4" text-anchor="start" fill="#000">NOTES</text></g>
<g transform="translate(404,105) scale(1,-1)"><text x="0" y="0" font-size="1.4" text-anchor="start" fill="#000">DRAWING TITLE</text></g>
<g transform="translate(204,82) scale(1,-1)"><text x="0" y="0" font-size="1.2" text-anchor="start" fill="#000">PROJECT REF.</text></g>
<g transform="translate(204,56) scale(1,-1)"><text x="0" y="0" font-size="1.2" text-anchor="start" fill="#000">DISCIPLINE</text></g>
<g transform="translate(204,31) scale(1,-1)"><text x="0" y="0" font-size="1.2" text-anchor="start" fill="#000">RIBA STAGE</text></g>
<g transform="translate(624,105) scale(1,-1)"><text x="0" y="0" font-size="1.2" text-anchor="start" fill="#000">DATE</text></g>
<g transform="translate(684,105) scale(1,-1)"><text x="0" y="0" font-size="1.2" text-anchor="start" fill="#000">PAPER</text></g>
<g transform="translate(754,105) scale(1,-1)"><text x="0" y="0" font-size="1.2" text-anchor="start" fill="#000">SCALE</text></g>
<g transform="translate(624,87) scale(1,-1)"><text x="0" y="0" font-size="1.2" text-anchor="start" fill="#000">DRAWN BY</text></g>
<g transform="translate(684,87) scale(1,-1)"><text x="0" y="0" font-size="1.2" text-anchor="start" fill="#000">CHECKED BY</text></g>
<g transform="translate(754,87) scale(1,-1)"><text x="0" y="0" font-size="1.2" text-anchor="start" fill="#000">APPROVED BY</text></g>
<g transform="translate(624,69) scale(1,-1)"><text x="0" y="0" font-size="1.0" text-anchor="start" fill="#000">DATES</text></g>
<g transform="translate(3,126) scale(1,-1)"><text x="0" y="0" font-size="1.82" text-anchor="start" fill="#000">CLIENT</text></g>
<g transform="translate(3,104.33333333333333) scale(1,-1)"><text x="0" y="0" font-size="1.56" text-anchor="start" fill="#000">PROJECT</text></g>
<g transform="translate(3,82.66666666666666) scale(1,-1)"><text x="0" y="0" font-size="1.3" text-anchor="start" fill="#000">ARCHITECT</text></g>
<g transform="translate(3,61.0) scale(1,-1)"><text x="0" y="0" font-size="1.3" text-anchor="start" fill="#000">STRUCTURAL</text></g>
<g transform="translate(3,39.33333333333333) scale(1,-1)"><text x="0" y="0" font-size="1.3" text-anchor="start" fill="#000">MEP</text></g>
<g transform="translate(3,17.666666666666657) scale(1,-1)"><text x="0" y="0" font-size="1.3" text-anchor="start" fill="#000">CONTRACTOR</text></g>
<g transform="translate(188,126) scale(1,-1)"><text x="0" y="0" font-size="1.56" text-anchor="start" fill="#000">NOTES</text></g>
<g transform="translate(188,97.4) scale(1,-1)"><text x="0" y="0" font-size="1.17" text-anchor="start" fill="#000">PROJECT REF</text></g>
<g transform="translate(188,67.5) scale(1,-1)"><text x="0" y="0" font-size="1.17" text-anchor="start" fill="#000">DISCIPLINE</text></g>
<g transform="translate(188,35.0) scale(1,-1)"><text x="0" y="0" font-size="1.17" text-anchor="start" fill="#000">RIBA STAGE</text></g>
<g transform="translate(356,126) scale(1,-1)"><text x="0" y="0" font-size="1.82" text-anchor="start" fill="#000">DRAWING TITLE</text></g>
<g transform="translate(558,126) scale(1,-1)"><text x="0" y="0" font-size="1.3" text-anchor="start" fill="#000">DATE</text></g>
<g transform="translate(558,93.5) scale(1,-1)"><text x="0" y="0" font-size="1.17" text-anchor="start" fill="#000">DRAWN BY</text></g>
<g transform="translate(558,61.0) scale(1,-1)"><text x="0" y="0" font-size="1.17" text-anchor="start" fill="#000">CHECKED BY</text></g>
<g transform="translate(558,28.5) scale(1,-1)"><text x="0" y="0" font-size="1.17" text-anchor="start" fill="#000">APPROVED BY</text></g>
<g transform="translate(726,126) scale(1,-1)"><text x="0" y="0" font-size="1.3" text-anchor="start" fill="#000">SHEET</text></g>
<g transform="translate(726,74.0) scale(1,-1)"><text x="0" y="0" font-size="1.17" text-anchor="start" fill="#000">SCALE</text></g>
<g transform="translate(726,35.0) scale(1,-1)"><text x="0" y="0" font-size="1.17" text-anchor="start" fill="#000">PAPER</text></g>
<g transform="translate(725,110.5) scale(1,-1)"><text x="0" y="0" font-size="1.56" text-anchor="start" fill="#000">SHEET NUMBER</text></g>
<g transform="translate(725,39.0) scale(1,-1)"><text x="0" y="0" font-size="1.3" text-anchor="start" fill="#000">REV</text></g>
<g transform="translate(4,95) scale(1,-1)"><text x="0" y="0" font-size="2.0" text-anchor="start" fill="#1F4E79" font-style="italic">{TB·CLIENT_NAME}</text></g>
<g transform="translate(4,86) scale(1,-1)"><text x="0" y="0" font-size="1.4" text-anchor="start" fill="#1F4E79" font-style="italic">{TB·CLIENT_ADDRESS}</text></g>
<g transform="translate(4,70) scale(1,-1)"><text x="0" y="0" font-size="2.0" text-anchor="start" fill="#1F4E79" font-style="italic">{ORG·PROJECT_NAME}</text></g>
<g transform="translate(4,60) scale(1,-1)"><text x="0" y="0" font-size="1.4" text-anchor="start" fill="#1F4E79" font-style="italic">{ORG·PROJECT_ADDRESS}</text></g>
<g transform="translate(40,46) scale(1,-1)"><text x="0" y="0" font-size="1.4" text-anchor="start" fill="#1F4E79" font-style="italic">{TB·CONSULTANT_NAME}</text></g>
<g transform="translate(40,41) scale(1,-1)"><text x="0" y="0" font-size="1.0" text-anchor="start" fill="#1F4E79" font-style="italic">{TB·CONSULTANT_ADDRESS}</text></g>
<g transform="translate(40,31) scale(1,-1)"><text x="0" y="0" font-size="1.4" text-anchor="start" fill="#1F4E79" font-style="italic">{TB·STRUCTURAL_CONSULTANTS_NAME}</text></g>
<g transform="translate(40,26) scale(1,-1)"><text x="0" y="0" font-size="1.0" text-anchor="start" fill="#1F4E79" font-style="italic">{TB·STRUCTURAL_CONSULTANTS_ADDRESS}</text></g>
<g transform="translate(40,16) scale(1,-1)"><text x="0" y="0" font-size="1.4" text-anchor="start" fill="#1F4E79" font-style="italic">{TB·MEP_CONSULTANTS_NAME}</text></g>
<g transform="translate(40,11) scale(1,-1)"><text x="0" y="0" font-size="1.0" text-anchor="start" fill="#1F4E79" font-style="italic">{TB·MEP_CONSULTANTS_ADDRESS}</text></g>
<g transform="translate(40,2) scale(1,-1)"><text x="0" y="0" font-size="1.4" text-anchor="start" fill="#1F4E79" font-style="italic">{TB·CONTRACTOR_NAME}</text></g>
<g transform="translate(120,2) scale(1,-1)"><text x="0" y="0" font-size="1.0" text-anchor="start" fill="#1F4E79" font-style="italic">{TB·CONTRACTOR_ADDRESS}</text></g>
<g transform="translate(204,75) scale(1,-1)"><text x="0" y="0" font-size="1.6" text-anchor="start" fill="#1F4E79" font-style="italic">{ORG·PROJECT_CODE}</text></g>
<g transform="translate(300,75) scale(1,-1)"><text x="0" y="0" font-size="1.6" text-anchor="start" fill="#1F4E79" font-style="italic">{ORG·PROJECT_NUMBER}</text></g>
<g transform="translate(204,50) scale(1,-1)"><text x="0" y="0" font-size="1.6" text-anchor="start" fill="#1F4E79" font-style="italic">{TB·DISCIPLINE}</text></g>
<g transform="translate(204,25) scale(1,-1)"><text x="0" y="0" font-size="1.6" text-anchor="start" fill="#1F4E79" font-style="italic">{ORG·RIBA_STAGE}</text></g>
<g transform="translate(204,95) scale(1,-1)"><text x="0" y="0" font-size="1.4" text-anchor="start" fill="#1F4E79" font-style="italic">{TB·NOTES_LEGEND_REF}</text></g>
<g transform="translate(404,90) scale(1,-1)"><text x="0" y="0" font-size="3.5" text-anchor="start" fill="#1F4E79" font-style="italic">{ORG·PROJECT_NAME}</text></g>
<g transform="translate(624,96) scale(1,-1)"><text x="0" y="0" font-size="1.4" text-anchor="start" fill="#1F4E79" font-style="italic">{TB·DATE_DRAWN}</text></g>
<g transform="translate(684,96) scale(1,-1)"><text x="0" y="0" font-size="1.4" text-anchor="start" fill="#1F4E79" font-style="italic">{TB·PAPER_SZ}</text></g>
<g transform="translate(754,96) scale(1,-1)"><text x="0" y="0" font-size="1.4" text-anchor="start" fill="#1F4E79" font-style="italic">{TB·SCALE_OVERRIDE}</text></g>
<g transform="translate(624,78) scale(1,-1)"><text x="0" y="0" font-size="1.4" text-anchor="start" fill="#1F4E79" font-style="italic">{TB·DRAWN_BY}</text></g>
<g transform="translate(684,78) scale(1,-1)"><text x="0" y="0" font-size="1.4" text-anchor="start" fill="#1F4E79" font-style="italic">{TB·CHECKED_BY}</text></g>
<g transform="translate(754,78) scale(1,-1)"><text x="0" y="0" font-size="1.4" text-anchor="start" fill="#1F4E79" font-style="italic">{TB·APVD_BY}</text></g>
<g transform="translate(624,64) scale(1,-1)"><text x="0" y="0" font-size="1.0" text-anchor="start" fill="#1F4E79" font-style="italic">{TB·DATE_DRAWN}</text></g>
<g transform="translate(684,64) scale(1,-1)"><text x="0" y="0" font-size="1.0" text-anchor="start" fill="#1F4E79" font-style="italic">{TB·DATE_CHECKED}</text></g>
<g transform="translate(754,64) scale(1,-1)"><text x="0" y="0" font-size="1.0" text-anchor="start" fill="#1F4E79" font-style="italic">{TB·DATE_APVD}</text></g>
<g transform="translate(3,118.08333333333333) scale(1,-1)"><text x="0" y="0" font-size="2.08" text-anchor="start" fill="#1F4E79" font-style="italic">{TB·CLIENT_NAME}</text></g>
<g transform="translate(3,110.58333333333333) scale(1,-1)"><text x="0" y="0" font-size="1.17" text-anchor="start" fill="#1F4E79" font-style="italic">{TB·CLIENT_ADDRESS}</text></g>
<g transform="translate(3,97.41666666666666) scale(1,-1)"><text x="0" y="0" font-size="1.95" text-anchor="start" fill="#1F4E79" font-style="italic">{ORG·PROJECT_NAME}</text></g>
<g transform="translate(3,89.91666666666666) scale(1,-1)"><text x="0" y="0" font-size="1.1" text-anchor="start" fill="#1F4E79" font-style="italic">{ORG·PROJECT_ADDRESS}</text></g>
<g transform="translate(3,75.74999999999999) scale(1,-1)"><text x="0" y="0" font-size="1.43" text-anchor="start" fill="#1F4E79" font-style="italic">{TB·CONSULTANT_NAME}</text></g>
<g transform="translate(3,68.24999999999999) scale(1,-1)"><text x="0" y="0" font-size="0.98" text-anchor="start" fill="#1F4E79" font-style="italic">{TB·CONSULTANT_ADDRESS}</text></g>
<g transform="translate(3,54.08333333333333) scale(1,-1)"><text x="0" y="0" font-size="1.43" text-anchor="start" fill="#1F4E79" font-style="italic">{TB·STRUCTURAL_CONSULTANTS_NAME}</text></g>
<g transform="translate(3,46.58333333333333) scale(1,-1)"><text x="0" y="0" font-size="0.98" text-anchor="start" fill="#1F4E79" font-style="italic">{TB·STRUCTURAL_CONSULTANTS_ADDRESS}</text></g>
<g transform="translate(3,32.41666666666666) scale(1,-1)"><text x="0" y="0" font-size="1.43" text-anchor="start" fill="#1F4E79" font-style="italic">{TB·MEP_CONSULTANTS_NAME}</text></g>
<g transform="translate(3,24.91666666666666) scale(1,-1)"><text x="0" y="0" font-size="0.98" text-anchor="start" fill="#1F4E79" font-style="italic">{TB·MEP_CONSULTANTS_ADDRESS}</text></g>
<g transform="translate(3,10.74999999999999) scale(1,-1)"><text x="0" y="0" font-size="1.43" text-anchor="start" fill="#1F4E79" font-style="italic">{TB·CONTRACTOR_NAME}</text></g>
<g transform="translate(3,3.2499999999999893) scale(1,-1)"><text x="0" y="0" font-size="0.98" text-anchor="start" fill="#1F4E79" font-style="italic">{TB·CONTRACTOR_ADDRESS}</text></g>
<g transform="translate(188,109.5) scale(1,-1)"><text x="0" y="0" font-size="1.3" text-anchor="start" fill="#1F4E79" font-style="italic">{TB·NOTES_LEGEND_REF}</text></g>
<g transform="translate(188,91.3) scale(1,-1)"><text x="0" y="0" font-size="1.3" text-anchor="start" fill="#1F4E79" font-style="italic">{ORG·PROJECT_CODE}</text></g>
<g transform="translate(188,61.4) scale(1,-1)"><text x="0" y="0" font-size="1.3" text-anchor="start" fill="#1F4E79" font-style="italic">{TB·DISCIPLINE}</text></g>
<g transform="translate(188,28.900000000000002) scale(1,-1)"><text x="0" y="0" font-size="1.3" text-anchor="start" fill="#1F4E79" font-style="italic">{ORG·RIBA_STAGE}</text></g>
<g transform="translate(356,104.0) scale(1,-1)"><text x="0" y="0" font-size="3.9" text-anchor="start" fill="#1F4E79" font-style="italic">{ORG·PROJECT_NAME}</text></g>
<g transform="translate(558,117.0) scale(1,-1)"><text x="0" y="0" font-size="1.3" text-anchor="start" fill="#1F4E79" font-style="italic">{TB·DATE_DRAWN}</text></g>
<g transform="translate(558,87.4) scale(1,-1)"><text x="0" y="0" font-size="1.3" text-anchor="start" fill="#1F4E79" font-style="italic">{TB·DRAWN_BY}</text></g>
<g transform="translate(558,54.9) scale(1,-1)"><text x="0" y="0" font-size="1.3" text-anchor="start" fill="#1F4E79" font-style="italic">{TB·CHECKED_BY}</text></g>
<g transform="translate(558,22.4) scale(1,-1)"><text x="0" y="0" font-size="1.3" text-anchor="start" fill="#1F4E79" font-style="italic">{TB·APVD_BY}</text></g>
<g transform="translate(726,64.0) scale(1,-1)"><text x="0" y="0" font-size="1.3" text-anchor="start" fill="#1F4E79" font-style="italic">{TB·SCALE_OVERRIDE}</text></g>
<g transform="translate(726,25.0) scale(1,-1)"><text x="0" y="0" font-size="1.3" text-anchor="start" fill="#1F4E79" font-style="italic">{TB·PAPER_SZ}</text></g>
<g transform="translate(725,71.5) scale(1,-1)"><text x="0" y="0" font-size="5.2" text-anchor="start" fill="#1F4E79" font-style="italic">{TB·SHEET_NR}</text></g>
<g transform="translate(725,13.0) scale(1,-1)"><text x="0" y="0" font-size="1.95" text-anchor="start" fill="#1F4E79" font-style="italic">{TB·REVISION_NR}</text></g>
<rect x="10" y="135" width="821" height="1049" fill="none" stroke="#5fa8d3" stroke-width="0.4" stroke-dasharray="3,2"/>
<g transform="translate(15,1179) scale(1,-1)"><text x="0" y="0" font-size="6" font-weight="bold" fill="#5fa8d3">S01</text></g>
<g transform="translate(15,1172) scale(1,-1)"><text x="0" y="0" font-size="3.5" fill="#5fa8d3" opacity="0.7">main-plan</text></g>
<rect x="10" y="135" width="405" height="1049" fill="none" stroke="#5fa8d3" stroke-width="0.4" stroke-dasharray="3,2"/>
<g transform="translate(15,1179) scale(1,-1)"><text x="0" y="0" font-size="6" font-weight="bold" fill="#5fa8d3">S02</text></g>
<g transform="translate(15,1172) scale(1,-1)"><text x="0" y="0" font-size="3.5" fill="#5fa8d3" opacity="0.7">main-plan-half-left</text></g>
<rect x="425" y="135" width="405" height="1049" fill="none" stroke="#5fa8d3" stroke-width="0.4" stroke-dasharray="3,2"/>
<g transform="translate(430,1179) scale(1,-1)"><text x="0" y="0" font-size="6" font-weight="bold" fill="#5fa8d3">S03</text></g>
<g transform="translate(430,1172) scale(1,-1)"><text x="0" y="0" font-size="3.5" fill="#5fa8d3" opacity="0.7">main-plan-half-right</text></g>
<rect x="10" y="135" width="405" height="517" fill="none" stroke="#5fa8d3" stroke-width="0.4" stroke-dasharray="3,2"/>
<g transform="translate(15,647) scale(1,-1)"><text x="0" y="0" font-size="6" font-weight="bold" fill="#5fa8d3">S04</text></g>
<g transform="translate(15,640) scale(1,-1)"><text x="0" y="0" font-size="3.5" fill="#5fa8d3" opacity="0.7">quad-bottom-left</text></g>
<rect x="425" y="135" width="405" height="517" fill="none" stroke="#5fa8d3" stroke-width="0.4" stroke-dasharray="3,2"/>
<g transform="translate(430,647) scale(1,-1)"><text x="0" y="0" font-size="6" font-weight="bold" fill="#5fa8d3">S05</text></g>
<g transform="translate(430,640) scale(1,-1)"><text x="0" y="0" font-size="3.5" fill="#5fa8d3" opacity="0.7">quad-bottom-right</text></g>
<rect x="10" y="657" width="405" height="517" fill="none" stroke="#5fa8d3" stroke-width="0.4" stroke-dasharray="3,2"/>
<g transform="translate(15,1169) scale(1,-1)"><text x="0" y="0" font-size="6" font-weight="bold" fill="#5fa8d3">S06</text></g>
<g transform="translate(15,1162) scale(1,-1)"><text x="0" y="0" font-size="3.5" fill="#5fa8d3" opacity="0.7">quad-top-left</text></g>
<rect x="425" y="657" width="405" height="517" fill="none" stroke="#5fa8d3" stroke-width="0.4" stroke-dasharray="3,2"/>
<g transform="translate(430,1169) scale(1,-1)"><text x="0" y="0" font-size="6" font-weight="bold" fill="#5fa8d3">S07</text></g>
<g transform="translate(430,1162) scale(1,-1)"><text x="0" y="0" font-size="3.5" fill="#5fa8d3" opacity="0.7">quad-top-right</text></g>
<rect x="708" y="140" width="118" height="189" fill="none" stroke="#5fa8d3" stroke-width="0.4" stroke-dasharray="3,2"/>
<g transform="translate(713,324) scale(1,-1)"><text x="0" y="0" font-size="6" font-weight="bold" fill="#5fa8d3">KP</text></g>
<g transform="translate(713,317) scale(1,-1)"><text x="0" y="0" font-size="3.5" fill="#5fa8d3" opacity="0.7">key-plan</text></g>
</g>
<text x="30" y="1284.0" font-size="7" fill="#444">parameters 44  ·  lines 39  ·  labels 52  ·  static-text 38  ·  fills 0  ·  slots 8</text>
<text x="30" y="1294.0" font-size="6" fill="#666">A0 portrait working sheet — minimal NONBIM identity (large sheet-number block in the right column). Extends A0_PORT_common_v2.0 — inherits the 5-column bottom strip + slots.</text>
</svg>