<svg xmlns="http://www.w3.org/2000/svg" width="594.0mm" height="420.0mm" viewBox="0 0 594.0 420.0">
<rect width="594.0" height="420.0" fill="#FFF"/>
<rect x="0.0" y="0.0" width="594.0" height="42.39999999999998" fill="#1F4E79"/>
<rect x="0.0" y="349.3" width="594.0" height="3.5" fill="#F2A341"/>
<line x1="0.0" y1="420.0" x2="594.0" y2="420.0" stroke="#222" stroke-width="0.9"/>
<line x1="594.0" y1="420.0" x2="594.0" y2="0.0" stroke="#222" stroke-width="0.9"/>
<line x1="594.0" y1="0.0" x2="0.0" y2="0.0" stroke="#222" stroke-width="0.9"/>
<line x1="0.0" y1="0.0" x2="0.0" y2="420.0" stroke="#222" stroke-width="0.9"/>
<line x1="0.0" y1="42.39999999999998" x2="594.0" y2="42.39999999999998" stroke="#222" stroke-width="0.9"/>
<line x1="0.0" y1="349.3" x2="594.0" y2="349.3" stroke="#222" stroke-width="0.9"/>
<line x1="0.0" y1="377.6" x2="594.0" y2="377.6" stroke="#222" stroke-width="0.5"/>
<line x1="297.0" y1="420.0" x2="297.0" y2="349.3" stroke="#222" stroke-width="0.3"/>
<text x="2.8" y="9.899999999999977" font-family="Arial" font-size="2.0" fill="#333" font-weight="bold">PROJECT</text>
<text x="2.8" y="363.4" font-family="Arial" font-size="2.0" fill="#333" font-weight="bold">DELIVERABLE</text>
<text x="2.8" y="391.7" font-family="Arial" font-size="2.0" fill="#333" font-weight="bold">REVISION</text>
<text x="299.8" y="363.4" font-family="Arial" font-size="2.0" fill="#333" font-weight="bold">ISSUE DATE</text>
<text x="299.8" y="391.7" font-family="Arial" font-size="2.0" fill="#333" font-weight="bold">TRANSMITTAL</text>
<text x="297.0" y="188.8" font-family="Consolas,monospace" font-size="10.2" fill="#1565C0" text-anchor="middle">${PRJ_ORG_PROJECT_NAME_TXT}</text>
<text x="297.0" y="206.5" font-family="Consolas,monospace" font-size="2.5" fill="#1565C0" text-anchor="middle">${PRJ_ORG_PROJECT_ADDRESS_TXT}</text>
<text x="297.0" y="238.3" font-family="Consolas,monospace" font-size="3.8" fill="#1565C0" text-anchor="middle">${PRJ_TB_CLIENT_NAME_TXT}</text>
<text x="297.0" y="266.6" font-family="Consolas,monospace" font-size="2.0" fill="#1565C0" text-anchor="middle">${PRJ_ORG_RIBA_STAGE_TXT}</text>
<text x="297.0" y="287.8" font-family="Consolas,monospace" font-size="2.5" fill="#1565C0" text-anchor="middle">${PRJ_DWG_ISSUE_PURPOSE_TXT}</text>
<text x="2.8" y="370.5" font-family="Consolas,monospace" font-size="2.0" fill="#1565C0" text-anchor="start">${PRJ_TB_DELIVERABLE_STATUS_TXT}</text>
<text x="2.8" y="398.8" font-family="Consolas,monospace" font-size="2.0" fill="#1565C0" text-anchor="start">${PRJ_TB_REVISION_NR_TXT}</text>
<text x="299.8" y="370.5" font-family="Consolas,monospace" font-size="2.0" fill="#1565C0" text-anchor="start">${PRJ_TB_DATE_DRAWN_TXT}</text>
<text x="299.8" y="398.8" font-family="Consolas,monospace" font-size="2.0" fill="#1565C0" text-anchor="start">${PRJ_TB_LAST_TRANSMITTAL_TXT}</text>
</svg>