<?xml version="1.0" encoding="UTF-8"?>
<svg viewBox="0 0 1180 834" xmlns="http://www.w3.org/2000/svg" width="1180" height="834" font-family="'Segoe UI',Arial,sans-serif">
<defs><style>
  .navy{fill:#16324f}.disc{fill:#c98a2b}.band{fill:#f6f1e7}.panel{fill:#f5f7f9}
  .rule{stroke:#d7dbe0;stroke-width:1}.rulel{stroke:#e9edf0;stroke-width:1}
  .kick{font-size:11px;font-weight:700;letter-spacing:.24em;fill:#a8721f}
  .proj{font-size:31px;font-weight:800;fill:#16324f}
  .sub{font-size:12.5px;font-weight:600;fill:#44505e}
  .h{font-size:11px;font-weight:800;letter-spacing:.14em;fill:#16324f}
  .lbl{font-size:8px;font-weight:700;letter-spacing:.06em;fill:#8a94a1}
  .val{font-size:10.5px;font-weight:700;fill:#1f2937}
  .vm{font-size:10px;font-weight:600;fill:#374151}
  .tiny{font-size:8.5px;font-weight:600;fill:#6b7280}
  .chip{font-size:11.5px;font-weight:800;fill:#fff}
  .row{font-size:9.5px;font-weight:600;fill:#33404e}
  .ghost{fill:#9aa5b1;font-size:9.5px;font-weight:700}
  .std{font-size:8.5px;font-weight:600;fill:#33404e}
  .role{font-size:7.5px;font-weight:700;letter-spacing:.08em;fill:#a8721f}
  .firm{font-size:9px;font-weight:700;fill:#1f2937}
</style></defs>
<rect x="0" y="0" width="1180" height="834" fill="#fff"/>
<rect x="6" y="6" width="1168" height="822" rx="3" fill="#fff" stroke="#c4ccd4" stroke-width="1.5"/>
<rect x="18" y="18" width="1144" height="62" class="band"/><rect x="18" y="18" width="1144" height="3" class="disc"/>
<text x="42" y="49" font-size="21" font-weight="800" fill="#16324f" letter-spacing=".06em">PLANSCAPE</text>
<text x="43" y="66" font-size="8" font-weight="700" letter-spacing=".26em" fill="#8a94a1">CONSULTING ENGINEERS · LEAD APPOINTED PARTY</text>
<line x1="330" y1="30" x2="330" y2="70" class="rule"/>
<text x="352" y="42" class="lbl" style="letter-spacing:.14em">DOCUMENT No.</text>
<text x="352" y="63" fill="#16324f" font-size="15" font-weight="800" letter-spacing=".04em">STG-PLNS-ZZ-XX-DR-E-0001</text>
<line x1="650" y1="30" x2="650" y2="70" class="rule"/>
<text x="672" y="42" class="lbl" style="letter-spacing:.14em">ISSUE DATE</text>
<text x="672" y="63" fill="#16324f" font-size="13" font-weight="700">13 JUL 2026</text>
<line x1="800" y1="30" x2="800" y2="70" class="rule"/>
<text x="822" y="42" class="lbl" style="letter-spacing:.14em">SUIT · REV</text>
<text x="822" y="63" fill="#16324f" font-size="13" font-weight="800">S4 · C01</text>
<rect x="952" y="18" width="210" height="62" class="disc"/><rect x="952" y="18" width="6" height="62" fill="#a8721f"/>
<text x="1062" y="42" text-anchor="middle" fill="#f6ead2" font-size="8" font-weight="700" letter-spacing=".3em">DISCIPLINE</text>
<text x="1062" y="64" text-anchor="middle" fill="#fff" font-size="16" font-weight="800" letter-spacing=".04em">MEP — ELECTRICAL</text>
<text x="42" y="110" class="kick">PROJECT</text>
<text x="40" y="147" class="proj">KAMPALA UGANDA TEMPLE —</text>
<text x="40" y="182" class="proj">ELECTRICAL SERVICES</text>
<text x="42" y="206" class="sub">PROJECT No. STG-2401 &#160;·&#160; Kololo, Kampala, Uganda &#160;·&#160; CLIENT: The Church of Jesus Christ of Latter-day Saints</text>
<line x1="42" y1="217" x2="806" y2="217" class="rule"/>
<rect x="826" y="92" width="336" height="396" rx="3" fill="#fff" stroke="#cbd3da" stroke-width="1.2"/>
<rect x="826" y="92" width="336" height="26" class="band"/><rect x="826" y="92" width="336" height="3" class="disc"/>
<text x="841" y="111" class="h">DRAWING REGISTER</text>
<text x="1148" y="111" text-anchor="end" font-size="8.5" font-weight="800" fill="#a8721f">LIVE</text>
<text x="841" y="132" class="lbl">SHEET No.</text><text x="948" y="132" class="lbl">TITLE</text><text x="1147" y="132" text-anchor="end" class="lbl">REV</text>
<line x1="841" y1="138" x2="1147" y2="138" class="rule"/>
<g class="row">
  <text x="841" y="154">…-E-0001</text><text x="948" y="154">Cover Sheet</text><text x="1147" y="154" text-anchor="end">C01</text>
  <text x="841" y="173">…-E-0002</text><text x="948" y="173">General Notes &amp; Legends</text><text x="1147" y="173" text-anchor="end">C01</text>
  <text x="841" y="192">…-E-1001</text><text x="948" y="192">Power — Ground Floor</text><text x="1147" y="192" text-anchor="end">C01</text>
  <text x="841" y="211">…-E-1002</text><text x="948" y="211">Power — First Floor</text><text x="1147" y="211" text-anchor="end">C01</text>
  <text x="841" y="230">…-E-1101</text><text x="948" y="230">Lighting — Ground Floor</text><text x="1147" y="230" text-anchor="end">C01</text>
  <text x="841" y="249">…-E-1102</text><text x="948" y="249">Lighting — First Floor</text><text x="1147" y="249" text-anchor="end">P02</text>
  <text x="841" y="268">…-E-2001</text><text x="948" y="268">Single Line Diagram</text><text x="1147" y="268" text-anchor="end">C01</text>
  <text x="841" y="287">…-E-2002</text><text x="948" y="287">Distribution Schematics</text><text x="1147" y="287" text-anchor="end">P02</text>
  <text x="841" y="306">…-E-3001</text><text x="948" y="306">Containment Routes</text><text x="1147" y="306" text-anchor="end">P01</text>
  <text x="841" y="325">…-E-4001</text><text x="948" y="325">Earthing &amp; Lightning</text><text x="1147" y="325" text-anchor="end">P01</text>
  <text x="841" y="344">…-E-5001</text><text x="948" y="344">Fire Alarm Layout</text><text x="1147" y="344" text-anchor="end">P01</text>
  <text x="841" y="363">…-E-9001</text><text x="948" y="363">Panel Schedules</text><text x="1147" y="363" text-anchor="end">P01</text>
  <text x="841" y="382" fill="#8a94a1">⋮</text><text x="948" y="382" fill="#8a94a1">⋮</text>
</g>
<line x1="841" y1="394" x2="1147" y2="394" class="rule"/>
<text x="841" y="412" class="tiny">Live sheet-list schedule — grows with the set, splits to</text>
<text x="841" y="425" class="tiny">columns, overflows to a continuation register sheet.</text>
<text x="841" y="445" class="tiny" style="fill:#16324f;font-weight:700">18 sheets in set · 12 shown</text>
<text x="841" y="470" class="tiny" style="font-size:8px;fill:#a8721f;font-weight:700">▲ Register is the authority for CURRENT revisions of every sheet.</text>
<rect x="826" y="500" width="336" height="254" rx="3" fill="#fff" stroke="#cbd3da" stroke-width="1.2"/>
<rect x="826" y="500" width="336" height="26" class="band"/><rect x="826" y="500" width="336" height="3" class="disc"/>
<text x="841" y="519" class="h">STANDARDS &amp; REFERENCES</text>
<text x="841" y="540" class="lbl">REF / STANDARD</text><text x="975" y="540" class="lbl">SCOPE</text><text x="1080" y="540" class="lbl">USED IN</text>
<line x1="841" y1="546" x2="1147" y2="546" class="rule"/>
<g class="std">
<text x="841" y="561">BS EN ISO 19650-2</text><text x="975" y="561">Info management</text><text x="1080" y="561">All sheets</text>
<text x="841" y="578">BS 7671:2018+A2</text><text x="975" y="578">Wiring regs</text><text x="1080" y="578">E-1001…1102</text>
<text x="841" y="595">BS EN 62305 §4.3</text><text x="975" y="595">Lightning prot.</text><text x="1080" y="595">E-4001</text>
<text x="841" y="612">BS 5839-1 §14</text><text x="975" y="612">Fire detection</text><text x="1080" y="612">E-5001</text>
<text x="841" y="629">BS EN 12464-1</text><text x="975" y="629">Lighting levels</text><text x="1080" y="629">E-1101, 1102</text>
<text x="841" y="646">CIBSE Guide K</text><text x="975" y="646">Electricity</text><text x="1080" y="646">E-2001, 2002</text>
<text x="841" y="663">IEEE 1584</text><text x="975" y="663">Arc flash</text><text x="1080" y="663">E-9001</text>
<text x="841" y="680">Uganda NBC 2019</text><text x="975" y="680">National code</text><text x="1080" y="680">All sheets</text>
<text x="841" y="697">EIR §3.2 · BEP v2.0</text><text x="975" y="697">Project req'ts</text><text x="1080" y="697">Doc control</text>
</g>
<line x1="841" y1="708" x2="1147" y2="708" class="rulel"/>
<text x="841" y="722" class="tiny" style="font-size:7.5px">Corporate defaults baked in · project rows via PRJ_TB_NOTES_LEGEND_REF_TXT</text>
<text x="841" y="736" class="tiny" style="font-size:7.5px">Quote the CLAUSE/SECTION where a standard governs a specific detail.</text>
<rect x="18" y="228" width="392" height="212" rx="3" fill="#fff" stroke="#e2e6ea"/>
<rect x="18" y="228" width="392" height="25" class="panel"/><text x="32" y="245" class="h">DOCUMENT CONTROL</text>
<rect x="32" y="262" width="88" height="30" rx="3" class="disc"/>
<text x="76" y="274" text-anchor="middle" fill="#f6ead2" font-size="7.5" font-weight="700" letter-spacing=".1em">SUITABILITY</text>
<text x="76" y="287" text-anchor="middle" class="chip">S4</text>
<rect x="126" y="262" width="88" height="30" rx="3" fill="#fff" stroke="#c98a2b" stroke-width="1.4"/>
<text x="170" y="274" text-anchor="middle" fill="#a8721f" font-size="7.5" font-weight="700" letter-spacing=".1em">STATUS</text>
<text x="170" y="287" text-anchor="middle" fill="#a8721f" font-size="10.5" font-weight="800">SHARED</text>
<rect x="220" y="262" width="88" height="30" rx="3" class="navy"/>
<text x="264" y="274" text-anchor="middle" fill="#cdd9e3" font-size="7.5" font-weight="700" letter-spacing=".1em">REVISION</text>
<text x="264" y="287" text-anchor="middle" class="chip">C01</text>
<g>
<text x="32" y="312" class="lbl">PURPOSE</text><text x="100" y="312" class="val">For Construction</text>
<text x="32" y="331" class="lbl">SECURITY</text><text x="100" y="331" class="vm">OFFICIAL</text>
<text x="188" y="331" class="lbl">LOD</text><text x="220" y="331" class="vm">LOD 350</text>
<line x1="32" y1="341" x2="300" y2="341" class="rulel"/>
<text x="32" y="359" class="lbl">DRAWN</text><text x="90" y="359" class="vm">A. Draughter</text>
<text x="32" y="377" class="lbl">CHECKED</text><text x="90" y="377" class="vm">B. Checker</text>
<text x="188" y="359" class="lbl">APPROVED</text><text x="250" y="359" class="vm">C. Approver</text>
<text x="188" y="377" class="lbl">AUTHORISED</text><text x="250" y="377" class="vm">D. Authoriser</text>
<text x="32" y="396" class="lbl">DATE</text><text x="90" y="396" class="vm">13 Jul 2026</text>
<text x="32" y="422" class="tiny" style="font-size:8px">S4 — stage approval for construction (ISO 19650)</text>
</g>
<g transform="translate(322,300)">
  <rect x="0" y="0" width="64" height="64" fill="#fff" stroke="#16324f" stroke-width="1.3"/>
  <rect x="4" y="4" width="15" height="15" fill="#16324f"/><rect x="7" y="7" width="9" height="9" fill="#fff"/><rect x="9" y="9" width="5" height="5" fill="#16324f"/>
  <rect x="45" y="4" width="15" height="15" fill="#16324f"/><rect x="48" y="7" width="9" height="9" fill="#fff"/><rect x="50" y="9" width="5" height="5" fill="#16324f"/>
  <rect x="4" y="45" width="15" height="15" fill="#16324f"/><rect x="7" y="48" width="9" height="9" fill="#fff"/><rect x="9" y="50" width="5" height="5" fill="#16324f"/>
  <g fill="#16324f"><rect x="26" y="6" width="4" height="4"/><rect x="34" y="6" width="4" height="4"/><rect x="26" y="14" width="4" height="4"/><rect x="6" y="26" width="4" height="4"/><rect x="14" y="26" width="4" height="4"/><rect x="26" y="26" width="4" height="4"/><rect x="34" y="26" width="4" height="4"/><rect x="44" y="26" width="4" height="4"/><rect x="52" y="26" width="4" height="4"/><rect x="26" y="34" width="4" height="4"/><rect x="40" y="34" width="4" height="4"/><rect x="52" y="34" width="4" height="4"/><rect x="26" y="45" width="4" height="4"/><rect x="34" y="45" width="4" height="4"/><rect x="45" y="45" width="4" height="4"/><rect x="52" y="52" width="4" height="4"/></g>
</g>
<text x="354" y="380" text-anchor="middle" class="lbl" style="font-size:7px;fill:#16324f">SCAN — VERIFY ISSUE</text>
<text x="354" y="392" text-anchor="middle" class="tiny" style="font-size:7px">latest rev on CDE</text>
<rect x="418" y="228" width="388" height="212" rx="3" fill="#fff" stroke="#e2e6ea"/>
<rect x="418" y="228" width="388" height="25" class="panel"/><text x="432" y="245" class="h">BIM &amp; COORDINATION</text>
<g>
<text x="432" y="274" class="lbl">CDE STATE</text><text x="518" y="274" class="vm">WIP / Shared</text>
<text x="628" y="274" class="lbl">FEDERATION</text><text x="712" y="274" class="vm">FED-OK</text>
<text x="432" y="296" class="lbl">COORD SYSTEM</text><text x="518" y="296" class="vm">Arc 1960 / UTM 36N</text>
<text x="628" y="296" class="lbl">PROJECT N</text><text x="712" y="296" class="vm">+12.5° E</text>
<text x="432" y="318" class="lbl">GROUND LEVEL</text><text x="518" y="318" class="vm">1,150 mAOD</text>
<text x="628" y="318" class="lbl">REGION</text><text x="712" y="318" class="vm">Central / Kampala</text>
<text x="432" y="340" class="lbl">SOFTWARE</text><text x="518" y="340" class="vm">Revit 2025 · IFC 4</text>
<text x="628" y="340" class="lbl">UNITS · CLASS</text><text x="712" y="340" class="vm">mm · Class 2</text>
<text x="432" y="362" class="lbl">NAMING</text><text x="518" y="362" class="vm">BS EN ISO 19650-2 : 2018</text>
<line x1="432" y1="374" x2="792" y2="374" class="rulel"/>
<text x="432" y="392" class="lbl" style="fill:#16324f">DISCIPLINE COLOURS — WHOLE SHEET TAKES ONE (AUTOMATED)</text>
<g font-size="8" font-weight="700" fill="#374151">
  <rect x="432" y="400" width="9" height="9" fill="#6b7280"/><text x="445" y="408">ARCH</text>
  <rect x="482" y="400" width="9" height="9" fill="#b5493a"/><text x="495" y="408">STRUCT</text>
  <rect x="544" y="400" width="9" height="9" fill="#2563a8"/><text x="557" y="408">MEP-MECH</text>
  <rect x="622" y="400" width="9" height="9" fill="#c98a2b"/><text x="635" y="408">MEP-ELEC</text>
  <rect x="696" y="400" width="9" height="9" fill="#2e7d4f"/><text x="709" y="408">MEP-PLUMB</text>
</g>
<g font-size="8" font-weight="700" fill="#374151">
  <rect x="432" y="416" width="9" height="9" fill="#c0392b"/><text x="445" y="424">FIRE</text>
  <rect x="482" y="416" width="9" height="9" fill="#2f7d8f"/><text x="495" y="424">MEP-COMBINED</text>
  <text x="610" y="424" class="tiny" style="font-size:7.5px">auto-switches with the discipline family type</text>
</g>
</g>
<rect x="18" y="450" width="470" height="170" rx="3" fill="#fff" stroke="#e2e6ea"/>
<rect x="18" y="450" width="470" height="25" class="panel"/>
<text x="32" y="467" class="h">LATEST ISSUES</text>
<text x="476" y="467" text-anchor="end" class="tiny">last 4 — full history: register + CDE (scan QR)</text>
<text x="32" y="488" class="lbl">REV</text><text x="80" y="488" class="lbl">DESCRIPTION</text><text x="320" y="488" class="lbl">SUIT.</text><text x="366" y="488" class="lbl">DATE</text><text x="436" y="488" class="lbl">BY</text>
<line x1="32" y1="494" x2="474" y2="494" class="rule"/>
<g class="vm" style="font-size:9.5px">
<text x="32" y="510">P01</text><text x="80" y="510">First issue for information</text><text x="320" y="510">S2</text><text x="366" y="510">12.03.26</text><text x="436" y="510">AD</text>
<text x="32" y="527">P02</text><text x="80" y="527">Coordination updates</text><text x="320" y="527">S2</text><text x="366" y="527">28.04.26</text><text x="436" y="527">AD</text>
<text x="32" y="544">P03</text><text x="80" y="544">Client comments incorporated</text><text x="320" y="544">S3</text><text x="366" y="544">19.05.26</text><text x="436" y="544">AD</text>
<text x="32" y="561" font-weight="800" fill="#a8721f">C01</text><text x="80" y="561" font-weight="800" fill="#16324f">Issued for construction</text><text x="320" y="561" font-weight="800" fill="#16324f">S4</text><text x="366" y="561" font-weight="800" fill="#16324f">13.07.26</text><text x="436" y="561" font-weight="800" fill="#16324f">CA</text>
</g>
<line x1="32" y1="574" x2="474" y2="574" class="rulel"/>
<text x="32" y="590" class="tiny" style="font-size:8px">Shows the LAST 4 issues only — the table can never outgrow the sheet.</text>
<text x="32" y="603" class="tiny" style="font-size:8px">Older issues remain queryable on the CDE and the register sheet.</text>
<rect x="498" y="450" width="308" height="170" rx="3" fill="#fff" stroke="#e2e6ea"/>
<rect x="498" y="450" width="308" height="25" class="band"/><rect x="498" y="450" width="308" height="3" class="disc"/>
<text x="512" y="467" class="h">CHANGES IN THIS ISSUE — C01</text>
<g class="tiny" style="font-size:9px;fill:#374151">
<text x="512" y="490">▸ SLD updated — generator changeover added</text>
<text x="512" y="507">▸ Panel schedules re-balanced (DB-GF-01…04)</text>
<text x="512" y="524">▸ Containment re-routed at Grid C-D / L1</text>
<text x="512" y="541">▸ Emergency lighting added to stair cores</text>
<text x="512" y="558">▸ Earthing pit relocated — see E-4001</text>
</g>
<line x1="512" y1="572" x2="792" y2="572" class="rulel"/>
<text x="512" y="588" class="tiny" style="font-size:7.5px">One bullet per clouded change — clouds on plans carry the</text>
<text x="512" y="600" class="tiny" style="font-size:7.5px">matching rev tag. Bound to PRJ_TB_ISSUE_SUMMARY_TXT.</text>
<rect x="18" y="630" width="788" height="126" class="band"/>
<rect x="18" y="630" width="788" height="3" class="disc"/>
<text x="32" y="650" class="h" style="font-size:10px">PROJECT DIRECTORY — STAKEHOLDERS &amp; CONSULTANTS</text>
<text x="794" y="650" text-anchor="end" class="tiny" style="font-size:7.5px">roles per ISO 19650-2 · contacts in the BEP</text>
<g>
  <rect x="32" y="660" width="118" height="86" rx="3" fill="#fff" stroke="#cdd5dd"/>
  <rect x="40" y="668" width="102" height="34" rx="2" fill="#f5f7f9"/><text x="91" y="689" text-anchor="middle" class="ghost">[ client logo ]</text>
  <text x="91" y="716" text-anchor="middle" class="role">APPOINTING PARTY</text>
  <text x="91" y="731" text-anchor="middle" class="firm">The Church — Facilities</text>
  <rect x="160" y="660" width="118" height="86" rx="3" fill="#fff" stroke="#c98a2b" stroke-width="1.3"/>
  <rect x="168" y="668" width="102" height="34" rx="2" fill="#f6f1e7"/><text x="219" y="690" text-anchor="middle" fill="#16324f" font-size="11" font-weight="800">PLANSCAPE</text>
  <text x="219" y="716" text-anchor="middle" class="role">LEAD APPOINTED · MEP</text>
  <text x="219" y="731" text-anchor="middle" class="firm">Planscape Consulting Eng.</text>
  <rect x="288" y="660" width="118" height="86" rx="3" fill="#fff" stroke="#cdd5dd"/>
  <rect x="296" y="668" width="102" height="34" rx="2" fill="#f5f7f9"/><text x="347" y="689" text-anchor="middle" class="ghost">[ architect ]</text>
  <text x="347" y="716" text-anchor="middle" class="role">ARCHITECT</text>
  <text x="347" y="731" text-anchor="middle" class="firm">Symbion Consulting</text>
  <rect x="416" y="660" width="118" height="86" rx="3" fill="#fff" stroke="#cdd5dd"/>
  <rect x="424" y="668" width="102" height="34" rx="2" fill="#f5f7f9"/><text x="475" y="689" text-anchor="middle" class="ghost">[ structural ]</text>
  <text x="475" y="716" text-anchor="middle" class="role">STRUCTURAL</text>
  <text x="475" y="731" text-anchor="middle" class="firm">Planscape — Structures</text>
  <rect x="544" y="660" width="118" height="86" rx="3" fill="#fff" stroke="#cdd5dd"/>
  <rect x="552" y="668" width="102" height="34" rx="2" fill="#f5f7f9"/><text x="603" y="689" text-anchor="middle" class="ghost">[ contractor ]</text>
  <text x="603" y="716" text-anchor="middle" class="role">MAIN CONTRACTOR</text>
  <text x="603" y="731" text-anchor="middle" class="firm">[ TBC at award ]</text>
  <rect x="672" y="660" width="118" height="86" rx="3" fill="#fff" stroke="#cdd5dd"/>
  <rect x="680" y="668" width="102" height="34" rx="2" fill="#f5f7f9"/><text x="731" y="689" text-anchor="middle" class="ghost">[ authority ]</text>
  <text x="731" y="716" text-anchor="middle" class="role">INFORMATION MANAGER</text>
  <text x="731" y="731" text-anchor="middle" class="firm">Mayanja Davis — Planscape</text>
</g>
<line x1="18" y1="792" x2="1162" y2="792" class="rule"/>
<text x="32" y="812" class="tiny" style="font-size:8.5px;fill:#44505e">© Planscape Consulting Engineers Ltd — not to be reproduced without written permission &#160;·&#160; <tspan font-weight="800" fill="#16324f">DO NOT SCALE</tspan> — work to figured dimensions</text>
<text x="980" y="812" class="lbl" style="fill:#16324f">SHEET</text>
<text x="1030" y="813" fill="#16324f" font-size="13" font-weight="800">01 / 18</text>
<text x="1162" y="812" text-anchor="end" class="tiny" style="font-size:8px">ISO 19650 · BS 7671 · CIBSE K</text>
</svg>
